<?xml version="1.0" encoding="UTF-8"?>
<svg xmlns="http://www.w3.org/2000/svg" xmlns:xlink="http://www.w3.org/1999/xlink" width="854" height="480" viewBox="0 0 854 480">
<defs>
<g>
<g id="glyph-0-0">
<path d="M 3.890625 -4.550781 L 3.890625 -3.332031 L 5.140625 -3.332031 L 5.140625 -4.550781 L 3.890625 -4.550781 M 5.589844 -4.550781 L 5.589844 -3.332031 L 6.875 -3.332031 L 6.875 -4.550781 L 5.589844 -4.550781 M 5.589844 -2.328125 C 5.589844 -1.515625 5.601562 -0.820312 5.625 -0.242188 L 5.070312 -0.0351562 C 5.117188 -0.730469 5.140625 -1.585938 5.140625 -2.605469 C 4.445312 -1.746094 3.65625 -1.089844 2.777344 -0.625 L 2.707031 -0.730469 C 3.75 -1.515625 4.492188 -2.316406 4.929688 -3.125 L 3.890625 -3.125 L 3.890625 -2.8125 L 3.4375 -2.640625 L 3.4375 -5 L 3.890625 -4.757812 L 5.140625 -4.757812 L 5.140625 -5.730469 L 3.75 -5.730469 C 3.449219 -5.730469 3.171875 -5.695312 2.917969 -5.625 L 2.605469 -5.9375 L 5.140625 -5.9375 C 5.140625 -6.285156 5.128906 -6.703125 5.105469 -7.1875 L 5.902344 -6.875 L 5.589844 -6.632812 L 5.589844 -5.9375 L 7.152344 -5.9375 L 7.605469 -6.320312 L 8.195312 -5.730469 L 5.589844 -5.730469 L 5.589844 -4.757812 L 6.804688 -4.757812 L 7.050781 -5.105469 L 7.640625 -4.722656 L 7.328125 -4.480469 C 7.328125 -3.878906 7.339844 -3.355469 7.363281 -2.917969 L 6.875 -2.742188 L 6.875 -3.125 L 5.589844 -3.125 L 5.589844 -2.5 C 6.355469 -2.269531 6.910156 -2.058594 7.257812 -1.875 C 7.605469 -1.691406 7.785156 -1.492188 7.796875 -1.285156 C 7.808594 -1.078125 7.773438 -0.925781 7.691406 -0.832031 C 7.609375 -0.742188 7.429688 -0.867188 7.152344 -1.214844 C 6.875 -1.5625 6.355469 -1.933594 5.589844 -2.328125 M 0.9375 -6.632812 L 1.042969 -6.703125 C 1.390625 -6.515625 1.667969 -6.335938 1.875 -6.164062 C 2.082031 -5.988281 2.183594 -5.832031 2.171875 -5.695312 C 2.160156 -5.554688 2.105469 -5.433594 2.015625 -5.332031 C 1.921875 -5.226562 1.851562 -5.175781 1.804688 -5.175781 C 1.714844 -5.175781 1.632812 -5.300781 1.5625 -5.554688 C 1.445312 -5.902344 1.238281 -6.261719 0.9375 -6.632812 M 2.222656 -0.9375 C 2.476562 -0.683594 2.796875 -0.441406 3.175781 -0.207031 C 3.558594 0.0234375 4.242188 0.144531 5.226562 0.15625 C 6.210938 0.167969 7.316406 0.105469 8.542969 -0.0351562 L 8.542969 0.105469 C 8.101562 0.242188 7.871094 0.429688 7.847656 0.660156 C 6.78125 0.683594 5.910156 0.683594 5.226562 0.660156 C 4.542969 0.636719 3.980469 0.53125 3.542969 0.347656 C 3.101562 0.160156 2.765625 -0.0703125 2.535156 -0.347656 C 2.28125 -0.601562 2.09375 -0.730469 1.980469 -0.730469 C 1.863281 -0.730469 1.679688 -0.597656 1.421875 -0.328125 C 1.167969 -0.0625 0.984375 0.171875 0.867188 0.382812 L 0.382812 -0.0703125 C 0.753906 -0.394531 1.214844 -0.695312 1.769531 -0.972656 L 1.769531 -3.714844 L 1.457031 -3.714844 C 1.15625 -3.714844 0.878906 -3.679688 0.625 -3.609375 L 0.3125 -3.921875 L 1.703125 -3.921875 L 1.945312 -4.269531 L 2.535156 -3.855469 L 2.222656 -3.609375 Z "/>
</g>
<g id="glyph-0-1">
<path d="M 3.542969 -2.8125 C 3.566406 -3.277344 3.578125 -3.808594 3.578125 -4.410156 L 2.671875 -4.410156 L 2.257812 -4.339844 L 1.980469 -4.617188 L 3.578125 -4.617188 C 3.578125 -4.964844 3.566406 -5.347656 3.542969 -5.765625 L 4.304688 -5.382812 L 4.027344 -5.207031 L 4.027344 -4.617188 L 5.972656 -4.617188 C 5.972656 -5.011719 5.960938 -5.382812 5.9375 -5.730469 L 6.738281 -5.382812 L 6.425781 -5.175781 L 6.425781 -4.617188 L 7.082031 -4.617188 L 7.535156 -5.070312 L 8.195312 -4.410156 L 6.425781 -4.410156 C 6.425781 -3.738281 6.433594 -3.296875 6.457031 -3.089844 L 5.972656 -2.882812 L 5.972656 -3.195312 L 4.027344 -3.195312 L 4.027344 -3.019531 L 3.542969 -2.8125 M 6.769531 -2.082031 C 6.238281 -1.410156 5.789062 -0.914062 5.417969 -0.589844 C 6.15625 -0.128906 7.140625 0.128906 8.367188 0.171875 L 8.367188 0.3125 C 8 0.382812 7.777344 0.53125 7.707031 0.765625 C 6.621094 0.554688 5.753906 0.195312 5.105469 -0.3125 C 3.992188 0.3125 2.789062 0.707031 1.492188 0.867188 L 1.457031 0.730469 C 2.683594 0.496094 3.796875 0.046875 4.792969 -0.625 C 4.351562 -1.066406 3.945312 -1.609375 3.578125 -2.257812 L 3.230469 -2.257812 L 2.917969 -2.1875 L 2.640625 -2.464844 L 6.285156 -2.464844 L 6.597656 -2.777344 L 7.117188 -2.257812 L 6.769531 -2.082031 M 3.75 -2.257812 C 4.191406 -1.65625 4.628906 -1.191406 5.070312 -0.867188 C 5.53125 -1.308594 5.925781 -1.769531 6.25 -2.257812 L 3.75 -2.257812 M 4.027344 -4.410156 L 4.027344 -3.402344 L 5.972656 -3.402344 L 5.972656 -4.410156 L 4.027344 -4.410156 M 1.355469 -6.457031 L 1.945312 -6.113281 L 4.6875 -6.113281 C 4.664062 -6.25 4.613281 -6.402344 4.53125 -6.5625 C 4.449219 -6.726562 4.28125 -6.957031 4.027344 -7.257812 L 4.132812 -7.328125 C 4.664062 -7.09375 4.972656 -6.914062 5.050781 -6.789062 C 5.132812 -6.660156 5.175781 -6.585938 5.175781 -6.5625 C 5.175781 -6.425781 5.082031 -6.273438 4.894531 -6.113281 L 7.152344 -6.113281 L 7.640625 -6.597656 L 8.332031 -5.902344 L 1.910156 -5.902344 C 1.933594 -4.515625 1.890625 -3.433594 1.789062 -2.65625 C 1.683594 -1.882812 1.515625 -1.214844 1.285156 -0.660156 C 1.054688 -0.105469 0.765625 0.40625 0.417969 0.867188 L 0.3125 0.796875 C 0.777344 -0.0117188 1.070312 -0.855469 1.199219 -1.734375 C 1.324219 -2.617188 1.394531 -3.511719 1.40625 -4.425781 C 1.417969 -5.339844 1.402344 -6.019531 1.355469 -6.457031 Z "/>
</g>
<g id="glyph-0-2">
<path d="M 1.355469 -6.910156 L 1.390625 -7.015625 C 1.898438 -6.78125 2.25 -6.585938 2.449219 -6.425781 C 2.644531 -6.261719 2.742188 -6.101562 2.742188 -5.9375 C 2.742188 -5.777344 2.703125 -5.660156 2.621094 -5.589844 C 2.539062 -5.519531 2.488281 -5.488281 2.464844 -5.488281 C 2.351562 -5.488281 2.246094 -5.625 2.152344 -5.902344 C 1.992188 -6.25 1.726562 -6.585938 1.355469 -6.910156 M 2.292969 -0.519531 L 3.644531 -1.703125 L 3.714844 -1.597656 C 2.90625 -0.554688 2.40625 0.140625 2.222656 0.484375 L 1.703125 -0.105469 C 1.792969 -0.242188 1.839844 -0.464844 1.839844 -0.765625 L 1.839844 -3.890625 L 0.9375 -3.890625 L 1.25 -3.890625 C 1.109375 -3.890625 0.914062 -3.855469 0.660156 -3.785156 L 0.347656 -4.097656 L 1.769531 -4.097656 L 2.152344 -4.480469 L 2.640625 -3.992188 L 2.292969 -3.75 L 2.292969 -0.519531 M 5.347656 -4.0625 C 5.347656 -5.613281 5.335938 -6.621094 5.3125 -7.082031 L 6.144531 -6.703125 L 5.867188 -6.425781 L 5.867188 -4.0625 L 7.429688 -4.0625 L 7.882812 -4.515625 L 8.507812 -3.855469 L 5.867188 -3.855469 L 5.867188 -0.695312 C 5.867188 -0.230469 5.878906 0.195312 5.902344 0.589844 L 5.3125 0.832031 C 5.335938 0.117188 5.347656 -0.429688 5.347656 -0.796875 L 5.347656 -3.855469 L 3.578125 -3.855469 L 4.097656 -3.855469 C 3.820312 -3.855469 3.554688 -3.820312 3.296875 -3.75 L 2.984375 -4.0625 Z "/>
</g>
<g id="glyph-0-3">
<path d="M 3.714844 -2.117188 C 3.691406 -1.746094 3.65625 -1.390625 3.609375 -1.042969 L 5.3125 -1.042969 L 5.3125 -2.117188 L 3.714844 -2.117188 M 6.804688 -2.882812 C 6.804688 -2.695312 6.816406 -2.394531 6.839844 -1.980469 L 6.320312 -1.769531 L 6.320312 -2.117188 L 5.800781 -2.117188 L 5.800781 -1.078125 L 7.363281 -1.078125 L 7.847656 -1.527344 L 8.472656 -0.867188 L 5.800781 -0.867188 C 5.800781 -0.0820312 5.808594 0.429688 5.832031 0.660156 L 5.277344 0.902344 C 5.300781 0.207031 5.3125 -0.371094 5.3125 -0.832031 L 3.578125 -0.832031 C 3.414062 -0.324219 3.074219 0.0703125 2.550781 0.347656 C 2.03125 0.625 1.46875 0.808594 0.867188 0.902344 L 0.832031 0.796875 C 1.503906 0.566406 2.007812 0.328125 2.34375 0.0859375 C 2.679688 -0.15625 2.917969 -0.464844 3.054688 -0.832031 L 1.5625 -0.832031 C 1.261719 -0.832031 0.984375 -0.796875 0.730469 -0.730469 L 0.417969 -1.042969 L 3.089844 -1.042969 C 3.136719 -1.367188 3.171875 -1.726562 3.195312 -2.117188 L 2.570312 -2.117188 L 2.570312 -1.839844 L 2.082031 -1.667969 C 2.105469 -2.382812 2.113281 -3.121094 2.101562 -3.871094 C 2.089844 -4.625 2.070312 -5.082031 2.046875 -5.242188 L 2.570312 -4.964844 L 6.285156 -4.964844 L 6.492188 -5.277344 L 7.050781 -4.894531 L 6.804688 -4.6875 L 6.804688 -2.882812 M 2.570312 -4.757812 L 2.570312 -4.132812 L 6.320312 -4.132812 L 6.320312 -4.757812 L 2.570312 -4.757812 M 2.570312 -3.921875 L 2.570312 -3.265625 L 6.320312 -3.265625 L 6.320312 -3.921875 L 2.570312 -3.921875 M 2.570312 -3.054688 L 2.570312 -2.328125 L 6.320312 -2.328125 L 6.320312 -3.054688 L 2.570312 -3.054688 M 2.1875 -7.328125 L 2.882812 -6.945312 C 2.742188 -6.875 2.632812 -6.792969 2.550781 -6.703125 C 2.472656 -6.609375 2.359375 -6.457031 2.222656 -6.25 L 3.75 -6.25 L 4.167969 -6.667969 L 4.722656 -6.042969 L 2.953125 -6.042969 C 3.4375 -5.789062 3.652344 -5.574219 3.59375 -5.398438 C 3.535156 -5.226562 3.476562 -5.121094 3.421875 -5.085938 C 3.363281 -5.050781 3.308594 -5.035156 3.265625 -5.035156 C 3.195312 -5.035156 3.148438 -5.074219 3.125 -5.15625 C 3.101562 -5.238281 3.078125 -5.359375 3.054688 -5.519531 C 3.007812 -5.660156 2.894531 -5.832031 2.707031 -6.042969 L 2.117188 -6.042969 C 1.886719 -5.695312 1.667969 -5.40625 1.457031 -5.175781 C 1.25 -4.941406 0.984375 -4.710938 0.660156 -4.480469 L 0.589844 -4.582031 C 0.796875 -4.792969 1.042969 -5.09375 1.320312 -5.488281 C 1.597656 -5.878906 1.886719 -6.492188 2.1875 -7.328125 M 5.554688 -7.292969 L 6.179688 -6.875 C 6.066406 -6.851562 5.949219 -6.769531 5.832031 -6.632812 C 5.71875 -6.492188 5.613281 -6.355469 5.519531 -6.214844 L 7.394531 -6.214844 L 7.8125 -6.597656 L 8.332031 -6.007812 L 6.492188 -6.007812 C 7.070312 -5.820312 7.363281 -5.644531 7.363281 -5.46875 C 7.363281 -5.296875 7.320312 -5.175781 7.238281 -5.105469 C 7.160156 -5.035156 7.105469 -5 7.082031 -5 C 7.039062 -5 6.984375 -5.050781 6.925781 -5.15625 C 6.871094 -5.261719 6.804688 -5.375 6.738281 -5.503906 C 6.667969 -5.632812 6.503906 -5.800781 6.25 -6.007812 L 5.417969 -6.007812 C 5.253906 -5.84375 5.105469 -5.683594 4.964844 -5.519531 C 4.804688 -5.335938 4.640625 -5.175781 4.480469 -5.035156 L 4.375 -5.105469 C 4.652344 -5.453125 4.914062 -5.863281 5.15625 -6.335938 C 5.398438 -6.8125 5.53125 -7.128906 5.554688 -7.292969 Z "/>
</g>
<g id="glyph-0-4">
<path d="M 0.519531 -1.734375 L 5.207031 -1.734375 L 5.660156 -2.1875 L 6.320312 -1.527344 L 1.632812 -1.527344 C 1.355469 -1.527344 1.089844 -1.492188 0.832031 -1.421875 L 0.519531 -1.734375 M 2.359375 -3.609375 C 2.453125 -5.023438 2.507812 -5.878906 2.515625 -6.179688 C 2.527344 -6.480469 2.535156 -6.828125 2.535156 -7.222656 L 3.332031 -6.839844 L 3.054688 -6.632812 L 2.984375 -5.347656 L 7.050781 -5.347656 L 7.5 -5.800781 L 8.160156 -5.140625 L 2.984375 -5.140625 L 2.882812 -3.507812 L 6.980469 -3.507812 L 7.257812 -3.921875 L 7.882812 -3.472656 L 7.570312 -3.195312 C 7.523438 -2.339844 7.453125 -1.589844 7.363281 -0.953125 C 7.269531 -0.316406 7.101562 0.109375 6.859375 0.328125 C 6.613281 0.550781 6.296875 0.707031 5.902344 0.796875 C 5.925781 0.496094 5.542969 0.230469 4.757812 0 L 4.792969 -0.171875 C 5.300781 -0.0585938 5.742188 0 6.113281 0 C 6.480469 0 6.726562 -0.339844 6.839844 -1.023438 C 6.957031 -1.707031 7.027344 -2.464844 7.050781 -3.296875 L 2.917969 -3.296875 L 2.640625 -2.953125 L 2.082031 -3.367188 Z "/>
</g>
<g id="glyph-0-5">
<path d="M 5.902344 -6.769531 L 5.554688 -6.492188 L 5.554688 -4.410156 L 7.222656 -4.410156 L 7.742188 -4.929688 L 8.402344 -4.203125 L 5.9375 -4.203125 C 6.355469 -1.910156 7.210938 -0.464844 8.507812 0.140625 L 8.507812 0.277344 C 8.136719 0.253906 7.859375 0.382812 7.675781 0.660156 C 6.585938 -0.453125 5.949219 -2.070312 5.765625 -4.203125 L 5.554688 -4.203125 C 5.441406 -1.746094 4.582031 -0.046875 2.984375 0.902344 L 2.917969 0.796875 C 4.234375 -0.335938 4.953125 -2.003906 5.070312 -4.203125 L 4.234375 -4.203125 C 3.933594 -4.203125 3.65625 -4.167969 3.402344 -4.097656 L 3.089844 -4.410156 L 5.070312 -4.410156 C 5.070312 -5.707031 5.058594 -6.621094 5.035156 -7.152344 L 5.902344 -6.769531 M 6.390625 -6.703125 C 6.945312 -6.46875 7.304688 -6.289062 7.464844 -6.164062 C 7.628906 -6.035156 7.707031 -5.890625 7.707031 -5.730469 C 7.707031 -5.613281 7.675781 -5.480469 7.605469 -5.332031 C 7.535156 -5.179688 7.488281 -5.105469 7.464844 -5.105469 C 7.394531 -5.105469 7.316406 -5.207031 7.222656 -5.417969 C 7.058594 -5.742188 6.757812 -6.132812 6.320312 -6.597656 L 6.390625 -6.703125 M 2.394531 0.832031 C 2.417969 0.300781 2.429688 -0.972656 2.429688 -2.984375 C 1.527344 -2.058594 0.984375 -1.421875 0.796875 -1.078125 L 0.347656 -1.703125 C 0.71875 -1.839844 1.410156 -2.351562 2.429688 -3.230469 C 2.429688 -5.566406 2.417969 -6.886719 2.394531 -7.1875 L 3.265625 -6.804688 L 2.917969 -6.5625 L 2.917969 -1.144531 C 2.917969 -0.40625 2.929688 0.160156 2.953125 0.554688 L 2.394531 0.832031 M 0.625 -5.625 L 0.695312 -5.730469 C 1.320312 -5.265625 1.679688 -4.953125 1.769531 -4.792969 C 1.863281 -4.628906 1.910156 -4.503906 1.910156 -4.410156 C 1.910156 -4.292969 1.859375 -4.160156 1.753906 -4.011719 C 1.648438 -3.859375 1.574219 -3.785156 1.527344 -3.785156 C 1.457031 -3.785156 1.390625 -3.921875 1.320312 -4.203125 C 1.203125 -4.617188 0.972656 -5.09375 0.625 -5.625 Z "/>
</g>
<g id="glyph-0-6">
<path d="M 3.957031 -7.257812 L 4.863281 -6.839844 L 4.515625 -6.667969 C 4.46875 -6.367188 4.410156 -6.007812 4.339844 -5.589844 L 7.015625 -5.589844 L 7.535156 -6.113281 L 8.265625 -5.382812 L 4.652344 -5.382812 C 5.140625 -4.527344 5.742188 -3.914062 6.457031 -3.542969 C 7.175781 -3.171875 7.835938 -2.964844 8.4375 -2.917969 L 8.4375 -2.777344 C 8 -2.707031 7.753906 -2.558594 7.707031 -2.328125 C 6.757812 -2.671875 6.035156 -3.132812 5.539062 -3.699219 C 5.039062 -4.265625 4.6875 -4.828125 4.480469 -5.382812 L 4.304688 -5.382812 C 4.074219 -4.6875 3.796875 -4.132812 3.472656 -3.714844 C 3.890625 -3.554688 4.230469 -3.390625 4.496094 -3.230469 C 4.761719 -3.066406 4.894531 -2.898438 4.894531 -2.726562 C 4.894531 -2.550781 4.867188 -2.429688 4.808594 -2.359375 C 4.75 -2.292969 4.710938 -2.257812 4.6875 -2.257812 C 4.59375 -2.257812 4.480469 -2.371094 4.339844 -2.605469 C 4.132812 -2.929688 3.808594 -3.253906 3.367188 -3.578125 C 2.652344 -2.929688 1.667969 -2.453125 0.417969 -2.152344 L 0.347656 -2.292969 C 1.25 -2.546875 1.992188 -2.921875 2.570312 -3.421875 C 3.148438 -3.917969 3.554688 -4.570312 3.785156 -5.382812 L 1.703125 -5.382812 C 1.402344 -5.382812 1.121094 -5.347656 0.867188 -5.277344 L 0.554688 -5.589844 L 3.820312 -5.589844 C 3.914062 -6.261719 3.957031 -6.816406 3.957031 -7.257812 M 1.839844 -1.734375 C 1.839844 -1.320312 1.800781 -0.953125 1.71875 -0.640625 C 1.636719 -0.328125 1.535156 -0.144531 1.40625 -0.0859375 C 1.277344 -0.0273438 1.167969 0 1.078125 0 C 0.960938 0 0.863281 -0.015625 0.78125 -0.0507812 C 0.699219 -0.0859375 0.660156 -0.128906 0.660156 -0.171875 C 0.660156 -0.242188 0.753906 -0.359375 0.9375 -0.519531 C 1.214844 -0.730469 1.46875 -1.144531 1.703125 -1.769531 L 1.839844 -1.734375 M 3.609375 -2.222656 L 3.679688 -2.328125 C 4.121094 -2.140625 4.449219 -1.972656 4.671875 -1.824219 C 4.890625 -1.671875 4.996094 -1.515625 4.984375 -1.355469 C 4.972656 -1.191406 4.925781 -1.066406 4.84375 -0.972656 C 4.761719 -0.878906 4.710938 -0.832031 4.6875 -0.832031 C 4.59375 -0.832031 4.515625 -0.9375 4.445312 -1.144531 C 4.328125 -1.421875 4.050781 -1.78125 3.609375 -2.222656 M 6.425781 -1.804688 L 6.527344 -1.875 C 7.082031 -1.574219 7.464844 -1.324219 7.675781 -1.128906 C 7.882812 -0.933594 7.96875 -0.742188 7.933594 -0.554688 C 7.898438 -0.371094 7.84375 -0.242188 7.761719 -0.171875 C 7.679688 -0.105469 7.628906 -0.0703125 7.605469 -0.0703125 C 7.511719 -0.0703125 7.417969 -0.207031 7.328125 -0.484375 C 7.1875 -0.855469 6.886719 -1.296875 6.425781 -1.804688 M 2.640625 -0.0703125 C 2.640625 -1.019531 2.628906 -1.746094 2.605469 -2.257812 L 3.402344 -1.839844 L 3.125 -1.597656 L 3.125 -0.242188 C 3.078125 0.0585938 3.21875 0.195312 3.542969 0.171875 L 5.382812 0.171875 C 5.660156 0.171875 5.820312 0.0585938 5.867188 -0.171875 C 5.914062 -0.40625 5.9375 -0.765625 5.9375 -1.25 L 6.113281 -1.25 C 6.132812 -0.832031 6.167969 -0.507812 6.214844 -0.277344 C 6.261719 -0.046875 6.402344 0.09375 6.632812 0.140625 C 6.445312 0.464844 6.121094 0.613281 5.660156 0.589844 L 3.578125 0.589844 C 2.929688 0.636719 2.617188 0.417969 2.640625 -0.0703125 Z "/>
</g>
<g id="glyph-0-7">
<path d="M 2.015625 -7.222656 L 2.671875 -6.738281 C 2.511719 -6.738281 2.269531 -6.503906 1.945312 -6.042969 C 1.621094 -5.578125 1.191406 -5.105469 0.660156 -4.617188 L 0.554688 -4.6875 C 0.902344 -5.128906 1.203125 -5.578125 1.457031 -6.042969 C 1.714844 -6.503906 1.898438 -6.898438 2.015625 -7.222656 M 5.695312 -6.320312 L 7.363281 -6.320312 L 7.777344 -6.738281 L 8.300781 -6.113281 L 6.667969 -6.113281 C 6.480469 -6.113281 6.261719 -6.078125 6.007812 -6.007812 L 5.695312 -6.320312 M 5.730469 -0.0703125 C 6.214844 -0.0234375 6.539062 0 6.703125 0 C 6.863281 0 6.945312 -0.105469 6.945312 -0.3125 L 6.945312 -4.234375 L 6.667969 -4.234375 C 6.367188 -4.234375 6.089844 -4.203125 5.832031 -4.132812 L 5.519531 -4.445312 L 7.535156 -4.445312 L 7.988281 -4.894531 L 8.542969 -4.234375 L 7.429688 -4.234375 L 7.429688 -0.0351562 C 7.453125 0.359375 7.199219 0.648438 6.667969 0.832031 C 6.644531 0.484375 6.332031 0.242188 5.730469 0.105469 L 5.730469 -0.0703125 M 4.269531 -0.347656 L 5.730469 -1.25 L 5.832031 -1.144531 C 4.839844 -0.335938 4.257812 0.242188 4.097656 0.589844 L 3.644531 0.0351562 C 3.761719 -0.0585938 3.820312 -0.167969 3.820312 -0.296875 C 3.820312 -0.421875 3.820312 -1.097656 3.820312 -2.328125 L 3.542969 -2.328125 C 3.242188 -2.328125 2.964844 -2.292969 2.707031 -2.222656 L 2.394531 -2.535156 L 3.820312 -2.535156 L 3.820312 -3.820312 L 3.089844 -3.820312 C 2.953125 -3.609375 2.742188 -3.34375 2.464844 -3.019531 L 2.359375 -3.089844 C 2.730469 -3.714844 3.050781 -4.425781 3.316406 -5.226562 C 3.582031 -6.023438 3.738281 -6.621094 3.785156 -7.015625 L 4.550781 -6.5625 L 4.304688 -6.425781 C 4.191406 -6.191406 4.050781 -5.878906 3.890625 -5.488281 L 4.828125 -5.488281 L 5.207031 -5.867188 L 5.800781 -5.277344 L 3.820312 -5.277344 C 3.632812 -4.839844 3.425781 -4.421875 3.195312 -4.027344 L 4.652344 -4.027344 L 5.070312 -4.445312 L 5.625 -3.820312 L 4.269531 -3.820312 L 4.269531 -2.535156 L 5.035156 -2.535156 L 5.488281 -2.984375 L 6.078125 -2.328125 L 4.269531 -2.328125 L 4.269531 -0.347656 M 2.394531 -5.417969 L 2.984375 -4.929688 C 2.847656 -4.90625 2.707031 -4.804688 2.570312 -4.617188 C 2.40625 -4.410156 2.1875 -4.144531 1.910156 -3.820312 L 2.292969 -3.542969 L 2.015625 -3.296875 L 2.015625 0.589844 L 1.527344 0.867188 C 1.550781 0.429688 1.5625 -1.007812 1.5625 -3.4375 C 1.285156 -3.136719 0.914062 -2.789062 0.453125 -2.394531 L 0.382812 -2.5 C 0.867188 -3.03125 1.300781 -3.589844 1.683594 -4.167969 C 2.066406 -4.746094 2.304688 -5.164062 2.394531 -5.417969 Z "/>
</g>
<g id="glyph-0-8">
<path d="M 3.472656 -5.9375 L 7.152344 -5.9375 L 7.535156 -6.320312 L 8.125 -5.730469 L 4.550781 -5.730469 C 4.246094 -5.730469 3.992188 -5.695312 3.785156 -5.625 L 3.472656 -5.9375 M 4.304688 -5.589844 C 4.816406 -5.242188 5.097656 -5.011719 5.15625 -4.894531 C 5.214844 -4.78125 5.242188 -4.699219 5.242188 -4.652344 C 5.242188 -4.558594 5.195312 -4.460938 5.105469 -4.359375 C 5.011719 -4.253906 4.941406 -4.203125 4.894531 -4.203125 C 4.828125 -4.203125 4.769531 -4.304688 4.722656 -4.515625 C 4.652344 -4.792969 4.480469 -5.128906 4.203125 -5.519531 L 4.304688 -5.589844 M 5.519531 -3.402344 L 5.035156 -2.5 L 7.535156 -2.5 L 7.953125 -2.917969 L 8.542969 -2.292969 L 7.082031 -2.292969 C 6.738281 -1.550781 6.445312 -1.042969 6.214844 -0.765625 C 6.679688 -0.601562 7.070312 -0.433594 7.394531 -0.261719 C 7.71875 -0.0859375 7.910156 0.0625 7.96875 0.191406 C 8.027344 0.316406 8.054688 0.429688 8.054688 0.519531 C 8.054688 0.589844 8.039062 0.652344 8.003906 0.710938 C 7.96875 0.769531 7.929688 0.796875 7.882812 0.796875 C 7.8125 0.796875 7.707031 0.730469 7.570312 0.589844 C 7.363281 0.359375 7.148438 0.171875 6.925781 0.0351562 C 6.707031 -0.105469 6.390625 -0.265625 5.972656 -0.453125 C 5.601562 -0.128906 5.15625 0.152344 4.636719 0.382812 C 4.113281 0.613281 3.402344 0.765625 2.5 0.832031 L 2.5 0.695312 C 2.984375 0.625 3.488281 0.492188 4.011719 0.296875 C 4.53125 0.0976562 5.035156 -0.207031 5.519531 -0.625 C 4.988281 -0.832031 4.410156 -0.996094 3.785156 -1.109375 C 4.015625 -1.503906 4.246094 -1.898438 4.480469 -2.292969 L 3.230469 -2.292969 L 2.917969 -2.222656 L 2.640625 -2.5 L 4.550781 -2.5 C 4.78125 -3.03125 4.964844 -3.507812 5.105469 -3.921875 L 3.578125 -3.921875 L 3.265625 -3.855469 L 2.984375 -4.132812 L 5.902344 -4.132812 C 5.996094 -4.339844 6.09375 -4.570312 6.199219 -4.828125 C 6.300781 -5.082031 6.402344 -5.371094 6.492188 -5.695312 L 7.1875 -5.207031 L 6.875 -5.140625 C 6.550781 -4.675781 6.296875 -4.339844 6.113281 -4.132812 L 7.394531 -4.132812 L 7.8125 -4.550781 L 8.4375 -3.921875 L 5.175781 -3.921875 L 5.800781 -3.542969 L 5.519531 -3.402344 M 4.304688 -1.214844 C 4.816406 -1.121094 5.300781 -1.019531 5.765625 -0.902344 C 6.066406 -1.296875 6.320312 -1.757812 6.527344 -2.292969 L 4.964844 -2.292969 C 4.757812 -1.945312 4.539062 -1.585938 4.304688 -1.214844 M 5 -7.257812 C 5.417969 -7.027344 5.683594 -6.851562 5.800781 -6.738281 C 5.914062 -6.621094 5.972656 -6.527344 5.972656 -6.457031 C 5.972656 -6.367188 5.925781 -6.261719 5.832031 -6.144531 C 5.742188 -6.03125 5.683594 -5.972656 5.660156 -5.972656 C 5.589844 -5.972656 5.53125 -6.066406 5.488281 -6.25 C 5.394531 -6.527344 5.195312 -6.839844 4.894531 -7.1875 L 5 -7.257812 M 2.292969 -3.332031 L 3.265625 -3.75 L 3.332031 -3.644531 L 2.292969 -3.019531 L 2.292969 -0.0703125 C 2.292969 0.300781 2.058594 0.589844 1.597656 0.796875 C 1.644531 0.542969 1.355469 0.289062 0.730469 0.0351562 L 0.730469 -0.105469 C 1.238281 -0.0117188 1.550781 0.0273438 1.667969 0.015625 C 1.78125 0.00390625 1.839844 -0.09375 1.839844 -0.277344 L 1.839844 -2.777344 C 1.214844 -2.40625 0.855469 -2.152344 0.765625 -2.015625 L 0.3125 -2.605469 C 0.730469 -2.71875 1.238281 -2.90625 1.839844 -3.160156 L 1.839844 -5.105469 L 1.109375 -5.105469 L 0.695312 -5.035156 L 0.417969 -5.3125 L 1.839844 -5.3125 C 1.839844 -6.261719 1.828125 -6.933594 1.804688 -7.328125 L 2.570312 -6.945312 L 2.292969 -6.703125 L 2.292969 -5.3125 L 2.742188 -5.3125 L 3.125 -5.695312 L 3.714844 -5.105469 L 2.292969 -5.105469 Z "/>
</g>
</g>
</defs>
<g fill="rgb(100%, 100%, 100%)" fill-opacity="1">
<use xlink:href="#glyph-0-0" x="30" y="27.638672"/>
<use xlink:href="#glyph-0-1" x="39" y="27.638672"/>
<use xlink:href="#glyph-0-2" x="48" y="27.638672"/>
<use xlink:href="#glyph-0-3" x="57" y="27.638672"/>
<use xlink:href="#glyph-0-4" x="66" y="27.638672"/>
<use xlink:href="#glyph-0-5" x="75" y="27.638672"/>
<use xlink:href="#glyph-0-6" x="84" y="27.638672"/>
<use xlink:href="#glyph-0-7" x="93" y="27.638672"/>
<use xlink:href="#glyph-0-8" x="102" y="27.638672"/>
</g>
</svg>
