<?xml version="1.0" encoding="UTF-8"?>
<svg xmlns="http://www.w3.org/2000/svg" xmlns:xlink="http://www.w3.org/1999/xlink" width="854" height="480" viewBox="0 0 854 480">
<defs>
<g>
<g id="glyph-0-0">
<path d="M 1.613281 -2.839844 L 1.613281 -2.292969 L 2.839844 -2.292969 L 2.839844 -2.839844 L 1.613281 -2.839844 M 1.613281 -2.136719 L 1.613281 -1.535156 L 2.839844 -1.535156 L 2.839844 -2.136719 L 1.613281 -2.136719 M 1.613281 -1.378906 L 1.613281 -0.546875 L 2.839844 -0.753906 L 2.839844 -1.378906 L 1.613281 -1.378906 M 3.957031 -2.214844 C 4.027344 -1.96875 4.125 -1.726562 4.246094 -1.484375 C 4.367188 -1.242188 4.496094 -1.042969 4.636719 -0.886719 C 4.773438 -1.09375 4.898438 -1.3125 5.011719 -1.535156 C 5.125 -1.761719 5.226562 -1.988281 5.3125 -2.214844 L 3.957031 -2.214844 M 0.339844 -2.996094 L 5.3125 -2.996094 L 5.730469 -3.410156 L 6.300781 -2.839844 L 3.175781 -2.839844 L 3.175781 -0.832031 L 3.933594 -0.988281 L 3.957031 -0.886719 L 3.175781 -0.652344 L 3.175781 0.46875 L 2.839844 0.675781 L 2.839844 -0.546875 C 1.867188 -0.304688 1.277344 -0.144531 1.066406 -0.0664062 C 0.859375 0.0117188 0.738281 0.0859375 0.703125 0.15625 L 0.390625 -0.339844 C 0.632812 -0.375 0.921875 -0.417969 1.25 -0.46875 L 1.25 -2.839844 L 0.886719 -2.839844 L 0.546875 -2.785156 L 0.339844 -2.996094 M 3.28125 -2.371094 L 5.285156 -2.371094 L 5.496094 -2.628906 L 5.910156 -2.265625 L 5.675781 -2.136719 C 5.417969 -1.546875 5.140625 -1.050781 4.84375 -0.652344 C 5.121094 -0.390625 5.363281 -0.207031 5.574219 -0.105469 C 5.78125 0 6.03125 0.0625 6.328125 0.078125 L 6.328125 0.183594 C 6.050781 0.21875 5.875 0.320312 5.808594 0.496094 C 5.617188 0.40625 5.425781 0.289062 5.234375 0.144531 C 5.042969 -0.00390625 4.84375 -0.191406 4.636719 -0.417969 C 4.289062 -0.0703125 3.828125 0.269531 3.253906 0.597656 L 3.175781 0.519531 C 3.679688 0.171875 4.105469 -0.207031 4.453125 -0.625 C 4.296875 -0.867188 4.171875 -1.117188 4.074219 -1.367188 C 3.980469 -1.617188 3.898438 -1.902344 3.828125 -2.214844 L 3.488281 -2.160156 L 3.28125 -2.371094 M 1.980469 -5 L 1.980469 -4.425781 L 4.792969 -4.425781 L 4.792969 -5 L 1.980469 -5 M 1.980469 -4.269531 L 1.980469 -3.699219 L 4.792969 -3.699219 L 4.792969 -4.269531 L 1.980469 -4.269531 M 1.589844 -5.363281 L 1.980469 -5.15625 L 4.738281 -5.15625 L 4.921875 -5.441406 L 5.363281 -5.128906 L 5.15625 -4.949219 C 5.15625 -4.097656 5.164062 -3.585938 5.183594 -3.410156 L 4.792969 -3.230469 L 4.792969 -3.542969 L 1.980469 -3.542969 L 1.980469 -3.332031 L 1.589844 -3.203125 C 1.605469 -3.53125 1.613281 -3.894531 1.613281 -4.285156 C 1.613281 -4.675781 1.605469 -5.035156 1.589844 -5.363281 Z "/>
</g>
<g id="glyph-0-1">
<path d="M 5.417969 -4.167969 C 5.191406 -3.699219 4.90625 -3.230469 4.558594 -2.761719 C 5.128906 -2.257812 5.738281 -1.988281 6.378906 -1.953125 L 6.378906 -1.847656 C 6.121094 -1.832031 5.945312 -1.71875 5.859375 -1.511719 C 5.269531 -1.769531 4.757812 -2.117188 4.324219 -2.550781 C 3.714844 -2.015625 3.0625 -1.625 2.371094 -1.378906 L 2.316406 -1.457031 C 2.996094 -1.804688 3.59375 -2.238281 4.113281 -2.761719 C 3.855469 -3.160156 3.65625 -3.59375 3.515625 -4.0625 C 3.238281 -3.59375 2.941406 -3.195312 2.628906 -2.863281 L 2.550781 -2.917969 C 2.863281 -3.351562 3.109375 -3.777344 3.28125 -4.191406 C 3.453125 -4.609375 3.585938 -5.015625 3.671875 -5.417969 L 4.246094 -5.105469 L 4.035156 -5 C 3.898438 -4.757812 3.792969 -4.566406 3.722656 -4.425781 L 5.027344 -4.425781 L 5.234375 -4.6875 L 5.652344 -4.324219 L 5.417969 -4.167969 M 3.671875 -1.875 C 4.332031 -1.789062 4.699219 -1.6875 4.777344 -1.574219 C 4.855469 -1.460938 4.894531 -1.355469 4.894531 -1.25 C 4.894531 -1.179688 4.886719 -1.117188 4.871094 -1.054688 C 4.851562 -0.992188 4.835938 -0.964844 4.816406 -0.964844 C 4.765625 -0.964844 4.695312 -1.015625 4.609375 -1.121094 C 4.453125 -1.277344 4.132812 -1.5 3.644531 -1.796875 L 3.671875 -1.875 M 3.230469 -0.78125 C 4.097656 -0.589844 4.636719 -0.445312 4.84375 -0.351562 C 5.050781 -0.257812 5.167969 -0.160156 5.195312 -0.0664062 C 5.222656 0.03125 5.234375 0.113281 5.234375 0.183594 C 5.234375 0.25 5.230469 0.3125 5.222656 0.363281 C 5.210938 0.417969 5.199219 0.441406 5.183594 0.441406 C 5.113281 0.441406 5 0.363281 4.84375 0.207031 C 4.617188 -0.015625 4.070312 -0.320312 3.203125 -0.703125 L 3.230469 -0.78125 M 3.644531 -4.269531 L 3.59375 -4.167969 C 3.800781 -3.664062 4.046875 -3.265625 4.324219 -2.96875 C 4.652344 -3.402344 4.894531 -3.835938 5.050781 -4.269531 L 3.644531 -4.269531 M 0.78125 -3.28125 L 1.953125 -3.332031 C 2.109375 -3.59375 2.265625 -3.90625 2.421875 -4.269531 L 2.863281 -3.933594 C 2.671875 -3.792969 2.464844 -3.558594 2.238281 -3.230469 C 2.015625 -2.898438 1.613281 -2.40625 1.042969 -1.746094 C 1.457031 -1.796875 2.015625 -1.882812 2.707031 -2.003906 L 2.734375 -1.925781 C 2.421875 -1.839844 2.09375 -1.742188 1.746094 -1.628906 C 1.398438 -1.515625 1.101562 -1.363281 0.859375 -1.171875 L 0.546875 -1.71875 C 0.6875 -1.734375 0.863281 -1.871094 1.082031 -2.121094 C 1.296875 -2.375 1.5625 -2.726562 1.875 -3.175781 C 1.597656 -3.140625 1.363281 -3.097656 1.171875 -3.046875 C 0.980469 -2.996094 0.816406 -2.917969 0.675781 -2.8125 L 0.363281 -3.359375 C 0.519531 -3.359375 0.738281 -3.570312 1.015625 -3.996094 C 1.292969 -4.421875 1.519531 -4.894531 1.691406 -5.417969 L 2.1875 -5.078125 C 1.980469 -4.921875 1.789062 -4.714844 1.613281 -4.453125 C 1.441406 -4.191406 1.164062 -3.800781 0.78125 -3.28125 M 0.753906 0.285156 L 0.417969 -0.207031 C 0.832031 -0.3125 1.167969 -0.402344 1.417969 -0.480469 C 1.671875 -0.558594 2.109375 -0.703125 2.734375 -0.910156 L 2.761719 -0.832031 C 2.484375 -0.695312 2.101562 -0.511719 1.613281 -0.285156 C 1.109375 -0.0429688 0.824219 0.148438 0.753906 0.285156 Z "/>
</g>
<g id="glyph-0-2">
<path d="M 3.878906 -0.0273438 C 4.402344 0.078125 4.695312 0.113281 4.765625 0.078125 C 4.835938 0.0429688 4.871094 -0.0351562 4.871094 -0.15625 L 4.871094 -1.457031 L 2.941406 -1.457031 C 2.71875 -1.457031 2.507812 -1.433594 2.316406 -1.378906 L 2.082031 -1.613281 L 4.871094 -1.613281 L 4.871094 -2.316406 L 3.253906 -2.316406 C 3.03125 -2.316406 2.820312 -2.292969 2.628906 -2.238281 L 2.394531 -2.472656 L 5.417969 -2.472656 L 5.703125 -2.761719 L 6.144531 -2.316406 L 5.234375 -2.316406 L 5.234375 -1.613281 L 5.625 -1.613281 L 5.9375 -1.925781 L 6.40625 -1.457031 L 5.234375 -1.457031 L 5.234375 -0.0273438 C 5.234375 0.285156 5.050781 0.511719 4.6875 0.652344 C 4.671875 0.476562 4.402344 0.285156 3.878906 0.078125 L 3.878906 -0.0273438 M 2.96875 -1.355469 C 3.367188 -1.109375 3.609375 -0.925781 3.699219 -0.792969 C 3.785156 -0.664062 3.8125 -0.539062 3.777344 -0.417969 C 3.742188 -0.296875 3.679688 -0.222656 3.59375 -0.195312 C 3.507812 -0.167969 3.4375 -0.269531 3.386719 -0.496094 C 3.316406 -0.71875 3.160156 -0.980469 2.917969 -1.277344 L 2.96875 -1.355469 M 1.355469 0.675781 C 1.371094 0.242188 1.378906 -0.15625 1.378906 -0.519531 L 1.378906 -2.371094 C 1.085938 -2.074219 0.738281 -1.796875 0.339844 -1.535156 L 0.285156 -1.640625 C 0.5625 -1.882812 0.855469 -2.1875 1.160156 -2.550781 C 1.460938 -2.917969 1.691406 -3.230469 1.847656 -3.488281 C 2.003906 -3.75 2.117188 -3.96875 2.1875 -4.140625 L 2.683594 -3.75 C 2.527344 -3.628906 2.394531 -3.507812 2.292969 -3.386719 C 2.1875 -3.265625 2.003906 -3.046875 1.746094 -2.734375 L 1.746094 0.46875 L 1.355469 0.675781 M 1.953125 -5.441406 L 2.421875 -5.050781 C 2.25 -4.949219 2.082031 -4.816406 1.925781 -4.660156 C 1.753906 -4.503906 1.527344 -4.304688 1.25 -4.0625 C 0.972656 -3.820312 0.695312 -3.621094 0.417969 -3.464844 L 0.363281 -3.542969 C 0.765625 -3.890625 1.089844 -4.21875 1.339844 -4.53125 C 1.59375 -4.84375 1.796875 -5.148438 1.953125 -5.441406 M 2.890625 -2.707031 C 2.90625 -3.109375 2.917969 -3.53125 2.917969 -3.984375 C 2.917969 -4.4375 2.90625 -4.835938 2.890625 -5.183594 L 3.253906 -5 L 5.15625 -5 L 5.390625 -5.234375 L 5.753906 -4.871094 L 5.546875 -4.714844 C 5.546875 -3.84375 5.554688 -3.246094 5.574219 -2.917969 L 5.183594 -2.734375 L 5.183594 -3.019531 L 3.253906 -3.019531 L 3.253906 -2.863281 L 2.890625 -2.707031 M 3.253906 -4.84375 L 3.253906 -4.113281 L 5.183594 -4.113281 L 5.183594 -4.84375 L 3.253906 -4.84375 M 3.253906 -3.957031 L 3.253906 -3.175781 L 5.183594 -3.175781 L 5.183594 -3.957031 Z "/>
</g>
<g id="glyph-0-3">
<path d="M 2.058594 -1.796875 L 2.058594 -3.019531 C 1.433594 -2.933594 1.058594 -2.839844 0.9375 -2.734375 L 0.703125 -3.203125 C 0.945312 -3.21875 1.199219 -3.394531 1.457031 -3.722656 C 1.71875 -4.054688 1.925781 -4.390625 2.082031 -4.738281 L 1.40625 -4.738281 C 1.179688 -4.738281 0.972656 -4.714844 0.78125 -4.660156 L 0.546875 -4.894531 L 3.175781 -4.894531 L 3.515625 -5.234375 L 4.011719 -4.738281 L 2.1875 -4.738281 L 2.65625 -4.453125 C 2.449219 -4.382812 2.230469 -4.226562 2.003906 -3.984375 C 1.761719 -3.722656 1.492188 -3.464844 1.199219 -3.203125 L 3.28125 -3.253906 C 3.125 -3.5 2.925781 -3.75 2.683594 -4.011719 L 2.761719 -4.089844 C 3.488281 -3.585938 3.871094 -3.246094 3.90625 -3.074219 C 3.941406 -2.898438 3.914062 -2.769531 3.828125 -2.683594 C 3.742188 -2.59375 3.679688 -2.550781 3.644531 -2.550781 C 3.609375 -2.550781 3.585938 -2.585938 3.566406 -2.65625 C 3.515625 -2.777344 3.4375 -2.933594 3.332031 -3.125 C 2.953125 -3.089844 2.578125 -3.054688 2.214844 -3.019531 L 2.628906 -2.8125 L 2.421875 -2.628906 L 2.421875 -1.796875 L 3.125 -1.796875 L 3.4375 -2.109375 L 3.90625 -1.640625 L 2.421875 -1.640625 L 2.421875 -0.390625 L 3.90625 -0.675781 L 3.933594 -0.546875 C 1.953125 -0.0429688 0.886719 0.285156 0.730469 0.441406 L 0.441406 -0.078125 C 0.738281 -0.113281 1.277344 -0.191406 2.058594 -0.3125 L 2.058594 -1.640625 L 1.066406 -1.640625 L 0.753906 -1.589844 L 0.546875 -1.796875 L 2.058594 -1.796875 M 4.738281 -4.0625 L 4.738281 -1.640625 C 4.738281 -1.46875 4.75 -1.234375 4.765625 -0.9375 L 4.375 -0.78125 C 4.390625 -1.355469 4.402344 -2 4.402344 -2.722656 C 4.402344 -3.441406 4.390625 -4.054688 4.375 -4.558594 L 4.972656 -4.246094 L 4.738281 -4.0625 M 4.558594 0.078125 L 4.558594 -0.0507812 C 4.816406 -0.015625 5.0625 0 5.285156 0 C 5.40625 0 5.503906 -0.0117188 5.574219 -0.0390625 C 5.640625 -0.0664062 5.667969 -0.191406 5.652344 -0.417969 L 5.652344 -4.503906 C 5.652344 -4.765625 5.640625 -5.0625 5.625 -5.390625 L 6.199219 -5.128906 L 5.988281 -4.949219 L 5.988281 -0.183594 C 6.007812 0.25 5.816406 0.53125 5.417969 0.652344 C 5.382812 0.390625 5.09375 0.199219 4.558594 0.078125 Z "/>
</g>
<g id="glyph-0-4">
<path d="M 3.046875 -3.984375 L 5.363281 -3.984375 L 5.730469 -4.347656 L 6.222656 -3.828125 L 3.90625 -3.828125 C 3.679688 -3.828125 3.472656 -3.800781 3.28125 -3.75 L 3.046875 -3.984375 M 3.464844 -3.253906 L 3.566406 -3.28125 C 3.898438 -2.570312 4.097656 -2.101562 4.167969 -1.875 C 4.234375 -1.648438 4.269531 -1.457031 4.269531 -1.300781 C 4.269531 -1.234375 4.257812 -1.15625 4.230469 -1.066406 C 4.207031 -0.980469 4.15625 -0.914062 4.089844 -0.871094 C 4.019531 -0.828125 3.976562 -0.808594 3.957031 -0.808594 C 3.871094 -0.808594 3.820312 -0.980469 3.800781 -1.328125 C 3.785156 -1.726562 3.671875 -2.371094 3.464844 -3.253906 M 5.625 -2.917969 C 5.417969 -2.152344 5.121094 -1.214844 4.738281 -0.105469 L 5.519531 -0.105469 L 5.910156 -0.496094 L 6.433594 0.0507812 L 3.621094 0.0507812 C 3.394531 0.0507812 3.1875 0.078125 2.996094 0.128906 L 2.761719 -0.105469 L 4.558594 -0.105469 C 4.90625 -1.457031 5.105469 -2.578125 5.15625 -3.464844 L 5.859375 -3.097656 L 5.625 -2.917969 M 0.546875 -4.609375 C 0.859375 -4.367188 1.054688 -4.195312 1.132812 -4.101562 C 1.210938 -4.007812 1.25 -3.910156 1.25 -3.816406 C 1.25 -3.71875 1.21875 -3.632812 1.160156 -3.554688 C 1.097656 -3.476562 1.050781 -3.4375 1.015625 -3.4375 C 0.964844 -3.4375 0.910156 -3.53125 0.859375 -3.722656 C 0.789062 -4 0.660156 -4.28125 0.46875 -4.558594 L 0.546875 -4.609375 M 1.902344 -0.183594 C 1.902344 0.0429688 1.910156 0.261719 1.925781 0.46875 L 1.511719 0.652344 C 1.527344 0.285156 1.535156 -0.589844 1.535156 -1.980469 C 1.222656 -1.285156 0.816406 -0.730469 0.3125 -0.3125 L 0.261719 -0.390625 C 0.816406 -1.066406 1.222656 -1.902344 1.484375 -2.890625 L 1.171875 -2.890625 C 0.945312 -2.890625 0.738281 -2.863281 0.546875 -2.8125 L 0.3125 -3.046875 L 1.535156 -3.046875 L 1.535156 -4.816406 C 1.535156 -5.042969 1.527344 -5.242188 1.511719 -5.417969 L 2.136719 -5.15625 L 1.902344 -4.949219 L 1.902344 -3.046875 L 2.421875 -3.046875 L 2.761719 -3.359375 L 3.175781 -2.890625 L 1.902344 -2.890625 L 1.902344 -2.421875 C 2.25 -2.265625 2.488281 -2.136719 2.617188 -2.03125 C 2.746094 -1.925781 2.820312 -1.824219 2.839844 -1.71875 C 2.855469 -1.613281 2.839844 -1.515625 2.785156 -1.417969 C 2.734375 -1.324219 2.691406 -1.277344 2.65625 -1.277344 C 2.605469 -1.277344 2.542969 -1.363281 2.472656 -1.535156 C 2.351562 -1.796875 2.160156 -2.046875 1.902344 -2.292969 L 1.902344 -0.183594 M 3.984375 -5.46875 C 4.347656 -5.207031 4.574219 -5.011719 4.660156 -4.882812 C 4.75 -4.753906 4.78125 -4.632812 4.765625 -4.519531 C 4.75 -4.40625 4.699219 -4.3125 4.621094 -4.246094 C 4.542969 -4.175781 4.496094 -4.140625 4.480469 -4.140625 C 4.410156 -4.140625 4.367188 -4.246094 4.347656 -4.453125 C 4.296875 -4.714844 4.148438 -5.035156 3.90625 -5.417969 L 3.984375 -5.46875 M 3.125 -4.375 L 2.917969 -4.296875 C 2.65625 -3.933594 2.40625 -3.621094 2.160156 -3.359375 L 2.082031 -3.410156 C 2.34375 -3.8125 2.535156 -4.246094 2.65625 -4.714844 Z "/>
</g>
<g id="glyph-0-5">
<path d="M 1.121094 -4.972656 L 4.949219 -4.972656 L 5.285156 -5.285156 L 5.78125 -4.714844 C 5.574219 -4.714844 5.308594 -4.621094 4.988281 -4.441406 C 4.664062 -4.257812 4.210938 -3.957031 3.621094 -3.542969 L 3.855469 -3.386719 L 3.566406 -3.230469 L 3.566406 -2.734375 L 5.363281 -2.734375 L 5.78125 -3.152344 L 6.355469 -2.578125 L 3.566406 -2.578125 L 3.566406 -0.078125 C 3.566406 0.25 3.34375 0.496094 2.890625 0.652344 C 2.890625 0.390625 2.605469 0.183594 2.03125 0.0273438 L 2.03125 -0.105469 C 2.5 -0.0507812 2.8125 -0.0273438 2.96875 -0.0273438 C 3.125 -0.0273438 3.195312 -0.148438 3.175781 -0.390625 L 3.175781 -2.578125 L 1.144531 -2.578125 C 0.921875 -2.578125 0.710938 -2.550781 0.519531 -2.5 L 0.285156 -2.734375 L 3.175781 -2.734375 C 3.175781 -3.117188 3.167969 -3.488281 3.152344 -3.855469 L 3.515625 -3.621094 L 4.949219 -4.816406 L 1.980469 -4.816406 C 1.753906 -4.816406 1.546875 -4.792969 1.355469 -4.738281 Z "/>
</g>
<g id="glyph-0-6">
<path d="M 3.800781 -3.621094 C 3.835938 -4.503906 3.84375 -5.105469 3.828125 -5.417969 L 4.425781 -5.128906 L 4.246094 -4.894531 C 4.226562 -4.460938 4.210938 -4.035156 4.191406 -3.621094 L 5.496094 -3.621094 L 5.808594 -3.957031 L 6.277344 -3.464844 L 4.191406 -3.464844 C 4.15625 -3.132812 4.089844 -2.8125 3.984375 -2.5 C 4.347656 -2.328125 4.695312 -2.117188 5.027344 -1.875 C 5.355469 -1.632812 5.558594 -1.449219 5.636719 -1.328125 C 5.714844 -1.207031 5.753906 -1.09375 5.753906 -0.988281 C 5.753906 -0.921875 5.734375 -0.84375 5.691406 -0.753906 C 5.648438 -0.667969 5.609375 -0.625 5.574219 -0.625 C 5.519531 -0.625 5.453125 -0.710938 5.363281 -0.886719 C 5.242188 -1.128906 5.050781 -1.394531 4.792969 -1.679688 C 4.53125 -1.964844 4.253906 -2.203125 3.957031 -2.394531 C 3.628906 -1.597656 2.996094 -0.980469 2.058594 -0.546875 L 2.003906 -0.625 C 3.097656 -1.285156 3.699219 -2.230469 3.800781 -3.464844 L 2.863281 -3.464844 C 2.640625 -3.464844 2.429688 -3.4375 2.238281 -3.386719 L 2.003906 -3.621094 L 3.800781 -3.621094 M 0.988281 -5.285156 L 1.042969 -5.363281 C 1.335938 -5.207031 1.558594 -5.0625 1.707031 -4.921875 C 1.851562 -4.78125 1.921875 -4.648438 1.914062 -4.519531 C 1.90625 -4.386719 1.871094 -4.300781 1.808594 -4.257812 C 1.75 -4.214844 1.703125 -4.191406 1.667969 -4.191406 C 1.578125 -4.191406 1.511719 -4.296875 1.457031 -4.503906 C 1.371094 -4.78125 1.214844 -5.042969 0.988281 -5.285156 M 1.640625 -0.859375 C 1.78125 -0.6875 1.988281 -0.511719 2.265625 -0.339844 C 2.542969 -0.164062 2.960938 -0.0703125 3.515625 -0.0507812 C 4.070312 -0.0351562 4.578125 -0.03125 5.039062 -0.0390625 C 5.5 -0.046875 5.953125 -0.0703125 6.40625 -0.105469 L 6.40625 0 C 6.09375 0.0703125 5.910156 0.207031 5.859375 0.417969 C 5.0625 0.398438 4.40625 0.382812 3.894531 0.363281 C 3.382812 0.347656 2.960938 0.273438 2.628906 0.144531 C 2.300781 0.0117188 2.039062 -0.164062 1.847656 -0.390625 C 1.65625 -0.617188 1.535156 -0.742188 1.484375 -0.769531 C 1.433594 -0.792969 1.324219 -0.714844 1.160156 -0.535156 C 0.992188 -0.351562 0.824219 -0.113281 0.652344 0.183594 L 0.3125 -0.15625 C 0.609375 -0.382812 0.929688 -0.625 1.277344 -0.886719 L 1.277344 -2.996094 L 1.09375 -2.996094 C 0.867188 -2.996094 0.660156 -2.96875 0.46875 -2.917969 L 0.234375 -3.152344 L 1.222656 -3.152344 L 1.511719 -3.4375 L 1.902344 -3.046875 L 1.640625 -2.890625 Z "/>
</g>
<g id="glyph-0-7">
</g>
<g id="glyph-0-8">
<path d="M 4.714844 -1.925781 L 4.714844 -0.3125 L 5.652344 -0.3125 L 5.652344 -1.925781 L 4.714844 -1.925781 M 5.964844 -0.3125 C 5.964844 -0.105469 5.972656 0.09375 5.988281 0.285156 L 5.652344 0.441406 L 5.652344 -0.15625 L 3.488281 -0.15625 L 3.488281 0.339844 L 3.152344 0.46875 C 3.167969 -0.0859375 3.175781 -0.84375 3.175781 -1.796875 C 3.175781 -2.75 3.167969 -3.480469 3.152344 -3.984375 L 3.488281 -3.777344 L 4.402344 -3.777344 C 4.402344 -4.558594 4.390625 -5.105469 4.375 -5.417969 L 4.921875 -5.15625 L 4.714844 -4.972656 L 4.714844 -3.777344 L 5.625 -3.777344 L 5.78125 -4.011719 L 6.171875 -3.722656 L 5.964844 -3.566406 L 5.964844 -0.3125 M 3.488281 -3.621094 L 3.488281 -2.082031 L 4.402344 -2.082031 L 4.402344 -3.621094 L 3.488281 -3.621094 M 4.714844 -3.621094 L 4.714844 -2.082031 L 5.652344 -2.082031 L 5.652344 -3.621094 L 4.714844 -3.621094 M 3.488281 -1.925781 L 3.488281 -0.3125 L 4.402344 -0.3125 L 4.402344 -1.925781 L 3.488281 -1.925781 M 2.003906 -1.171875 C 2.003906 -0.339844 2.015625 0.226562 2.03125 0.519531 L 1.667969 0.703125 C 1.683594 0.0273438 1.691406 -0.5625 1.691406 -1.066406 C 1.171875 -0.875 0.84375 -0.746094 0.703125 -0.675781 L 0.546875 -0.496094 L 0.261719 -0.9375 C 0.730469 -1.023438 1.207031 -1.144531 1.691406 -1.300781 L 1.691406 -2.394531 L 0.9375 -2.394531 L 0.730469 -2.265625 L 0.46875 -2.605469 C 0.609375 -2.671875 0.726562 -2.839844 0.820312 -3.097656 C 0.914062 -3.359375 1.03125 -3.707031 1.171875 -4.140625 C 0.980469 -4.140625 0.789062 -4.113281 0.597656 -4.0625 L 0.363281 -4.296875 L 1.222656 -4.296875 C 1.292969 -4.558594 1.34375 -4.773438 1.378906 -4.949219 C 1.414062 -5.121094 1.441406 -5.296875 1.457031 -5.46875 L 1.980469 -5.15625 C 1.859375 -5.15625 1.71875 -4.878906 1.5625 -4.324219 L 2.292969 -4.324219 L 2.605469 -4.636719 L 3.046875 -4.167969 L 1.511719 -4.167969 L 0.9375 -2.550781 L 1.691406 -2.550781 C 1.691406 -3.039062 1.683594 -3.464844 1.667969 -3.828125 L 2.214844 -3.542969 L 2.003906 -3.386719 L 2.003906 -2.550781 L 2.34375 -2.550781 L 2.65625 -2.863281 L 3.046875 -2.394531 L 2.003906 -2.394531 L 2.003906 -1.378906 L 2.941406 -1.640625 L 2.96875 -1.5625 Z "/>
</g>
<g id="glyph-0-9">
<path d="M 4.6875 -3.75 C 4.6875 -4.425781 4.679688 -4.992188 4.660156 -5.441406 L 5.3125 -5.105469 L 5.050781 -4.921875 L 5.050781 -3.75 L 5.441406 -3.75 L 5.78125 -4.089844 L 6.277344 -3.59375 L 5.050781 -3.59375 L 5.050781 -0.105469 C 5.050781 0.226562 4.859375 0.460938 4.480469 0.597656 C 4.460938 0.339844 4.175781 0.148438 3.621094 0.0273438 L 3.621094 -0.105469 C 4.089844 -0.0351562 4.382812 -0.0078125 4.503906 -0.0273438 C 4.625 -0.0429688 4.6875 -0.148438 4.6875 -0.339844 L 4.6875 -3.59375 L 3.332031 -3.59375 C 3.109375 -3.59375 2.898438 -3.566406 2.707031 -3.515625 L 2.472656 -3.75 L 4.6875 -3.75 M 2.996094 -2.941406 C 3.445312 -2.628906 3.710938 -2.414062 3.789062 -2.292969 C 3.867188 -2.171875 3.90625 -2.074219 3.90625 -2.003906 C 3.90625 -1.917969 3.867188 -1.820312 3.789062 -1.707031 C 3.710938 -1.59375 3.65625 -1.535156 3.621094 -1.535156 C 3.566406 -1.535156 3.515625 -1.640625 3.464844 -1.847656 C 3.375 -2.160156 3.195312 -2.5 2.917969 -2.863281 L 2.996094 -2.941406 M 0.964844 -4.324219 L 0.964844 -2.761719 L 2.03125 -2.761719 L 2.03125 -4.324219 L 0.964844 -4.324219 M 0.964844 -2.605469 L 0.964844 -0.9375 L 2.03125 -0.9375 L 2.03125 -2.605469 L 0.964844 -2.605469 M 2.394531 -2.082031 C 2.394531 -1.25 2.40625 -0.710938 2.421875 -0.46875 L 2.03125 -0.261719 L 2.03125 -0.78125 L 0.964844 -0.78125 L 0.964844 -0.234375 L 0.574219 -0.0273438 C 0.589844 -0.582031 0.597656 -1.414062 0.597656 -2.527344 C 0.597656 -3.636719 0.589844 -4.359375 0.574219 -4.6875 L 0.988281 -4.480469 L 1.980469 -4.480469 L 2.1875 -4.738281 L 2.605469 -4.402344 L 2.394531 -4.21875 Z "/>
</g>
<g id="glyph-0-10">
<path d="M 1.171875 -3.933594 L 1.171875 -2.265625 L 2.527344 -2.265625 L 2.527344 -3.933594 L 1.171875 -3.933594 M 1.171875 -2.109375 L 1.171875 -0.285156 L 2.527344 -0.285156 L 2.527344 -2.109375 L 1.171875 -2.109375 M 2.863281 -3.777344 C 2.863281 -1.746094 2.875 -0.417969 2.890625 0.207031 L 2.527344 0.417969 L 2.527344 -0.128906 L 1.171875 -0.128906 L 1.171875 0.3125 L 0.808594 0.519531 C 0.824219 -0.296875 0.832031 -1.105469 0.832031 -1.914062 C 0.832031 -2.722656 0.824219 -3.523438 0.808594 -4.324219 L 1.199219 -4.089844 L 1.457031 -4.089844 C 1.632812 -4.679688 1.726562 -5.128906 1.746094 -5.441406 L 2.316406 -5.128906 C 2.144531 -5.042969 1.910156 -4.695312 1.613281 -4.089844 L 2.472656 -4.089844 L 2.734375 -4.347656 L 3.125 -3.957031 L 2.863281 -3.777344 M 4.140625 -5.417969 L 4.714844 -5.078125 C 4.574219 -4.992188 4.359375 -4.636719 4.0625 -4.011719 L 5.46875 -4.011719 L 5.753906 -4.296875 L 6.144531 -3.90625 L 5.910156 -3.722656 C 5.875 -1.691406 5.828125 -0.542969 5.769531 -0.273438 C 5.707031 -0.00390625 5.621094 0.183594 5.507812 0.285156 C 5.394531 0.390625 5.21875 0.484375 4.972656 0.574219 C 4.886719 0.296875 4.601562 0.0859375 4.113281 -0.0507812 L 4.113281 -0.183594 C 4.546875 -0.09375 4.859375 -0.0507812 5.050781 -0.0507812 C 5.242188 -0.0507812 5.359375 -0.199219 5.402344 -0.496094 C 5.445312 -0.789062 5.484375 -1.910156 5.519531 -3.855469 L 4.011719 -3.855469 C 3.699219 -3.351562 3.367188 -2.925781 3.019531 -2.578125 L 2.941406 -2.628906 C 3.308594 -3.1875 3.578125 -3.679688 3.75 -4.113281 C 3.921875 -4.546875 4.054688 -4.984375 4.140625 -5.417969 M 3.671875 -2.863281 C 4.089844 -2.550781 4.332031 -2.320312 4.402344 -2.175781 C 4.46875 -2.027344 4.503906 -1.917969 4.503906 -1.847656 C 4.503906 -1.726562 4.46875 -1.625 4.402344 -1.535156 C 4.332031 -1.449219 4.28125 -1.40625 4.246094 -1.40625 C 4.175781 -1.40625 4.125 -1.527344 4.089844 -1.769531 C 4.019531 -2.117188 3.863281 -2.457031 3.621094 -2.785156 Z "/>
</g>
<g id="glyph-0-11">
<path d="M 1.640625 -4.765625 L 2.265625 -4.425781 L 2.03125 -4.324219 C 1.925781 -4.0625 1.8125 -3.777344 1.691406 -3.464844 C 2.023438 -3.289062 2.265625 -3.132812 2.421875 -2.996094 C 2.578125 -2.855469 2.65625 -2.71875 2.65625 -2.578125 C 2.65625 -2.507812 2.625 -2.410156 2.566406 -2.277344 C 2.503906 -2.148438 2.457031 -2.082031 2.421875 -2.082031 C 2.371094 -2.082031 2.316406 -2.179688 2.265625 -2.371094 C 2.160156 -2.648438 1.953125 -2.96875 1.640625 -3.332031 C 1.257812 -2.621094 0.851562 -2.074219 0.417969 -1.691406 L 0.339844 -1.746094 C 0.738281 -2.28125 1.039062 -2.820312 1.238281 -3.359375 C 1.4375 -3.898438 1.570312 -4.367188 1.640625 -4.765625 M 4.972656 -4.792969 L 5.574219 -4.453125 C 5.46875 -4.402344 5.390625 -4.332031 5.339844 -4.246094 C 5.285156 -4.15625 5.183594 -3.933594 5.027344 -3.566406 C 5.40625 -3.308594 5.671875 -3.109375 5.820312 -2.96875 C 5.96875 -2.828125 6.042969 -2.691406 6.042969 -2.550781 C 6.042969 -2.464844 6.015625 -2.367188 5.964844 -2.253906 C 5.910156 -2.140625 5.867188 -2.082031 5.832031 -2.082031 C 5.78125 -2.082031 5.71875 -2.1875 5.652344 -2.394531 C 5.53125 -2.707031 5.304688 -3.0625 4.972656 -3.464844 C 4.625 -2.785156 4.21875 -2.238281 3.75 -1.824219 L 3.671875 -1.875 C 4 -2.292969 4.273438 -2.761719 4.492188 -3.28125 C 4.710938 -3.800781 4.871094 -4.304688 4.972656 -4.792969 M 3.152344 -4.582031 C 3.152344 -4.828125 3.140625 -5.105469 3.125 -5.417969 L 3.75 -5.105469 L 3.515625 -4.921875 L 3.515625 -1.535156 L 4.738281 -1.535156 L 5.128906 -1.925781 L 5.675781 -1.378906 L 3.515625 -1.378906 L 3.515625 0.078125 L 5.339844 0.078125 L 5.78125 -0.363281 L 6.378906 0.234375 L 1.144531 0.234375 C 0.921875 0.234375 0.710938 0.261719 0.519531 0.3125 L 0.285156 0.078125 L 3.152344 0.078125 L 3.152344 -1.378906 L 1.953125 -1.378906 C 1.726562 -1.378906 1.519531 -1.355469 1.328125 -1.300781 L 1.09375 -1.535156 L 3.152344 -1.535156 Z "/>
</g>
<g id="glyph-0-12">
<path d="M 4.972656 -2.316406 C 5.632812 -1.65625 6 -1.25 6.066406 -1.09375 C 6.136719 -0.9375 6.171875 -0.816406 6.171875 -0.730469 C 6.171875 -0.609375 6.136719 -0.496094 6.066406 -0.390625 C 6 -0.285156 5.953125 -0.234375 5.9375 -0.234375 C 5.851562 -0.234375 5.773438 -0.382812 5.703125 -0.675781 C 5.582031 -1.078125 5.3125 -1.605469 4.894531 -2.265625 L 4.972656 -2.316406 M 2.863281 -4.792969 L 5.183594 -4.792969 L 5.496094 -5.105469 L 5.964844 -4.636719 L 3.308594 -4.636719 L 3.074219 -4.582031 L 2.863281 -4.792969 M 3.230469 -0.078125 C 3.699219 0.0078125 3.976562 0.0429688 4.0625 0.0273438 C 4.148438 0.0078125 4.191406 -0.0625 4.191406 -0.183594 L 4.191406 -3.074219 L 2.917969 -3.074219 L 2.683594 -3.019531 L 2.472656 -3.230469 L 5.574219 -3.230469 L 5.910156 -3.566406 L 6.40625 -3.074219 L 4.582031 -3.074219 L 4.582031 0.0273438 C 4.566406 0.304688 4.375 0.503906 4.011719 0.625 C 4.011719 0.417969 3.75 0.226562 3.230469 0.0507812 L 3.230469 -0.078125 M 3.253906 -2.371094 L 3.828125 -2.03125 L 3.566406 -1.902344 C 3.132812 -1.121094 2.671875 -0.496094 2.1875 -0.0273438 L 2.109375 -0.105469 C 2.59375 -0.746094 2.976562 -1.5 3.253906 -2.371094 M 1.746094 -2.839844 C 1.746094 -0.964844 1.753906 0.148438 1.769531 0.496094 L 1.355469 0.652344 C 1.371094 -0.09375 1.378906 -1.121094 1.378906 -2.421875 C 1.121094 -1.8125 0.78125 -1.25 0.363281 -0.730469 L 0.285156 -0.832031 C 0.773438 -1.613281 1.136719 -2.542969 1.378906 -3.621094 L 0.730469 -3.621094 L 0.496094 -3.566406 L 0.285156 -3.777344 L 1.378906 -3.777344 C 1.378906 -4.4375 1.371094 -5.007812 1.355469 -5.496094 L 1.980469 -5.183594 L 1.746094 -5 L 1.746094 -3.777344 L 2.082031 -3.777344 L 2.371094 -4.0625 L 2.8125 -3.621094 L 1.746094 -3.621094 L 1.746094 -2.96875 C 2.074219 -2.796875 2.296875 -2.648438 2.410156 -2.527344 C 2.523438 -2.40625 2.578125 -2.300781 2.578125 -2.214844 C 2.578125 -2.160156 2.550781 -2.085938 2.5 -1.992188 C 2.449219 -1.898438 2.40625 -1.847656 2.371094 -1.847656 C 2.316406 -1.847656 2.257812 -1.953125 2.1875 -2.160156 C 2.066406 -2.4375 1.917969 -2.664062 1.746094 -2.839844 Z "/>
</g>
<g id="glyph-0-13">
<path d="M 1.300781 -5.078125 C 1.910156 -4.714844 2.230469 -4.449219 2.265625 -4.285156 C 2.300781 -4.117188 2.28125 -3.992188 2.214844 -3.90625 C 2.144531 -3.820312 2.09375 -3.777344 2.058594 -3.777344 C 1.988281 -3.777344 1.925781 -3.863281 1.875 -4.035156 C 1.769531 -4.296875 1.554688 -4.617188 1.222656 -5 L 1.300781 -5.078125 M 3.175781 -5.46875 L 3.878906 -5.128906 L 3.621094 -4.949219 C 3.566406 -4.445312 3.507812 -3.941406 3.4375 -3.4375 L 5.652344 -3.4375 L 5.859375 -3.777344 L 6.328125 -3.410156 L 6.09375 -3.203125 C 5.972656 -1.640625 5.882812 -0.707031 5.820312 -0.402344 C 5.757812 -0.101562 5.640625 0.128906 5.46875 0.285156 C 5.296875 0.441406 5.078125 0.554688 4.816406 0.625 C 4.714844 0.328125 4.359375 0.121094 3.75 0 L 3.75 -0.128906 C 4.339844 -0.0429688 4.730469 -0.00390625 4.921875 -0.0117188 C 5.113281 -0.0234375 5.25 -0.113281 5.339844 -0.285156 C 5.425781 -0.460938 5.546875 -1.457031 5.703125 -3.28125 L 3.410156 -3.28125 C 3.1875 -2.1875 2.777344 -1.328125 2.1875 -0.703125 C 1.597656 -0.078125 1 0.363281 0.390625 0.625 L 0.339844 0.546875 C 0.980469 0.128906 1.546875 -0.402344 2.03125 -1.054688 C 2.515625 -1.707031 2.839844 -2.449219 2.996094 -3.28125 L 1.457031 -3.28125 C 1.234375 -3.28125 1.023438 -3.253906 0.832031 -3.203125 L 0.597656 -3.4375 L 3.019531 -3.4375 C 3.125 -4.046875 3.175781 -4.722656 3.175781 -5.46875 M 3.488281 -2.5 C 4.289062 -2.136719 4.730469 -1.886719 4.816406 -1.757812 C 4.90625 -1.628906 4.949219 -1.511719 4.949219 -1.40625 C 4.949219 -1.320312 4.929688 -1.234375 4.894531 -1.144531 C 4.859375 -1.058594 4.828125 -1.015625 4.792969 -1.015625 C 4.738281 -1.015625 4.652344 -1.109375 4.53125 -1.300781 C 4.359375 -1.578125 3.992188 -1.945312 3.4375 -2.394531 Z "/>
</g>
<g id="glyph-0-14">
<path d="M 3.332031 -3.644531 L 3.332031 -2.65625 L 5.207031 -2.65625 L 5.207031 -3.644531 L 3.332031 -3.644531 M 3.332031 0.0273438 L 4.347656 -0.441406 L 4.402344 -0.339844 C 3.8125 0.0429688 3.394531 0.375 3.152344 0.652344 L 2.890625 0.261719 C 2.941406 0.121094 2.96875 -0.0507812 2.96875 -0.261719 L 2.96875 -3.542969 C 2.96875 -4.078125 2.960938 -4.636719 2.941406 -5.207031 L 3.332031 -4.972656 L 5.183594 -4.972656 L 5.441406 -5.234375 L 5.832031 -4.894531 L 5.574219 -4.714844 C 5.574219 -4.125 5.582031 -3.375 5.597656 -2.472656 L 5.207031 -2.265625 L 5.207031 -2.5 L 3.984375 -2.5 C 4.105469 -1.980469 4.269531 -1.5625 4.480469 -1.25 C 5.121094 -1.753906 5.519531 -2.136719 5.675781 -2.394531 L 6.066406 -1.925781 L 5.832031 -1.875 C 5.382812 -1.613281 4.949219 -1.371094 4.53125 -1.144531 C 4.984375 -0.484375 5.609375 -0.0507812 6.40625 0.15625 L 6.40625 0.261719 C 6.09375 0.277344 5.910156 0.375 5.859375 0.546875 C 4.75 0.0273438 4.070312 -0.988281 3.828125 -2.5 L 3.332031 -2.5 L 3.332031 0.0273438 M 3.332031 -4.816406 L 3.332031 -3.800781 L 5.207031 -3.800781 L 5.207031 -4.816406 L 3.332031 -4.816406 M 1.769531 -0.78125 C 1.769531 -0.539062 1.78125 -0.113281 1.796875 0.496094 L 1.378906 0.652344 C 1.398438 -0.355469 1.40625 -1.398438 1.40625 -2.472656 C 1.128906 -1.832031 0.789062 -1.285156 0.390625 -0.832031 L 0.3125 -0.886719 C 0.796875 -1.648438 1.164062 -2.585938 1.40625 -3.699219 L 0.703125 -3.699219 L 0.46875 -3.644531 L 0.261719 -3.855469 L 1.40625 -3.855469 C 1.40625 -4.324219 1.398438 -4.84375 1.378906 -5.417969 L 2.003906 -5.128906 L 1.769531 -4.949219 L 1.769531 -3.855469 L 2.1875 -3.855469 L 2.449219 -4.113281 L 2.863281 -3.699219 L 1.769531 -3.699219 L 1.769531 -3.046875 C 2.136719 -2.875 2.371094 -2.710938 2.472656 -2.566406 C 2.578125 -2.417969 2.628906 -2.300781 2.628906 -2.214844 C 2.628906 -2.144531 2.605469 -2.070312 2.550781 -1.992188 C 2.5 -1.914062 2.464844 -1.875 2.449219 -1.875 C 2.378906 -1.875 2.308594 -1.980469 2.238281 -2.1875 C 2.117188 -2.464844 1.960938 -2.707031 1.769531 -2.917969 Z "/>
</g>
<g id="glyph-0-15">
<path d="M 5 -4.871094 C 5 -4.089844 5.007812 -3.585938 5.027344 -3.359375 L 4.636719 -3.203125 L 4.636719 -3.464844 L 2.03125 -3.464844 L 2.03125 -3.230469 L 1.640625 -3.097656 C 1.65625 -3.445312 1.667969 -3.816406 1.667969 -4.207031 C 1.667969 -4.597656 1.65625 -4.964844 1.640625 -5.3125 L 2.03125 -5.105469 L 4.609375 -5.105469 L 4.84375 -5.363281 L 5.207031 -5.050781 L 5 -4.871094 M 2.03125 -4.949219 L 2.03125 -3.621094 L 4.636719 -3.621094 L 4.636719 -4.949219 L 2.03125 -4.949219 M 5.15625 -1.433594 C 5 -0.53125 4.859375 -0.0078125 4.738281 0.128906 C 4.617188 0.269531 4.496094 0.367188 4.375 0.429688 C 4.253906 0.492188 4.054688 0.554688 3.777344 0.625 C 3.742188 0.363281 3.472656 0.128906 2.96875 -0.078125 L 2.996094 -0.183594 C 3.464844 -0.0429688 3.8125 0.0273438 4.035156 0.0273438 C 4.125 0.0273438 4.230469 0 4.363281 -0.0507812 C 4.492188 -0.105469 4.625 -0.609375 4.765625 -1.5625 L 2.371094 -1.5625 L 2.136719 -1.355469 L 1.824219 -1.71875 C 1.945312 -1.789062 2.042969 -1.902344 2.121094 -2.058594 C 2.199219 -2.214844 2.273438 -2.414062 2.34375 -2.65625 L 0.859375 -2.65625 L 0.625 -2.605469 L 0.417969 -2.8125 L 5.441406 -2.8125 L 5.78125 -3.152344 L 6.25 -2.65625 L 2.785156 -2.65625 L 2.421875 -1.71875 L 4.738281 -1.71875 L 5.027344 -2.003906 L 5.417969 -1.613281 Z "/>
</g>
<g id="glyph-0-16">
<path d="M 0.46875 -4.765625 L 5.285156 -4.765625 L 5.675781 -5.15625 L 6.222656 -4.609375 L 3.386719 -4.609375 L 3.386719 -3.253906 C 4.425781 -2.941406 5.03125 -2.695312 5.195312 -2.511719 C 5.359375 -2.332031 5.441406 -2.171875 5.441406 -2.03125 C 5.441406 -1.980469 5.421875 -1.90625 5.378906 -1.808594 C 5.335938 -1.714844 5.296875 -1.667969 5.261719 -1.667969 C 5.191406 -1.667969 5.070312 -1.78125 4.894531 -2.003906 C 4.652344 -2.335938 4.148438 -2.707031 3.386719 -3.125 L 3.386719 -0.46875 C 3.386719 -0.105469 3.394531 0.199219 3.410156 0.441406 L 2.96875 0.625 C 2.984375 -0.015625 2.996094 -0.460938 2.996094 -0.703125 L 2.996094 -4.609375 L 1.328125 -4.609375 C 1.101562 -4.609375 0.894531 -4.582031 0.703125 -4.53125 Z "/>
</g>
<g id="glyph-0-17">
<path d="M 4.480469 -5.183594 L 4.296875 -5.027344 C 4.574219 -4.574219 4.867188 -4.21875 5.167969 -3.957031 C 5.472656 -3.699219 5.859375 -3.5 6.328125 -3.359375 L 6.328125 -3.28125 C 6.101562 -3.246094 5.953125 -3.140625 5.886719 -2.96875 C 5.503906 -3.195312 5.179688 -3.464844 4.910156 -3.777344 C 4.640625 -4.089844 4.410156 -4.46875 4.21875 -4.921875 C 3.992188 -4.539062 3.726562 -4.15625 3.425781 -3.777344 C 3.121094 -3.394531 2.707031 -3.0625 2.1875 -2.785156 L 2.136719 -2.863281 C 2.550781 -3.160156 2.917969 -3.546875 3.230469 -4.023438 C 3.542969 -4.5 3.792969 -4.984375 3.984375 -5.46875 L 4.480469 -5.183594 M 2.96875 0 C 3.453125 0.0703125 3.753906 0.101562 3.867188 0.0898438 C 3.980469 0.0820312 4.035156 0.0078125 4.035156 -0.128906 L 4.035156 -1.875 L 3.386719 -1.875 C 3.160156 -1.875 2.953125 -1.847656 2.761719 -1.796875 L 2.527344 -2.03125 L 4.035156 -2.03125 L 4.035156 -2.996094 L 3.855469 -2.996094 C 3.628906 -2.996094 3.421875 -2.96875 3.230469 -2.917969 L 2.996094 -3.152344 L 4.714844 -3.152344 L 4.972656 -3.410156 L 5.363281 -2.996094 L 4.375 -2.996094 L 4.375 -2.03125 L 5.285156 -2.03125 L 5.597656 -2.34375 L 6.042969 -1.875 L 4.375 -1.875 L 4.375 -0.0507812 C 4.375 0.140625 4.339844 0.28125 4.269531 0.378906 C 4.203125 0.472656 4.054688 0.5625 3.828125 0.652344 C 3.742188 0.40625 3.453125 0.226562 2.96875 0.105469 L 2.96875 0 M 3.203125 -1.535156 L 3.671875 -1.144531 C 3.566406 -1.128906 3.351562 -0.945312 3.019531 -0.597656 C 2.671875 -0.25 2.328125 0.015625 1.980469 0.207031 L 1.925781 0.128906 C 2.238281 -0.128906 2.511719 -0.425781 2.746094 -0.753906 C 2.980469 -1.085938 3.132812 -1.34375 3.203125 -1.535156 M 4.660156 -1.355469 L 4.714844 -1.433594 C 5.164062 -1.15625 5.484375 -0.929688 5.675781 -0.753906 C 5.867188 -0.582031 5.980469 -0.4375 6.015625 -0.324219 C 6.050781 -0.210938 6.03125 -0.109375 5.964844 -0.0117188 C 5.894531 0.0820312 5.84375 0.128906 5.808594 0.128906 C 5.753906 0.128906 5.710938 0.0703125 5.675781 -0.0507812 C 5.589844 -0.242188 5.464844 -0.453125 5.300781 -0.675781 C 5.132812 -0.902344 4.921875 -1.128906 4.660156 -1.355469 M 0.652344 0.675781 C 0.667969 -0.207031 0.675781 -1.253906 0.675781 -2.460938 C 0.675781 -3.667969 0.667969 -4.566406 0.652344 -5.15625 L 0.988281 -4.921875 L 2.003906 -4.921875 L 2.265625 -5.183594 L 2.628906 -4.816406 L 2.394531 -4.660156 L 1.5625 -3.203125 C 2.015625 -2.785156 2.273438 -2.476562 2.34375 -2.277344 C 2.414062 -2.078125 2.4375 -1.886719 2.421875 -1.707031 C 2.40625 -1.523438 2.335938 -1.359375 2.214844 -1.210938 C 2.09375 -1.0625 1.910156 -0.9375 1.667969 -0.832031 C 1.613281 -1.058594 1.421875 -1.234375 1.09375 -1.355469 L 1.09375 -1.457031 C 1.285156 -1.40625 1.457031 -1.378906 1.613281 -1.378906 C 1.769531 -1.378906 1.886719 -1.429688 1.964844 -1.523438 C 2.042969 -1.617188 2.066406 -1.808594 2.03125 -2.097656 C 1.996094 -2.382812 1.796875 -2.75 1.433594 -3.203125 L 2.003906 -4.765625 L 0.988281 -4.765625 L 0.988281 0.496094 Z "/>
</g>
<g id="glyph-0-18">
<path d="M 1.535156 -1.09375 C 1.882812 -1.265625 2.492188 -1.65625 3.359375 -2.265625 L 3.4375 -2.1875 C 2.761719 -1.597656 2.292969 -1.1875 2.03125 -0.964844 C 1.769531 -0.738281 1.5625 -0.511719 1.40625 -0.285156 L 1.015625 -0.753906 C 1.101562 -0.859375 1.144531 -1.007812 1.144531 -1.199219 L 1.144531 -3.777344 C 1.144531 -4.296875 1.136719 -4.730469 1.121094 -5.078125 L 1.769531 -4.765625 L 1.535156 -4.558594 L 1.535156 -1.09375 M 2.578125 -4.714844 C 3.253906 -4.246094 3.59375 -3.910156 3.59375 -3.710938 C 3.59375 -3.511719 3.554688 -3.367188 3.476562 -3.28125 C 3.398438 -3.195312 3.34375 -3.152344 3.308594 -3.152344 C 3.238281 -3.152344 3.175781 -3.265625 3.125 -3.488281 C 3.039062 -3.800781 2.828125 -4.183594 2.5 -4.636719 L 2.578125 -4.714844 M 4.765625 -5.3125 L 5.417969 -5.027344 L 5.207031 -4.84375 C 5.191406 -3.855469 5.160156 -3.128906 5.117188 -2.667969 C 5.074219 -2.210938 4.984375 -1.796875 4.84375 -1.433594 C 5.242188 -1.15625 5.546875 -0.929688 5.753906 -0.753906 C 5.964844 -0.582031 6.066406 -0.402344 6.066406 -0.222656 C 6.066406 -0.0390625 6.039062 0.0859375 5.976562 0.15625 C 5.914062 0.226562 5.875 0.261719 5.859375 0.261719 C 5.789062 0.261719 5.710938 0.140625 5.625 -0.105469 C 5.503906 -0.398438 5.226562 -0.796875 4.792969 -1.300781 C 4.460938 -0.746094 4.007812 -0.324219 3.425781 -0.0390625 C 2.84375 0.246094 2.171875 0.453125 1.40625 0.574219 L 1.355469 0.46875 C 1.839844 0.363281 2.28125 0.226562 2.683594 0.0507812 C 3.082031 -0.121094 3.453125 -0.359375 3.800781 -0.664062 C 4.148438 -0.96875 4.40625 -1.378906 4.570312 -1.902344 C 4.734375 -2.421875 4.800781 -3.558594 4.765625 -5.3125 Z "/>
</g>
<g id="glyph-0-19">
<path d="M 1.183594 -0.15625 C 1.28125 -0.277344 1.363281 -0.453125 1.433594 -0.675781 C 1.277344 -0.675781 1.164062 -0.703125 1.09375 -0.753906 C 1.023438 -0.808594 0.976562 -0.875 0.949219 -0.964844 C 0.925781 -1.050781 0.921875 -1.132812 0.9375 -1.210938 C 0.953125 -1.289062 1.015625 -1.367188 1.121094 -1.445312 C 1.222656 -1.523438 1.355469 -1.546875 1.511719 -1.511719 C 1.667969 -1.476562 1.761719 -1.410156 1.796875 -1.316406 C 1.832031 -1.21875 1.847656 -1.128906 1.847656 -1.042969 C 1.847656 -0.9375 1.824219 -0.804688 1.769531 -0.636719 C 1.71875 -0.472656 1.601562 -0.289062 1.417969 -0.0898438 C 1.238281 0.109375 1.089844 0.21875 0.976562 0.234375 C 0.863281 0.25 0.808594 0.25 0.808594 0.234375 C 0.808594 0.21875 0.832031 0.191406 0.886719 0.15625 C 0.988281 0.0703125 1.089844 -0.0351562 1.183594 -0.15625 Z "/>
</g>
<g id="glyph-0-20">
<path d="M 2.003906 -1.328125 C 2.144531 -1.277344 2.238281 -1.175781 2.292969 -1.027344 C 2.34375 -0.882812 2.371094 -0.773438 2.371094 -0.703125 C 2.371094 -0.652344 2.351562 -0.558594 2.316406 -0.429688 C 2.28125 -0.300781 2.199219 -0.191406 2.070312 -0.105469 C 1.941406 -0.015625 1.789062 0.0273438 1.613281 0.0273438 C 1.441406 0.0273438 1.285156 -0.0429688 1.144531 -0.183594 C 1.007812 -0.320312 0.933594 -0.472656 0.925781 -0.636719 C 0.914062 -0.804688 0.949219 -0.949219 1.027344 -1.082031 C 1.105469 -1.210938 1.207031 -1.296875 1.328125 -1.339844 C 1.449219 -1.382812 1.554688 -1.40625 1.640625 -1.40625 C 1.746094 -1.40625 1.867188 -1.378906 2.003906 -1.328125 M 1.980469 -0.300781 C 2.101562 -0.378906 2.15625 -0.515625 2.148438 -0.714844 C 2.140625 -0.914062 2.074219 -1.046875 1.953125 -1.105469 C 1.832031 -1.167969 1.726562 -1.199219 1.640625 -1.199219 C 1.535156 -1.199219 1.429688 -1.160156 1.316406 -1.082031 C 1.203125 -1.003906 1.144531 -0.867188 1.144531 -0.675781 C 1.144531 -0.484375 1.210938 -0.355469 1.339844 -0.285156 C 1.472656 -0.21875 1.570312 -0.183594 1.640625 -0.183594 C 1.746094 -0.183594 1.859375 -0.222656 1.980469 -0.300781 Z "/>
</g>
<g id="glyph-1-0">
<path d="M 3.328125 0 L 1.855469 0 L 1.855469 -0.214844 C 1.953125 -0.226562 2.035156 -0.238281 2.105469 -0.246094 C 2.175781 -0.257812 2.207031 -0.285156 2.207031 -0.332031 C 2.207031 -0.351562 2.199219 -0.382812 2.175781 -0.421875 C 2.152344 -0.464844 2.132812 -0.503906 2.109375 -0.539062 C 2.054688 -0.621094 1.980469 -0.734375 1.886719 -0.878906 C 1.792969 -1.019531 1.675781 -1.191406 1.539062 -1.386719 C 1.425781 -1.246094 1.324219 -1.109375 1.226562 -0.976562 C 1.132812 -0.839844 1.03125 -0.699219 0.925781 -0.550781 C 0.910156 -0.527344 0.894531 -0.5 0.878906 -0.46875 C 0.863281 -0.4375 0.855469 -0.410156 0.855469 -0.390625 C 0.855469 -0.34375 0.886719 -0.304688 0.949219 -0.273438 C 1.011719 -0.242188 1.101562 -0.21875 1.226562 -0.207031 L 1.226562 0 L 0.0390625 0 L 0.0390625 -0.203125 C 0.1875 -0.246094 0.304688 -0.296875 0.394531 -0.359375 C 0.484375 -0.421875 0.570312 -0.496094 0.644531 -0.589844 C 0.710938 -0.675781 0.804688 -0.796875 0.925781 -0.949219 C 1.046875 -1.101562 1.203125 -1.308594 1.394531 -1.570312 C 1.285156 -1.726562 1.148438 -1.921875 0.988281 -2.148438 C 0.828125 -2.375 0.699219 -2.566406 0.59375 -2.71875 C 0.535156 -2.800781 0.472656 -2.867188 0.398438 -2.917969 C 0.328125 -2.96875 0.222656 -2.996094 0.0898438 -2.996094 L 0.0898438 -3.210938 L 1.488281 -3.210938 L 1.488281 -2.996094 C 1.417969 -2.996094 1.351562 -2.992188 1.28125 -2.980469 C 1.214844 -2.972656 1.183594 -2.953125 1.183594 -2.921875 C 1.183594 -2.902344 1.1875 -2.882812 1.203125 -2.859375 C 1.214844 -2.835938 1.230469 -2.808594 1.25 -2.78125 C 1.296875 -2.707031 1.371094 -2.59375 1.472656 -2.4375 C 1.574219 -2.285156 1.683594 -2.121094 1.800781 -1.949219 C 1.875 -2.054688 1.964844 -2.175781 2.066406 -2.316406 C 2.167969 -2.453125 2.261719 -2.585938 2.34375 -2.710938 C 2.355469 -2.726562 2.363281 -2.746094 2.371094 -2.769531 C 2.378906 -2.792969 2.382812 -2.8125 2.382812 -2.835938 C 2.382812 -2.878906 2.347656 -2.917969 2.269531 -2.945312 C 2.195312 -2.972656 2.125 -2.992188 2.058594 -3 L 2.058594 -3.210938 L 3.242188 -3.210938 L 3.242188 -3.007812 C 3.074219 -2.964844 2.945312 -2.914062 2.851562 -2.851562 C 2.757812 -2.792969 2.679688 -2.722656 2.613281 -2.644531 C 2.542969 -2.558594 2.457031 -2.449219 2.359375 -2.316406 C 2.261719 -2.1875 2.121094 -2.003906 1.945312 -1.769531 C 2.140625 -1.492188 2.300781 -1.265625 2.425781 -1.085938 C 2.550781 -0.910156 2.671875 -0.726562 2.800781 -0.539062 C 2.863281 -0.441406 2.933594 -0.367188 3.007812 -0.3125 C 3.085938 -0.253906 3.191406 -0.222656 3.328125 -0.214844 Z "/>
</g>
<g id="glyph-1-1">
</g>
<g id="glyph-1-2">
<path d="M 3.40625 -3.011719 C 3.308594 -2.992188 3.214844 -2.957031 3.125 -2.90625 C 3.039062 -2.851562 2.964844 -2.757812 2.898438 -2.625 C 2.773438 -2.332031 2.640625 -2.03125 2.503906 -1.714844 C 2.367188 -1.398438 2.222656 -1.066406 2.078125 -0.71875 C 2.035156 -0.621094 1.988281 -0.5 1.9375 -0.363281 C 1.890625 -0.226562 1.84375 -0.0976562 1.804688 0.0273438 L 1.550781 0.0273438 C 1.34375 -0.480469 1.152344 -0.945312 0.980469 -1.367188 C 0.804688 -1.785156 0.625 -2.214844 0.4375 -2.65625 C 0.394531 -2.757812 0.324219 -2.832031 0.230469 -2.890625 C 0.132812 -2.945312 0.0351562 -2.980469 -0.0625 -2.996094 L -0.0625 -3.210938 L 1.421875 -3.210938 L 1.421875 -2.980469 C 1.359375 -2.980469 1.277344 -2.964844 1.179688 -2.941406 C 1.082031 -2.917969 1.03125 -2.882812 1.03125 -2.839844 C 1.03125 -2.832031 1.039062 -2.816406 1.050781 -2.789062 C 1.058594 -2.761719 1.070312 -2.730469 1.082031 -2.695312 C 1.171875 -2.476562 1.296875 -2.164062 1.457031 -1.769531 C 1.621094 -1.371094 1.753906 -1.050781 1.855469 -0.808594 C 1.933594 -0.996094 2.03125 -1.226562 2.148438 -1.503906 C 2.265625 -1.78125 2.394531 -2.09375 2.53125 -2.4375 C 2.554688 -2.492188 2.574219 -2.546875 2.59375 -2.601562 C 2.613281 -2.652344 2.621094 -2.703125 2.621094 -2.753906 C 2.621094 -2.792969 2.605469 -2.824219 2.570312 -2.851562 C 2.53125 -2.882812 2.492188 -2.90625 2.441406 -2.929688 C 2.390625 -2.953125 2.339844 -2.96875 2.292969 -2.980469 C 2.246094 -2.988281 2.207031 -2.996094 2.175781 -3 L 2.175781 -3.210938 L 3.40625 -3.210938 Z "/>
</g>
<g id="glyph-1-3">
<path d="M 3.34375 -3.039062 C 3.480469 -2.875 3.585938 -2.675781 3.652344 -2.453125 C 3.722656 -2.226562 3.757812 -1.992188 3.757812 -1.746094 C 3.757812 -1.453125 3.714844 -1.1875 3.628906 -0.957031 C 3.542969 -0.722656 3.429688 -0.527344 3.28125 -0.375 C 3.128906 -0.214844 2.949219 -0.0976562 2.742188 -0.015625 C 2.53125 0.0625 2.300781 0.105469 2.042969 0.105469 C 1.765625 0.105469 1.515625 0.0585938 1.296875 -0.0351562 C 1.078125 -0.128906 0.898438 -0.257812 0.761719 -0.417969 C 0.617188 -0.589844 0.511719 -0.789062 0.441406 -1.015625 C 0.371094 -1.242188 0.335938 -1.484375 0.335938 -1.746094 C 0.335938 -2.007812 0.371094 -2.242188 0.4375 -2.460938 C 0.507812 -2.679688 0.613281 -2.875 0.757812 -3.050781 C 0.898438 -3.21875 1.078125 -3.351562 1.296875 -3.449219 C 1.515625 -3.546875 1.765625 -3.597656 2.046875 -3.597656 C 2.34375 -3.597656 2.601562 -3.546875 2.8125 -3.445312 C 3.023438 -3.347656 3.203125 -3.210938 3.34375 -3.039062 M 3.035156 -1.746094 C 3.035156 -2.265625 2.949219 -2.664062 2.773438 -2.949219 C 2.59375 -3.234375 2.355469 -3.375 2.050781 -3.375 C 1.742188 -3.375 1.5 -3.234375 1.320312 -2.949219 C 1.144531 -2.664062 1.054688 -2.265625 1.054688 -1.746094 C 1.054688 -1.257812 1.140625 -0.863281 1.308594 -0.566406 C 1.480469 -0.265625 1.726562 -0.117188 2.042969 -0.117188 C 2.363281 -0.117188 2.609375 -0.265625 2.78125 -0.566406 C 2.953125 -0.863281 3.035156 -1.257812 3.035156 -1.746094 Z "/>
</g>
<g id="glyph-1-4">
<path d="M 3.40625 0 L 0.359375 0 L 0.359375 -0.445312 C 0.417969 -0.511719 0.496094 -0.585938 0.601562 -0.671875 C 0.707031 -0.753906 0.828125 -0.84375 0.972656 -0.941406 C 1.058594 -1 1.164062 -1.066406 1.285156 -1.132812 C 1.40625 -1.203125 1.546875 -1.28125 1.699219 -1.363281 C 1.871094 -1.453125 2.003906 -1.535156 2.09375 -1.601562 C 2.1875 -1.671875 2.269531 -1.757812 2.347656 -1.859375 C 2.398438 -1.925781 2.4375 -2.011719 2.46875 -2.113281 C 2.496094 -2.210938 2.511719 -2.355469 2.511719 -2.542969 C 2.511719 -2.8125 2.441406 -3.011719 2.296875 -3.140625 C 2.148438 -3.265625 1.960938 -3.328125 1.734375 -3.328125 C 1.59375 -3.328125 1.460938 -3.300781 1.335938 -3.246094 C 1.207031 -3.191406 1.113281 -3.113281 1.050781 -3.015625 C 1.066406 -2.949219 1.085938 -2.867188 1.109375 -2.769531 C 1.132812 -2.675781 1.140625 -2.582031 1.140625 -2.492188 C 1.140625 -2.40625 1.109375 -2.335938 1.039062 -2.269531 C 0.972656 -2.207031 0.871094 -2.175781 0.734375 -2.175781 C 0.628906 -2.175781 0.542969 -2.210938 0.484375 -2.285156 C 0.425781 -2.363281 0.398438 -2.460938 0.398438 -2.585938 C 0.398438 -2.703125 0.429688 -2.824219 0.496094 -2.941406 C 0.558594 -3.058594 0.652344 -3.167969 0.773438 -3.269531 C 0.894531 -3.367188 1.042969 -3.445312 1.21875 -3.503906 C 1.394531 -3.566406 1.582031 -3.597656 1.785156 -3.597656 C 2.230469 -3.597656 2.585938 -3.496094 2.847656 -3.300781 C 3.109375 -3.101562 3.238281 -2.835938 3.238281 -2.503906 C 3.238281 -2.347656 3.214844 -2.203125 3.167969 -2.070312 C 3.121094 -1.941406 3.046875 -1.828125 2.941406 -1.726562 C 2.828125 -1.617188 2.691406 -1.523438 2.539062 -1.441406 C 2.386719 -1.363281 2.148438 -1.253906 1.832031 -1.113281 C 1.644531 -1.027344 1.46875 -0.941406 1.304688 -0.847656 C 1.140625 -0.753906 1.007812 -0.667969 0.90625 -0.578125 L 3.40625 -0.578125 Z "/>
</g>
<g id="glyph-1-5">
<path d="M 5.726562 0 L 4.164062 0 L 4.164062 -0.214844 C 4.214844 -0.21875 4.265625 -0.222656 4.316406 -0.226562 C 4.367188 -0.230469 4.410156 -0.242188 4.449219 -0.253906 C 4.511719 -0.273438 4.554688 -0.308594 4.585938 -0.355469 C 4.613281 -0.40625 4.628906 -0.46875 4.628906 -0.546875 L 4.628906 -2.203125 C 4.628906 -2.429688 4.578125 -2.605469 4.472656 -2.726562 C 4.371094 -2.847656 4.242188 -2.910156 4.089844 -2.910156 C 3.980469 -2.910156 3.882812 -2.894531 3.789062 -2.859375 C 3.695312 -2.828125 3.609375 -2.78125 3.53125 -2.722656 C 3.46875 -2.675781 3.417969 -2.625 3.375 -2.570312 C 3.332031 -2.515625 3.300781 -2.46875 3.277344 -2.429688 L 3.277344 -0.578125 C 3.277344 -0.503906 3.289062 -0.441406 3.316406 -0.390625 C 3.34375 -0.34375 3.386719 -0.304688 3.449219 -0.28125 C 3.5 -0.261719 3.546875 -0.246094 3.585938 -0.234375 C 3.625 -0.226562 3.679688 -0.21875 3.742188 -0.214844 L 3.742188 0 L 2.214844 0 L 2.214844 -0.214844 C 2.261719 -0.21875 2.3125 -0.222656 2.359375 -0.226562 C 2.40625 -0.230469 2.449219 -0.242188 2.488281 -0.253906 C 2.546875 -0.273438 2.59375 -0.308594 2.621094 -0.355469 C 2.652344 -0.40625 2.664062 -0.46875 2.664062 -0.546875 L 2.664062 -2.203125 C 2.664062 -2.429688 2.613281 -2.605469 2.511719 -2.726562 C 2.40625 -2.847656 2.277344 -2.910156 2.125 -2.910156 C 2.019531 -2.910156 1.917969 -2.894531 1.824219 -2.859375 C 1.730469 -2.824219 1.644531 -2.78125 1.566406 -2.722656 C 1.503906 -2.671875 1.449219 -2.621094 1.40625 -2.558594 C 1.363281 -2.5 1.332031 -2.457031 1.308594 -2.425781 L 1.308594 -0.585938 C 1.308594 -0.511719 1.324219 -0.449219 1.355469 -0.398438 C 1.382812 -0.351562 1.429688 -0.3125 1.492188 -0.285156 C 1.535156 -0.265625 1.582031 -0.25 1.628906 -0.238281 C 1.679688 -0.226562 1.730469 -0.21875 1.789062 -0.214844 L 1.789062 0 L 0.230469 0 L 0.230469 -0.214844 C 0.28125 -0.21875 0.332031 -0.222656 0.386719 -0.226562 C 0.4375 -0.230469 0.484375 -0.242188 0.523438 -0.253906 C 0.585938 -0.273438 0.628906 -0.308594 0.660156 -0.355469 C 0.6875 -0.40625 0.703125 -0.46875 0.703125 -0.546875 L 0.703125 -2.539062 C 0.703125 -2.609375 0.6875 -2.671875 0.65625 -2.726562 C 0.625 -2.78125 0.582031 -2.828125 0.523438 -2.867188 C 0.484375 -2.894531 0.433594 -2.914062 0.371094 -2.929688 C 0.308594 -2.949219 0.246094 -2.957031 0.183594 -2.960938 L 0.183594 -3.175781 L 1.257812 -3.25 L 1.300781 -3.203125 L 1.300781 -2.742188 L 1.324219 -2.742188 C 1.378906 -2.796875 1.445312 -2.863281 1.523438 -2.9375 C 1.601562 -3.011719 1.675781 -3.070312 1.742188 -3.113281 C 1.816406 -3.167969 1.914062 -3.210938 2.027344 -3.246094 C 2.140625 -3.28125 2.261719 -3.296875 2.394531 -3.296875 C 2.605469 -3.296875 2.78125 -3.242188 2.933594 -3.128906 C 3.082031 -3.019531 3.191406 -2.882812 3.253906 -2.722656 C 3.332031 -2.800781 3.402344 -2.867188 3.460938 -2.925781 C 3.519531 -2.980469 3.601562 -3.042969 3.695312 -3.109375 C 3.78125 -3.164062 3.875 -3.210938 3.988281 -3.246094 C 4.101562 -3.28125 4.222656 -3.296875 4.359375 -3.296875 C 4.632812 -3.296875 4.84375 -3.207031 5.003906 -3.03125 C 5.160156 -2.851562 5.242188 -2.578125 5.242188 -2.210938 L 5.242188 -0.578125 C 5.242188 -0.503906 5.253906 -0.441406 5.28125 -0.390625 C 5.304688 -0.34375 5.351562 -0.304688 5.414062 -0.28125 C 5.464844 -0.261719 5.511719 -0.246094 5.5625 -0.234375 C 5.609375 -0.226562 5.664062 -0.21875 5.726562 -0.214844 Z "/>
</g>
<g id="glyph-1-6">
<path d="M 3.726562 0 L 2.148438 0 L 2.148438 -0.214844 C 2.199219 -0.21875 2.253906 -0.222656 2.3125 -0.226562 C 2.375 -0.230469 2.425781 -0.242188 2.464844 -0.253906 C 2.523438 -0.273438 2.570312 -0.308594 2.597656 -0.355469 C 2.628906 -0.40625 2.644531 -0.46875 2.644531 -0.546875 L 2.644531 -2.195312 C 2.644531 -2.425781 2.589844 -2.601562 2.480469 -2.722656 C 2.375 -2.847656 2.242188 -2.910156 2.089844 -2.910156 C 1.976562 -2.910156 1.871094 -2.890625 1.773438 -2.855469 C 1.675781 -2.820312 1.589844 -2.777344 1.515625 -2.722656 C 1.441406 -2.671875 1.382812 -2.617188 1.34375 -2.5625 C 1.304688 -2.507812 1.273438 -2.460938 1.253906 -2.425781 L 1.253906 -0.578125 C 1.253906 -0.503906 1.269531 -0.445312 1.296875 -0.398438 C 1.328125 -0.347656 1.371094 -0.3125 1.433594 -0.285156 C 1.480469 -0.265625 1.53125 -0.25 1.582031 -0.238281 C 1.632812 -0.226562 1.6875 -0.21875 1.746094 -0.214844 L 1.746094 0 L 0.175781 0 L 0.175781 -0.214844 C 0.226562 -0.21875 0.277344 -0.222656 0.332031 -0.230469 C 0.386719 -0.234375 0.429688 -0.242188 0.464844 -0.253906 C 0.527344 -0.273438 0.574219 -0.308594 0.601562 -0.355469 C 0.632812 -0.40625 0.648438 -0.46875 0.648438 -0.546875 L 0.648438 -4.285156 C 0.648438 -4.359375 0.632812 -4.433594 0.597656 -4.507812 C 0.5625 -4.582031 0.519531 -4.636719 0.464844 -4.675781 C 0.425781 -4.703125 0.359375 -4.722656 0.257812 -4.734375 C 0.160156 -4.746094 0.0820312 -4.753906 0.0195312 -4.757812 L 0.0195312 -4.96875 L 1.207031 -5.039062 L 1.253906 -4.992188 L 1.253906 -2.75 L 1.265625 -2.75 C 1.339844 -2.820312 1.402344 -2.886719 1.460938 -2.941406 C 1.519531 -2.996094 1.597656 -3.054688 1.695312 -3.113281 C 1.777344 -3.167969 1.875 -3.210938 1.984375 -3.246094 C 2.097656 -3.28125 2.222656 -3.296875 2.363281 -3.296875 C 2.648438 -3.296875 2.871094 -3.207031 3.023438 -3.027344 C 3.179688 -2.84375 3.253906 -2.582031 3.253906 -2.242188 L 3.253906 -0.574219 C 3.253906 -0.496094 3.269531 -0.4375 3.296875 -0.390625 C 3.324219 -0.34375 3.367188 -0.304688 3.433594 -0.28125 C 3.484375 -0.261719 3.527344 -0.246094 3.566406 -0.234375 C 3.609375 -0.226562 3.660156 -0.21875 3.726562 -0.214844 Z "/>
</g>
<g id="glyph-1-7">
<path d="M 3.757812 1.445312 L 2.019531 1.445312 L 2.019531 1.230469 C 2.085938 1.226562 2.152344 1.21875 2.21875 1.214844 C 2.28125 1.207031 2.339844 1.195312 2.390625 1.179688 C 2.460938 1.160156 2.507812 1.121094 2.53125 1.066406 C 2.558594 1.011719 2.570312 0.949219 2.570312 0.875 L 2.570312 -0.3125 L 2.550781 -0.320312 C 2.515625 -0.28125 2.46875 -0.234375 2.402344 -0.183594 C 2.339844 -0.132812 2.273438 -0.0898438 2.203125 -0.0585938 C 2.117188 -0.0117188 2.035156 0.0234375 1.953125 0.046875 C 1.875 0.0703125 1.773438 0.0859375 1.652344 0.0859375 C 1.457031 0.0859375 1.273438 0.0429688 1.101562 -0.0390625 C 0.929688 -0.117188 0.777344 -0.234375 0.652344 -0.382812 C 0.523438 -0.53125 0.421875 -0.714844 0.347656 -0.929688 C 0.273438 -1.144531 0.234375 -1.382812 0.234375 -1.640625 C 0.234375 -1.886719 0.277344 -2.109375 0.363281 -2.308594 C 0.453125 -2.511719 0.566406 -2.683594 0.710938 -2.835938 C 0.847656 -2.976562 1.011719 -3.089844 1.203125 -3.171875 C 1.394531 -3.253906 1.585938 -3.296875 1.773438 -3.296875 C 1.914062 -3.296875 2.039062 -3.285156 2.148438 -3.257812 C 2.257812 -3.230469 2.351562 -3.199219 2.429688 -3.160156 C 2.496094 -3.132812 2.5625 -3.097656 2.632812 -3.050781 C 2.699219 -3.007812 2.746094 -2.976562 2.773438 -2.960938 L 3.050781 -3.386719 L 3.238281 -3.359375 C 3.230469 -3.199219 3.21875 -3 3.203125 -2.765625 C 3.191406 -2.53125 3.183594 -2.328125 3.183594 -2.152344 L 3.183594 0.820312 C 3.183594 0.894531 3.199219 0.960938 3.226562 1.015625 C 3.253906 1.074219 3.300781 1.113281 3.363281 1.140625 C 3.414062 1.164062 3.480469 1.183594 3.5625 1.199219 C 3.640625 1.214844 3.707031 1.226562 3.757812 1.230469 L 3.757812 1.445312 M 2.570312 -0.59375 L 2.570312 -2.511719 C 2.554688 -2.566406 2.523438 -2.628906 2.484375 -2.695312 C 2.441406 -2.761719 2.394531 -2.816406 2.335938 -2.867188 C 2.277344 -2.917969 2.203125 -2.964844 2.113281 -2.996094 C 2.027344 -3.03125 1.925781 -3.050781 1.8125 -3.050781 C 1.558594 -3.050781 1.34375 -2.917969 1.171875 -2.65625 C 1 -2.394531 0.914062 -2.03125 0.914062 -1.570312 C 0.914062 -1.390625 0.929688 -1.226562 0.964844 -1.078125 C 1 -0.929688 1.054688 -0.792969 1.140625 -0.664062 C 1.21875 -0.542969 1.316406 -0.445312 1.433594 -0.371094 C 1.554688 -0.300781 1.703125 -0.265625 1.886719 -0.265625 C 2.042969 -0.265625 2.175781 -0.296875 2.285156 -0.363281 C 2.394531 -0.429688 2.492188 -0.507812 2.570312 -0.59375 Z "/>
</g>
<g id="glyph-1-8">
<path d="M 4.203125 -1.359375 L 4.113281 0 L 0.28125 0 L 0.28125 -0.230469 C 0.34375 -0.234375 0.433594 -0.246094 0.539062 -0.257812 C 0.648438 -0.273438 0.71875 -0.289062 0.75 -0.304688 C 0.820312 -0.335938 0.871094 -0.378906 0.898438 -0.429688 C 0.925781 -0.480469 0.9375 -0.546875 0.9375 -0.628906 L 0.9375 -3.949219 C 0.9375 -4.019531 0.925781 -4.082031 0.902344 -4.140625 C 0.878906 -4.195312 0.828125 -4.238281 0.75 -4.273438 C 0.691406 -4.300781 0.613281 -4.328125 0.515625 -4.347656 C 0.417969 -4.371094 0.339844 -4.382812 0.28125 -4.386719 L 0.28125 -4.617188 L 3.855469 -4.617188 L 3.855469 -3.503906 L 3.609375 -3.503906 C 3.566406 -3.671875 3.472656 -3.847656 3.328125 -4.03125 C 3.183594 -4.21875 3.046875 -4.320312 2.917969 -4.335938 C 2.847656 -4.34375 2.769531 -4.351562 2.675781 -4.355469 C 2.582031 -4.359375 2.476562 -4.363281 2.355469 -4.363281 L 1.628906 -4.363281 L 1.628906 -2.527344 L 2.152344 -2.527344 C 2.320312 -2.527344 2.441406 -2.542969 2.519531 -2.574219 C 2.59375 -2.605469 2.664062 -2.65625 2.722656 -2.730469 C 2.769531 -2.792969 2.808594 -2.878906 2.84375 -2.984375 C 2.878906 -3.089844 2.898438 -3.1875 2.910156 -3.28125 L 3.152344 -3.28125 L 3.152344 -1.472656 L 2.910156 -1.472656 C 2.902344 -1.574219 2.878906 -1.6875 2.839844 -1.800781 C 2.800781 -1.917969 2.761719 -2 2.722656 -2.054688 C 2.652344 -2.140625 2.578125 -2.195312 2.492188 -2.21875 C 2.40625 -2.246094 2.292969 -2.257812 2.152344 -2.257812 L 1.628906 -2.257812 L 1.628906 -0.875 C 1.628906 -0.734375 1.640625 -0.625 1.660156 -0.546875 C 1.679688 -0.464844 1.71875 -0.40625 1.773438 -0.363281 C 1.832031 -0.324219 1.90625 -0.296875 2.003906 -0.285156 C 2.101562 -0.273438 2.242188 -0.265625 2.421875 -0.265625 C 2.492188 -0.265625 2.585938 -0.265625 2.703125 -0.265625 C 2.820312 -0.265625 2.921875 -0.269531 3 -0.28125 C 3.082031 -0.289062 3.167969 -0.304688 3.257812 -0.328125 C 3.34375 -0.351562 3.40625 -0.378906 3.445312 -0.417969 C 3.542969 -0.523438 3.648438 -0.683594 3.757812 -0.894531 C 3.867188 -1.105469 3.9375 -1.261719 3.96875 -1.359375 Z "/>
</g>
</g>
</defs>
<g fill="rgb(100%, 100%, 100%)" fill-opacity="1">
<use xlink:href="#glyph-0-0" x="30" y="26.545898"/>
<use xlink:href="#glyph-0-1" x="37" y="26.545898"/>
<use xlink:href="#glyph-0-2" x="44" y="26.545898"/>
<use xlink:href="#glyph-0-3" x="51" y="26.545898"/>
<use xlink:href="#glyph-0-4" x="58" y="26.545898"/>
<use xlink:href="#glyph-0-5" x="65" y="26.545898"/>
<use xlink:href="#glyph-0-3" x="72" y="26.545898"/>
<use xlink:href="#glyph-0-6" x="79" y="26.545898"/>
<use xlink:href="#glyph-0-7" x="86" y="26.545898"/>
</g>
<g fill="rgb(100%, 100%, 100%)" fill-opacity="1">
<use xlink:href="#glyph-1-0" x="89" y="26.112305"/>
<use xlink:href="#glyph-1-1" x="92" y="26.112305"/>
</g>
<g fill="rgb(100%, 100%, 100%)" fill-opacity="1">
<use xlink:href="#glyph-0-8" x="94" y="26.545898"/>
<use xlink:href="#glyph-0-9" x="101" y="26.545898"/>
<use xlink:href="#glyph-0-10" x="108" y="26.545898"/>
<use xlink:href="#glyph-0-11" x="115" y="26.545898"/>
<use xlink:href="#glyph-0-12" x="122" y="26.545898"/>
<use xlink:href="#glyph-0-13" x="129" y="26.545898"/>
<use xlink:href="#glyph-0-7" x="136" y="26.545898"/>
</g>
<g fill="rgb(100%, 100%, 100%)" fill-opacity="1">
<use xlink:href="#glyph-1-2" x="139" y="26.112305"/>
<use xlink:href="#glyph-1-3" x="142" y="26.112305"/>
<use xlink:href="#glyph-1-1" x="146" y="26.112305"/>
</g>
<g fill="rgb(100%, 100%, 100%)" fill-opacity="1">
<use xlink:href="#glyph-0-14" x="148" y="26.545898"/>
<use xlink:href="#glyph-0-15" x="155" y="26.545898"/>
<use xlink:href="#glyph-0-16" x="162" y="26.545898"/>
</g>
<g fill="rgb(100%, 100%, 100%)" fill-opacity="1">
<use xlink:href="#glyph-1-1" x="169" y="26.112305"/>
<use xlink:href="#glyph-1-4" x="171" y="26.112305"/>
</g>
<g fill="rgb(100%, 100%, 100%)" fill-opacity="1">
<use xlink:href="#glyph-1-5" x="175" y="26.112305"/>
<use xlink:href="#glyph-1-6" x="181" y="26.112305"/>
<use xlink:href="#glyph-1-1" x="185" y="26.112305"/>
</g>
<g fill="rgb(100%, 100%, 100%)" fill-opacity="1">
<use xlink:href="#glyph-0-17" x="187" y="26.545898"/>
<use xlink:href="#glyph-0-18" x="194" y="26.545898"/>
<use xlink:href="#glyph-0-7" x="201" y="26.545898"/>
</g>
<g fill="rgb(100%, 100%, 100%)" fill-opacity="1">
<use xlink:href="#glyph-1-7" x="204" y="26.112305"/>
<use xlink:href="#glyph-1-8" x="208" y="26.112305"/>
</g>
<g fill="rgb(100%, 100%, 100%)" fill-opacity="1">
<use xlink:href="#glyph-0-19" x="212" y="26.545898"/>
</g>
<g fill="rgb(100%, 100%, 100%)" fill-opacity="1">
<use xlink:href="#glyph-1-3" x="219" y="26.112305"/>
</g>
<g fill="rgb(100%, 100%, 100%)" fill-opacity="1">
<use xlink:href="#glyph-0-20" x="223" y="26.545898"/>
</g>
</svg>
