<?xml version="1.0" encoding="UTF-8"?>
<svg xmlns="http://www.w3.org/2000/svg" xmlns:xlink="http://www.w3.org/1999/xlink" width="854" height="480" viewBox="0 0 854 480">
<defs>
<g>
<g id="glyph-0-0">
<path d="M 2.03125 -4.453125 C 2.308594 -4.3125 2.46875 -4.195312 2.511719 -4.101562 C 2.554688 -4.007812 2.578125 -3.941406 2.578125 -3.90625 C 2.578125 -3.820312 2.542969 -3.746094 2.472656 -3.683594 C 2.40625 -3.625 2.351562 -3.59375 2.316406 -3.59375 C 2.265625 -3.59375 2.238281 -3.621094 2.238281 -3.671875 C 2.222656 -3.777344 2.1875 -3.894531 2.136719 -4.023438 C 2.082031 -4.152344 1.996094 -4.296875 1.875 -4.453125 L 1.5625 -4.453125 C 1.421875 -4.3125 1.273438 -4.167969 1.105469 -4.011719 C 0.941406 -3.855469 0.738281 -3.699219 0.496094 -3.542969 L 0.441406 -3.644531 C 0.6875 -3.871094 0.921875 -4.144531 1.144531 -4.464844 C 1.371094 -4.789062 1.535156 -5.113281 1.640625 -5.441406 L 2.160156 -5.105469 C 2.058594 -5.050781 1.890625 -4.886719 1.667969 -4.609375 L 2.785156 -4.609375 L 3.097656 -4.921875 L 3.542969 -4.453125 L 2.03125 -4.453125 M 4.113281 -5.417969 L 4.636719 -5.078125 C 4.515625 -5.042969 4.347656 -4.886719 4.140625 -4.609375 L 5.46875 -4.609375 L 5.78125 -4.921875 L 6.222656 -4.453125 L 4.558594 -4.453125 C 4.78125 -4.332031 4.925781 -4.230469 4.988281 -4.152344 C 5.046875 -4.074219 5.078125 -4.011719 5.078125 -3.957031 C 5.078125 -3.871094 5.042969 -3.789062 4.972656 -3.710938 C 4.90625 -3.632812 4.859375 -3.59375 4.84375 -3.59375 C 4.808594 -3.59375 4.773438 -3.640625 4.738281 -3.738281 C 4.703125 -3.832031 4.671875 -3.933594 4.636719 -4.035156 C 4.601562 -4.140625 4.523438 -4.28125 4.402344 -4.453125 L 4.035156 -4.453125 C 3.898438 -4.296875 3.777344 -4.164062 3.671875 -4.050781 C 3.566406 -3.9375 3.394531 -3.785156 3.152344 -3.59375 L 3.074219 -3.671875 C 3.402344 -4.035156 3.636719 -4.359375 3.777344 -4.636719 C 3.914062 -4.914062 4.027344 -5.171875 4.113281 -5.417969 M 1.171875 -1.613281 C 1.277344 -1.925781 1.371094 -2.308594 1.457031 -2.761719 L 1.847656 -2.5 L 3.253906 -2.5 L 3.253906 -3.28125 L 1.824219 -3.28125 C 1.683594 -3.28125 1.519531 -3.253906 1.328125 -3.203125 L 1.09375 -3.4375 L 4.972656 -3.4375 L 5.234375 -3.699219 L 5.597656 -3.332031 L 5.390625 -3.203125 C 5.390625 -2.699219 5.398438 -2.371094 5.417969 -2.214844 L 5.050781 -2.058594 L 5.050781 -2.34375 L 3.59375 -2.34375 L 3.59375 -1.535156 L 5.496094 -1.535156 L 5.753906 -1.796875 L 6.121094 -1.433594 L 5.886719 -1.277344 C 5.816406 -0.84375 5.765625 -0.550781 5.730469 -0.402344 C 5.695312 -0.257812 5.648438 -0.144531 5.585938 -0.0664062 C 5.523438 0.0117188 5.453125 0.0742188 5.363281 0.117188 C 5.277344 0.160156 5.15625 0.199219 5 0.234375 C 5 0.0078125 4.773438 -0.199219 4.324219 -0.390625 L 4.324219 -0.496094 C 4.773438 -0.375 5.046875 -0.316406 5.144531 -0.324219 C 5.238281 -0.335938 5.308594 -0.386719 5.351562 -0.480469 C 5.394531 -0.578125 5.453125 -0.875 5.519531 -1.378906 L 3.59375 -1.378906 L 3.59375 -0.105469 C 3.59375 0.105469 3.601562 0.320312 3.621094 0.546875 L 3.230469 0.675781 C 3.246094 0.347656 3.253906 -0.0507812 3.253906 -0.519531 L 3.253906 -1.355469 C 2.890625 -0.867188 2.457031 -0.476562 1.953125 -0.183594 C 1.449219 0.113281 0.894531 0.355469 0.285156 0.546875 L 0.261719 0.417969 C 0.730469 0.242188 1.195312 0.0078125 1.652344 -0.285156 C 2.113281 -0.582031 2.5 -0.945312 2.8125 -1.378906 L 1.511719 -1.378906 L 1.328125 -1.144531 L 0.9375 -1.457031 L 1.171875 -1.613281 M 3.59375 -3.28125 L 3.59375 -2.5 L 5.050781 -2.5 L 5.050781 -3.28125 L 3.59375 -3.28125 M 1.769531 -2.34375 C 1.703125 -2.152344 1.625 -1.882812 1.535156 -1.535156 L 3.253906 -1.535156 L 3.253906 -2.34375 Z "/>
</g>
<g id="glyph-0-1">
<path d="M 6.144531 -4.921875 L 6.144531 -4.792969 C 5.851562 -4.792969 5.6875 -4.695312 5.652344 -4.503906 L 4.453125 0.105469 L 4.011719 0.105469 L 2.707031 -4.609375 C 2.671875 -4.75 2.507812 -4.808594 2.214844 -4.792969 L 2.214844 -4.921875 L 3.699219 -4.921875 L 3.699219 -4.792969 C 3.296875 -4.808594 3.140625 -4.722656 3.230469 -4.53125 L 4.375 -0.261719 L 5.441406 -4.480469 C 5.496094 -4.703125 5.355469 -4.808594 5.027344 -4.792969 L 5.027344 -4.921875 L 6.144531 -4.921875 M 2.1875 -4.792969 C 1.839844 -4.792969 1.675781 -4.695312 1.691406 -4.503906 L 1.691406 -0.3125 C 1.675781 -0.105469 1.902344 -0.0078125 2.371094 -0.0273438 L 2.371094 0.105469 L 0.519531 0.105469 L 0.519531 -0.0273438 C 0.972656 -0.0273438 1.1875 -0.121094 1.171875 -0.3125 L 1.171875 -4.503906 C 1.1875 -4.714844 1.015625 -4.808594 0.652344 -4.792969 L 0.652344 -4.921875 L 2.1875 -4.921875 Z "/>
</g>
<g id="glyph-0-2">
<path d="M 4.269531 -1.796875 C 4.132812 -1.746094 4.011719 -1.691406 3.90625 -1.640625 C 4.078125 -1.1875 4.148438 -0.804688 4.113281 -0.480469 C 4.078125 -0.160156 3.992188 0.0898438 3.855469 0.273438 C 3.714844 0.457031 3.488281 0.589844 3.175781 0.675781 C 3.140625 0.417969 2.882812 0.226562 2.394531 0.105469 L 2.394531 0 C 2.984375 0.0703125 3.332031 0.0859375 3.4375 0.0507812 C 3.542969 0.015625 3.617188 -0.0664062 3.660156 -0.195312 C 3.703125 -0.324219 3.722656 -0.492188 3.722656 -0.691406 C 3.722656 -0.890625 3.714844 -1.050781 3.699219 -1.171875 C 2.8125 -0.339844 1.753906 0.191406 0.519531 0.417969 L 0.519531 0.3125 C 1.839844 -0.0859375 2.863281 -0.695312 3.59375 -1.511719 C 3.523438 -1.703125 3.464844 -1.832031 3.410156 -1.902344 C 2.648438 -1.207031 1.78125 -0.753906 0.808594 -0.546875 L 0.78125 -0.625 C 1.824219 -1.023438 2.648438 -1.546875 3.253906 -2.1875 C 3.203125 -2.308594 3.132812 -2.421875 3.046875 -2.527344 C 2.628906 -2.074219 1.925781 -1.683594 0.9375 -1.355469 L 0.910156 -1.433594 C 1.953125 -1.9375 2.613281 -2.40625 2.890625 -2.839844 L 1.746094 -2.839844 L 1.746094 -2.628906 L 1.378906 -2.5 C 1.398438 -2.953125 1.40625 -3.421875 1.40625 -3.90625 C 1.164062 -3.75 0.875 -3.59375 0.546875 -3.4375 L 0.496094 -3.515625 C 0.894531 -3.777344 1.289062 -4.101562 1.679688 -4.492188 C 2.070312 -4.882812 2.335938 -5.21875 2.472656 -5.496094 L 2.96875 -5.128906 C 2.828125 -5.09375 2.671875 -4.992188 2.5 -4.816406 L 3.984375 -4.816406 L 4.21875 -5.078125 L 4.714844 -4.636719 C 4.609375 -4.652344 4.480469 -4.617188 4.324219 -4.53125 C 4.167969 -4.445312 3.921875 -4.253906 3.59375 -3.957031 L 4.972656 -3.957031 L 5.183594 -4.21875 L 5.597656 -3.878906 L 5.390625 -3.722656 C 5.390625 -3.359375 5.398438 -3.054688 5.417969 -2.8125 L 5.027344 -2.683594 L 5.027344 -2.839844 L 3.332031 -2.839844 C 3.265625 -2.75 3.210938 -2.683594 3.175781 -2.628906 C 3.453125 -2.316406 3.671875 -2.03125 3.828125 -1.769531 C 4.15625 -1.945312 4.449219 -2.113281 4.699219 -2.277344 C 4.953125 -2.445312 5.121094 -2.578125 5.207031 -2.683594 L 5.574219 -2.238281 C 5.382812 -2.238281 4.984375 -2.109375 4.375 -1.847656 C 4.582031 -1.414062 4.859375 -1.066406 5.207031 -0.808594 C 5.554688 -0.546875 5.945312 -0.363281 6.378906 -0.261719 L 6.378906 -0.183594 C 6.101562 -0.148438 5.929688 -0.0351562 5.859375 0.15625 C 5.390625 -0.105469 5.039062 -0.394531 4.804688 -0.714844 C 4.570312 -1.039062 4.390625 -1.398438 4.269531 -1.796875 M 3.410156 -3.957031 L 3.984375 -4.660156 L 2.371094 -4.660156 C 2.125 -4.46875 1.890625 -4.28125 1.667969 -4.089844 L 1.796875 -3.957031 L 3.410156 -3.957031 M 1.746094 -3.800781 L 1.746094 -2.996094 L 2.96875 -2.996094 C 3.074219 -3.273438 3.152344 -3.542969 3.203125 -3.800781 L 1.746094 -3.800781 M 3.59375 -3.800781 C 3.542969 -3.578125 3.472656 -3.308594 3.386719 -2.996094 L 5.027344 -2.996094 L 5.027344 -3.800781 Z "/>
</g>
<g id="glyph-0-3">
<path d="M 3.308594 -3.644531 L 3.308594 -2.65625 L 5.128906 -2.65625 L 5.128906 -3.644531 L 3.308594 -3.644531 M 2.863281 0.128906 C 2.933594 0.0273438 2.96875 -0.09375 2.96875 -0.234375 C 2.96875 -3.289062 2.960938 -4.9375 2.941406 -5.183594 L 3.308594 -4.949219 L 5.105469 -4.949219 L 5.3125 -5.234375 L 5.730469 -4.871094 L 5.496094 -4.714844 C 5.496094 -3.636719 5.503906 -2.882812 5.519531 -2.449219 L 5.128906 -2.265625 L 5.128906 -2.5 L 3.984375 -2.5 C 4.070312 -2.101562 4.234375 -1.683594 4.480469 -1.25 C 4.929688 -1.578125 5.304688 -1.9375 5.597656 -2.316406 L 6.015625 -1.847656 C 5.773438 -1.847656 5.285156 -1.605469 4.558594 -1.121094 C 4.871094 -0.71875 5.195312 -0.445312 5.535156 -0.300781 C 5.871094 -0.152344 6.128906 -0.0703125 6.300781 -0.0507812 L 6.300781 0.0507812 C 6.058594 0.0703125 5.875 0.191406 5.753906 0.417969 C 5.339844 0.207031 4.945312 -0.128906 4.570312 -0.597656 C 4.195312 -1.066406 3.949219 -1.703125 3.828125 -2.5 L 3.308594 -2.5 L 3.308594 -0.128906 L 4.296875 -0.597656 L 4.347656 -0.519531 C 3.792969 -0.171875 3.410156 0.183594 3.203125 0.546875 L 2.863281 0.128906 M 1.589844 -3.203125 L 2.003906 -4.816406 L 1.09375 -4.816406 L 1.09375 -0.753906 C 1.09375 -0.285156 1.101562 0.128906 1.121094 0.496094 L 0.730469 0.652344 C 0.746094 0.21875 0.753906 -0.785156 0.753906 -2.355469 C 0.753906 -3.929688 0.746094 -4.871094 0.730469 -5.183594 L 1.121094 -4.972656 L 2.003906 -4.972656 L 2.238281 -5.207031 L 2.578125 -4.871094 L 2.371094 -4.738281 L 1.71875 -3.203125 C 1.960938 -2.941406 2.148438 -2.703125 2.277344 -2.488281 C 2.410156 -2.269531 2.488281 -2.03125 2.511719 -1.769531 C 2.539062 -1.511719 2.5 -1.289062 2.394531 -1.105469 C 2.292969 -0.925781 2.074219 -0.789062 1.746094 -0.703125 C 1.761719 -0.910156 1.578125 -1.09375 1.199219 -1.25 L 1.199219 -1.355469 C 1.457031 -1.300781 1.640625 -1.277344 1.746094 -1.277344 C 1.917969 -1.277344 2.03125 -1.316406 2.082031 -1.394531 C 2.136719 -1.472656 2.160156 -1.578125 2.160156 -1.71875 C 2.160156 -1.839844 2.144531 -2.003906 2.109375 -2.214844 C 2.074219 -2.421875 1.902344 -2.75 1.589844 -3.203125 M 3.308594 -4.792969 L 3.308594 -3.800781 L 5.128906 -3.800781 L 5.128906 -4.792969 Z "/>
</g>
<g id="glyph-0-4">
<path d="M 5.730469 -3.359375 C 5.816406 -3.410156 5.894531 -3.4375 5.964844 -3.4375 C 6.015625 -3.4375 6.078125 -3.40625 6.144531 -3.347656 C 6.214844 -3.285156 6.25 -3.214844 6.25 -3.136719 C 6.25 -3.058594 5.910156 -3.03125 5.234375 -3.046875 C 4.835938 -3.03125 4.644531 -3.1875 4.660156 -3.515625 L 4.660156 -4.792969 L 3.488281 -4.792969 C 3.507812 -4.304688 3.46875 -3.917969 3.371094 -3.632812 C 3.277344 -3.347656 3.125 -3.101562 2.917969 -2.902344 C 2.707031 -2.703125 2.449219 -2.535156 2.136719 -2.394531 L 2.082031 -2.472656 C 2.378906 -2.664062 2.617188 -2.894531 2.800781 -3.164062 C 2.980469 -3.433594 3.082031 -3.78125 3.097656 -4.207031 C 3.117188 -4.632812 3.117188 -4.957031 3.097656 -5.183594 L 3.488281 -4.949219 L 4.636719 -4.949219 L 4.84375 -5.183594 L 5.207031 -4.871094 L 5 -4.714844 L 5 -3.566406 C 5.015625 -3.429688 5.105469 -3.359375 5.261719 -3.359375 L 5.730469 -3.359375 M 5.3125 -2.292969 C 5.015625 -1.632812 4.695312 -1.085938 4.347656 -0.652344 C 4.558594 -0.460938 4.835938 -0.285156 5.183594 -0.128906 C 5.53125 0.0273438 5.921875 0.113281 6.355469 0.128906 L 6.355469 0.234375 C 6.023438 0.285156 5.832031 0.40625 5.78125 0.597656 C 5.261719 0.460938 4.703125 0.113281 4.113281 -0.441406 C 3.714844 -0.128906 3.316406 0.113281 2.917969 0.285156 C 2.515625 0.460938 2.074219 0.582031 1.589844 0.652344 L 1.5625 0.574219 C 2.03125 0.433594 2.449219 0.273438 2.8125 0.0898438 C 3.175781 -0.0898438 3.53125 -0.347656 3.878906 -0.675781 C 3.550781 -1.144531 3.296875 -1.726562 3.125 -2.421875 L 2.863281 -2.34375 L 2.628906 -2.578125 L 4.894531 -2.578125 L 5.15625 -2.839844 L 5.574219 -2.394531 L 5.3125 -2.292969 M 3.253906 -2.421875 C 3.480469 -1.746094 3.757812 -1.234375 4.089844 -0.886719 C 4.4375 -1.320312 4.722656 -1.832031 4.949219 -2.421875 L 3.253906 -2.421875 M 2.5 -4.269531 C 1.875 -2.359375 1.550781 -1.316406 1.523438 -1.132812 C 1.496094 -0.949219 1.480469 -0.703125 1.472656 -0.390625 C 1.460938 -0.078125 1.457031 0.148438 1.457031 0.285156 C 1.457031 0.355469 1.433594 0.390625 1.378906 0.390625 C 1.328125 0.390625 1.242188 0.359375 1.121094 0.300781 C 1 0.238281 0.9375 0.140625 0.9375 0 C 0.9375 -0.121094 0.953125 -0.234375 0.988281 -0.339844 C 1.042969 -0.496094 1.066406 -0.632812 1.066406 -0.753906 C 1.066406 -0.84375 1.03125 -0.925781 0.964844 -1.003906 C 0.894531 -1.082031 0.71875 -1.15625 0.441406 -1.222656 L 0.441406 -1.328125 C 0.773438 -1.292969 0.972656 -1.28125 1.042969 -1.289062 C 1.109375 -1.296875 1.199219 -1.375 1.300781 -1.523438 C 1.40625 -1.671875 1.769531 -2.59375 2.394531 -4.296875 L 2.5 -4.269531 M 0.417969 -3.800781 C 1.007812 -3.542969 1.304688 -3.324219 1.316406 -3.152344 C 1.324219 -2.976562 1.292969 -2.851562 1.222656 -2.773438 C 1.15625 -2.695312 1.109375 -2.65625 1.09375 -2.65625 C 1.042969 -2.65625 0.980469 -2.742188 0.910156 -2.917969 C 0.824219 -3.140625 0.640625 -3.410156 0.363281 -3.722656 L 0.417969 -3.800781 M 1.09375 -5.207031 C 1.578125 -4.984375 1.839844 -4.828125 1.875 -4.738281 C 1.910156 -4.652344 1.925781 -4.582031 1.925781 -4.53125 C 1.925781 -4.445312 1.898438 -4.347656 1.835938 -4.246094 C 1.773438 -4.140625 1.726562 -4.089844 1.691406 -4.089844 C 1.640625 -4.089844 1.597656 -4.15625 1.5625 -4.296875 C 1.476562 -4.523438 1.300781 -4.800781 1.042969 -5.128906 Z "/>
</g>
<g id="glyph-0-5">
<path d="M 2.316406 -3.152344 L 2.316406 -2.238281 L 4.714844 -2.238281 L 4.714844 -3.152344 L 2.316406 -3.152344 M 2.316406 -2.082031 L 2.316406 -1.222656 L 4.714844 -1.222656 L 4.714844 -2.082031 L 2.316406 -2.082031 M 3.800781 0 C 4.097656 0.0507812 4.324219 0.078125 4.480469 0.078125 C 4.636719 0.078125 4.714844 0 4.714844 -0.15625 L 4.714844 -1.066406 L 2.316406 -1.066406 L 2.316406 0.417969 L 1.925781 0.652344 C 1.945312 0.355469 1.953125 -0.773438 1.953125 -2.734375 C 1.46875 -2.214844 0.9375 -1.78125 0.363281 -1.433594 L 0.285156 -1.511719 C 0.773438 -1.890625 1.195312 -2.289062 1.550781 -2.695312 C 1.90625 -3.101562 2.25 -3.621094 2.578125 -4.246094 L 1.144531 -4.246094 C 0.921875 -4.246094 0.710938 -4.21875 0.519531 -4.167969 L 0.285156 -4.402344 L 2.628906 -4.402344 C 2.820312 -4.835938 2.941406 -5.191406 2.996094 -5.46875 L 3.644531 -5.105469 L 3.386719 -5 C 3.265625 -4.757812 3.160156 -4.558594 3.074219 -4.402344 L 5.285156 -4.402344 L 5.730469 -4.84375 L 6.328125 -4.246094 L 3.019531 -4.246094 C 2.828125 -3.898438 2.628906 -3.585938 2.421875 -3.308594 L 4.660156 -3.308594 L 4.871094 -3.566406 L 5.3125 -3.230469 L 5.078125 -3.046875 L 5.078125 0.0273438 C 5.078125 0.304688 4.886719 0.511719 4.503906 0.652344 C 4.523438 0.441406 4.289062 0.269531 3.800781 0.128906 Z "/>
</g>
<g id="glyph-0-6">
<path d="M 2.996094 -4.0625 C 2.996094 -4.566406 2.984375 -5.027344 2.96875 -5.441406 L 3.566406 -5.15625 L 3.359375 -4.972656 L 3.359375 -4.0625 L 4.949219 -4.0625 L 5.207031 -4.324219 L 5.574219 -3.957031 L 5.339844 -3.777344 C 5.339844 -2.386719 5.347656 -1.519531 5.363281 -1.171875 L 4.972656 -0.988281 L 4.972656 -1.300781 L 3.359375 -1.300781 L 3.359375 -0.128906 C 3.359375 0.0625 3.464844 0.15625 3.671875 0.15625 L 5.46875 0.15625 C 5.625 0.140625 5.710938 0.046875 5.730469 -0.117188 C 5.746094 -0.28125 5.765625 -0.617188 5.78125 -1.121094 L 5.910156 -1.121094 C 5.910156 -0.6875 5.941406 -0.398438 6.003906 -0.261719 C 6.0625 -0.121094 6.15625 -0.0078125 6.277344 0.078125 C 6.207031 0.21875 6.121094 0.316406 6.015625 0.378906 C 5.910156 0.4375 5.765625 0.46875 5.574219 0.46875 L 3.542969 0.46875 C 3.175781 0.46875 2.996094 0.296875 2.996094 -0.0507812 L 2.996094 -1.300781 L 1.433594 -1.300781 L 1.433594 -0.9375 L 1.042969 -0.753906 C 1.058594 -1.34375 1.066406 -1.953125 1.066406 -2.578125 C 1.066406 -3.203125 1.058594 -3.777344 1.042969 -4.296875 L 1.457031 -4.0625 L 2.996094 -4.0625 M 1.433594 -3.90625 L 1.433594 -2.785156 L 2.996094 -2.785156 L 2.996094 -3.90625 L 1.433594 -3.90625 M 3.359375 -3.90625 L 3.359375 -2.785156 L 4.972656 -2.785156 L 4.972656 -3.90625 L 3.359375 -3.90625 M 1.433594 -2.628906 L 1.433594 -1.457031 L 2.996094 -1.457031 L 2.996094 -2.628906 L 1.433594 -2.628906 M 3.359375 -2.628906 L 3.359375 -1.457031 L 4.972656 -1.457031 L 4.972656 -2.628906 Z "/>
</g>
<g id="glyph-0-7">
<path d="M 5.597656 -2.890625 L 5.859375 -3.152344 L 6.25 -2.761719 L 6.015625 -2.605469 C 5.945312 -1.40625 5.875 -0.640625 5.808594 -0.3125 C 5.738281 0.015625 5.621094 0.246094 5.457031 0.378906 C 5.289062 0.507812 5.128906 0.597656 4.972656 0.652344 C 4.90625 0.375 4.625 0.15625 4.140625 0 L 4.167969 -0.105469 C 4.480469 -0.0351562 4.753906 0.0117188 4.988281 0.0390625 C 5.222656 0.0664062 5.375 -0.105469 5.441406 -0.46875 C 5.511719 -0.832031 5.582031 -1.589844 5.652344 -2.734375 L 5.105469 -2.734375 C 4.894531 -1.761719 4.53125 -1.023438 4.011719 -0.519531 C 3.488281 -0.015625 2.855469 0.355469 2.109375 0.597656 L 2.082031 0.496094 C 2.777344 0.183594 3.347656 -0.234375 3.789062 -0.753906 C 4.230469 -1.277344 4.53125 -1.9375 4.6875 -2.734375 L 4.113281 -2.734375 C 3.976562 -2.28125 3.765625 -1.851562 3.488281 -1.445312 C 3.210938 -1.039062 2.734375 -0.660156 2.058594 -0.3125 L 2.003906 -0.417969 C 2.421875 -0.675781 2.777344 -1.007812 3.074219 -1.40625 C 3.367188 -1.804688 3.578125 -2.25 3.699219 -2.734375 L 3.097656 -2.734375 L 2.863281 -2.578125 L 2.578125 -2.941406 L 2.863281 -3.046875 C 3.542969 -3.621094 4.167969 -4.210938 4.738281 -4.816406 L 3.097656 -4.816406 L 2.8125 -4.765625 L 2.605469 -4.972656 L 4.738281 -4.972656 L 5 -5.234375 L 5.417969 -4.871094 L 5.15625 -4.738281 C 4.480469 -4.046875 3.8125 -3.429688 3.152344 -2.890625 L 5.597656 -2.890625 M 1.746094 -1.300781 L 2.839844 -1.796875 L 2.863281 -1.691406 C 1.597656 -0.980469 0.832031 -0.503906 0.574219 -0.261719 L 0.234375 -0.730469 C 0.511719 -0.816406 0.886719 -0.953125 1.355469 -1.144531 L 1.355469 -3.386719 L 1.144531 -3.386719 C 0.921875 -3.386719 0.710938 -3.359375 0.519531 -3.308594 L 0.285156 -3.542969 L 1.355469 -3.542969 L 1.355469 -4.402344 C 1.355469 -4.695312 1.34375 -5.027344 1.328125 -5.390625 L 1.980469 -5.078125 L 1.746094 -4.84375 L 1.746094 -3.542969 L 2.136719 -3.542969 L 2.421875 -3.828125 L 2.863281 -3.386719 L 1.746094 -3.386719 Z "/>
</g>
<g id="glyph-0-8">
<path d="M 2.34375 -2.578125 C 2.34375 -0.980469 2.351562 0 2.371094 0.363281 L 1.953125 0.574219 C 1.96875 0.0507812 1.980469 -1 1.980469 -2.578125 C 1.769531 -2.179688 1.527344 -1.808594 1.25 -1.472656 C 0.972656 -1.132812 0.667969 -0.832031 0.339844 -0.574219 L 0.285156 -0.652344 C 0.6875 -1.085938 1.015625 -1.53125 1.277344 -1.992188 C 1.535156 -2.453125 1.726562 -2.882812 1.847656 -3.28125 L 0.964844 -3.28125 L 0.730469 -3.230469 L 0.519531 -3.4375 L 1.980469 -3.4375 L 1.980469 -4.609375 C 1.734375 -4.574219 1.292969 -4.53125 0.652344 -4.480469 L 0.652344 -4.582031 C 1.242188 -4.671875 1.726562 -4.769531 2.109375 -4.882812 C 2.492188 -4.996094 2.820312 -5.140625 3.097656 -5.3125 L 3.464844 -4.84375 C 2.996094 -4.792969 2.621094 -4.730469 2.34375 -4.660156 L 2.34375 -3.4375 L 2.96875 -3.4375 L 3.253906 -3.722656 L 3.671875 -3.28125 L 2.34375 -3.28125 L 2.34375 -2.707031 C 3.003906 -2.5 3.359375 -2.332031 3.410156 -2.199219 C 3.464844 -2.070312 3.488281 -1.96875 3.488281 -1.902344 C 3.488281 -1.8125 3.472656 -1.742188 3.4375 -1.679688 C 3.402344 -1.617188 3.375 -1.589844 3.359375 -1.589844 C 3.308594 -1.589844 3.246094 -1.648438 3.175781 -1.769531 C 3.074219 -1.945312 2.796875 -2.214844 2.34375 -2.578125 M 5.910156 -4.191406 C 5.910156 -2.230469 5.921875 -1 5.9375 -0.496094 L 5.546875 -0.339844 L 5.546875 -0.886719 L 4.21875 -0.886719 L 4.21875 -0.285156 L 3.828125 -0.105469 C 3.84375 -0.867188 3.855469 -1.679688 3.855469 -2.539062 C 3.855469 -3.398438 3.84375 -4.125 3.828125 -4.714844 L 4.21875 -4.453125 L 5.496094 -4.453125 L 5.753906 -4.714844 L 6.121094 -4.347656 L 5.910156 -4.191406 M 4.21875 -4.296875 L 4.21875 -1.042969 L 5.546875 -1.042969 L 5.546875 -4.296875 Z "/>
</g>
<g id="glyph-0-9">
<path d="M 2.449219 -4.0625 L 4.714844 -4.0625 C 4.921875 -4.773438 5.035156 -5.234375 5.050781 -5.441406 L 5.574219 -5.15625 C 5.453125 -5.105469 5.199219 -4.738281 4.816406 -4.0625 L 5.625 -4.0625 L 5.9375 -4.375 L 6.378906 -3.90625 L 3.308594 -3.90625 C 3.082031 -3.90625 2.875 -3.878906 2.683594 -3.828125 L 2.449219 -4.0625 M 3.253906 -5.3125 C 3.65625 -5.050781 3.867188 -4.878906 3.894531 -4.792969 C 3.917969 -4.703125 3.933594 -4.636719 3.933594 -4.582031 C 3.933594 -4.480469 3.902344 -4.390625 3.839844 -4.324219 C 3.78125 -4.253906 3.742188 -4.21875 3.722656 -4.21875 C 3.65625 -4.21875 3.601562 -4.3125 3.566406 -4.503906 C 3.5 -4.78125 3.386719 -5.027344 3.230469 -5.234375 L 3.253906 -5.3125 M 2.394531 -0.0507812 C 2.585938 -0.015625 2.941406 -0.597656 3.464844 -1.796875 C 3.03125 -1.675781 2.734375 -1.535156 2.578125 -1.378906 L 2.34375 -1.824219 C 2.515625 -1.839844 2.707031 -2.136719 2.917969 -2.707031 C 3.125 -3.28125 3.230469 -3.664062 3.230469 -3.855469 L 3.722656 -3.59375 C 3.621094 -3.507812 3.480469 -3.265625 3.308594 -2.863281 C 3.117188 -2.464844 2.917969 -2.125 2.707031 -1.847656 L 3.488281 -1.902344 C 3.644531 -2.351562 3.785156 -2.777344 3.90625 -3.175781 L 4.375 -2.863281 L 4.167969 -2.707031 C 3.558594 -1.355469 3.109375 -0.496094 2.8125 -0.128906 L 3.90625 -0.261719 C 3.835938 -0.484375 3.742188 -0.730469 3.621094 -0.988281 L 3.699219 -1.042969 C 3.941406 -0.78125 4.105469 -0.570312 4.191406 -0.402344 C 4.28125 -0.238281 4.324219 -0.113281 4.324219 -0.0273438 C 4.324219 0.078125 4.289062 0.167969 4.21875 0.246094 C 4.148438 0.324219 4.097656 0.363281 4.0625 0.363281 C 4.027344 0.363281 4 0.3125 3.984375 0.207031 C 3.96875 0.0351562 3.949219 -0.0859375 3.933594 -0.15625 C 3.253906 0.0507812 2.839844 0.242188 2.683594 0.417969 L 2.394531 -0.0507812 M 4.738281 -0.105469 L 5.832031 -0.207031 C 5.730469 -0.519531 5.617188 -0.765625 5.496094 -0.9375 L 5.546875 -1.015625 C 5.910156 -0.632812 6.128906 -0.367188 6.199219 -0.222656 C 6.265625 -0.0742188 6.300781 0.0351562 6.300781 0.105469 C 6.300781 0.15625 6.273438 0.230469 6.210938 0.324219 C 6.148438 0.421875 6.09375 0.46875 6.042969 0.46875 C 5.988281 0.46875 5.953125 0.417969 5.9375 0.3125 C 5.921875 0.207031 5.894531 0.0703125 5.859375 -0.105469 C 5.234375 0.0703125 4.835938 0.234375 4.660156 0.390625 L 4.425781 -0.078125 C 4.566406 -0.113281 4.738281 -0.398438 4.949219 -0.9375 C 5.15625 -1.457031 5.277344 -1.761719 5.3125 -1.847656 C 4.878906 -1.746094 4.59375 -1.625 4.453125 -1.484375 L 4.21875 -1.902344 C 4.339844 -1.917969 4.488281 -2.183594 4.660156 -2.695312 C 4.835938 -3.207031 4.9375 -3.601562 4.972656 -3.878906 L 5.46875 -3.621094 C 5.347656 -3.515625 5.199219 -3.289062 5.027344 -2.941406 C 4.851562 -2.578125 4.6875 -2.238281 4.53125 -1.925781 L 5.339844 -1.953125 C 5.425781 -2.195312 5.492188 -2.40625 5.535156 -2.578125 C 5.578125 -2.75 5.609375 -2.90625 5.625 -3.046875 L 6.144531 -2.734375 L 5.9375 -2.578125 C 5.398438 -1.257812 5 -0.433594 4.738281 -0.105469 M 0.910156 0.441406 C 0.929688 -0.425781 0.9375 -1.285156 0.9375 -2.136719 C 0.78125 -1.859375 0.574219 -1.578125 0.3125 -1.300781 L 0.261719 -1.378906 C 0.730469 -2.125 1.078125 -3.195312 1.300781 -4.582031 L 1.222656 -4.582031 C 1 -4.582031 0.789062 -4.558594 0.597656 -4.503906 L 0.363281 -4.738281 L 2.082031 -4.738281 L 2.371094 -5.027344 L 2.785156 -4.582031 L 1.691406 -4.582031 C 1.535156 -3.835938 1.398438 -3.265625 1.277344 -2.863281 L 1.925781 -2.863281 L 2.160156 -3.097656 L 2.5 -2.761719 L 2.265625 -2.605469 C 2.265625 -1.320312 2.273438 -0.503906 2.292969 -0.15625 L 1.953125 0.0273438 L 1.953125 -0.363281 L 1.25 -0.363281 L 1.25 0.285156 L 0.910156 0.441406 M 1.25 -2.707031 L 1.25 -0.519531 L 1.953125 -0.519531 L 1.953125 -2.707031 Z "/>
</g>
<g id="glyph-0-10">
<path d="M 2.003906 -1.328125 C 2.144531 -1.277344 2.238281 -1.175781 2.292969 -1.027344 C 2.34375 -0.882812 2.371094 -0.773438 2.371094 -0.703125 C 2.371094 -0.652344 2.351562 -0.558594 2.316406 -0.429688 C 2.28125 -0.300781 2.199219 -0.191406 2.070312 -0.105469 C 1.941406 -0.015625 1.789062 0.0273438 1.613281 0.0273438 C 1.441406 0.0273438 1.285156 -0.0429688 1.144531 -0.183594 C 1.007812 -0.320312 0.933594 -0.472656 0.925781 -0.636719 C 0.914062 -0.804688 0.949219 -0.949219 1.027344 -1.082031 C 1.105469 -1.210938 1.207031 -1.296875 1.328125 -1.339844 C 1.449219 -1.382812 1.554688 -1.40625 1.640625 -1.40625 C 1.746094 -1.40625 1.867188 -1.378906 2.003906 -1.328125 M 1.980469 -0.300781 C 2.101562 -0.378906 2.15625 -0.515625 2.148438 -0.714844 C 2.140625 -0.914062 2.074219 -1.046875 1.953125 -1.105469 C 1.832031 -1.167969 1.726562 -1.199219 1.640625 -1.199219 C 1.535156 -1.199219 1.429688 -1.160156 1.316406 -1.082031 C 1.203125 -1.003906 1.144531 -0.867188 1.144531 -0.675781 C 1.144531 -0.484375 1.210938 -0.355469 1.339844 -0.285156 C 1.472656 -0.21875 1.570312 -0.183594 1.640625 -0.183594 C 1.746094 -0.183594 1.859375 -0.222656 1.980469 -0.300781 Z "/>
</g>
</g>
</defs>
<g fill="rgb(100%, 100%, 100%)" fill-opacity="1">
<use xlink:href="#glyph-0-0" x="30" y="25.728516"/>
</g>
<g fill="rgb(100%, 100%, 100%)" fill-opacity="1">
<use xlink:href="#glyph-0-1" x="37" y="25.728516"/>
</g>
<g fill="rgb(100%, 100%, 100%)" fill-opacity="1">
<use xlink:href="#glyph-0-2" x="44" y="25.728516"/>
<use xlink:href="#glyph-0-3" x="51" y="25.728516"/>
<use xlink:href="#glyph-0-4" x="58" y="25.728516"/>
<use xlink:href="#glyph-0-5" x="65" y="25.728516"/>
<use xlink:href="#glyph-0-6" x="72" y="25.728516"/>
<use xlink:href="#glyph-0-7" x="79" y="25.728516"/>
<use xlink:href="#glyph-0-8" x="86" y="25.728516"/>
<use xlink:href="#glyph-0-9" x="93" y="25.728516"/>
<use xlink:href="#glyph-0-7" x="100" y="25.728516"/>
<use xlink:href="#glyph-0-10" x="107" y="25.728516"/>
</g>
</svg>
