<?xml version="1.0" encoding="UTF-8"?>
<svg xmlns="http://www.w3.org/2000/svg" xmlns:xlink="http://www.w3.org/1999/xlink" width="854" height="480" viewBox="0 0 854 480">
<defs>
<g>
<g id="glyph-0-0">
<path d="M 3.515625 -1.796875 L 3.515625 -0.0507812 L 5.285156 -0.0507812 L 5.285156 -1.796875 L 3.515625 -1.796875 M 1.066406 0.496094 C 1.085938 0.0625 1.09375 -0.667969 1.09375 -1.691406 C 1.09375 -2.71875 1.085938 -3.480469 1.066406 -3.984375 L 1.484375 -3.777344 L 3.152344 -3.777344 C 3.152344 -4.523438 3.140625 -5.0625 3.125 -5.390625 L 3.722656 -5.128906 L 3.515625 -4.949219 L 3.515625 -3.777344 L 5.261719 -3.777344 L 5.46875 -4.0625 L 5.886719 -3.699219 L 5.652344 -3.515625 L 5.652344 -0.652344 C 5.652344 -0.148438 5.660156 0.183594 5.675781 0.339844 L 5.285156 0.496094 L 5.285156 0.105469 L 1.457031 0.105469 L 1.457031 0.390625 L 1.066406 0.496094 M 1.457031 -3.621094 L 1.457031 -1.953125 L 3.152344 -1.953125 L 3.152344 -3.621094 L 1.457031 -3.621094 M 3.515625 -3.621094 L 3.515625 -1.953125 L 5.285156 -1.953125 L 5.285156 -3.621094 L 3.515625 -3.621094 M 1.457031 -1.796875 L 1.457031 -0.0507812 L 3.152344 -0.0507812 L 3.152344 -1.796875 Z "/>
</g>
<g id="glyph-0-1">
<path d="M 2.003906 -0.207031 C 2.40625 -0.140625 2.691406 -0.105469 2.863281 -0.105469 C 3.039062 -0.105469 3.125 -0.21875 3.125 -0.441406 L 3.125 -2.734375 L 1.222656 -2.734375 C 1 -2.734375 0.789062 -2.707031 0.597656 -2.65625 L 0.363281 -2.890625 L 3.125 -2.890625 L 3.125 -4.714844 L 2.03125 -4.714844 C 1.804688 -4.714844 1.597656 -4.6875 1.40625 -4.636719 L 1.171875 -4.871094 L 4.660156 -4.871094 L 5.027344 -5.234375 L 5.546875 -4.714844 L 3.515625 -4.714844 L 3.515625 -2.890625 L 5.285156 -2.890625 L 5.703125 -3.308594 L 6.277344 -2.734375 L 3.515625 -2.734375 L 3.515625 -0.234375 C 3.53125 0.148438 3.324219 0.40625 2.890625 0.546875 C 2.890625 0.285156 2.59375 0.078125 2.003906 -0.078125 Z "/>
</g>
<g id="glyph-0-2">
<path d="M 2.96875 -4.480469 L 5.675781 -4.480469 L 5.910156 -4.738281 L 6.300781 -4.402344 L 6.066406 -4.21875 C 5.929688 -1.578125 5.792969 -0.144531 5.664062 0.0898438 C 5.535156 0.324219 5.320312 0.484375 5.027344 0.574219 C 4.921875 0.3125 4.636719 0.121094 4.167969 0 L 4.167969 -0.128906 C 4.757812 -0.0625 5.082031 -0.03125 5.144531 -0.0390625 C 5.203125 -0.046875 5.273438 -0.101562 5.351562 -0.195312 C 5.429688 -0.289062 5.546875 -1.667969 5.703125 -4.324219 L 4.269531 -4.324219 C 4.253906 -3.558594 4.195312 -2.886719 4.101562 -2.304688 C 4.007812 -1.722656 3.816406 -1.195312 3.527344 -0.714844 C 3.242188 -0.238281 2.820312 0.171875 2.265625 0.519531 L 2.214844 0.441406 C 2.699219 0.0078125 3.058594 -0.425781 3.292969 -0.859375 C 3.527344 -1.292969 3.683594 -1.800781 3.761719 -2.382812 C 3.839844 -2.964844 3.890625 -3.609375 3.90625 -4.324219 L 3.515625 -4.324219 L 3.175781 -4.269531 L 2.96875 -4.480469 M 1.378906 -5.496094 C 1.882812 -5.199219 2.140625 -4.972656 2.148438 -4.816406 C 2.15625 -4.660156 2.125 -4.554688 2.058594 -4.492188 C 1.988281 -4.429688 1.9375 -4.402344 1.902344 -4.402344 C 1.832031 -4.402344 1.78125 -4.480469 1.746094 -4.636719 C 1.675781 -4.84375 1.527344 -5.105469 1.300781 -5.417969 L 1.378906 -5.496094 M 1.953125 -2.34375 C 2.003906 -2.328125 2.09375 -2.300781 2.214844 -2.265625 C 2.527344 -2.75 2.734375 -3.109375 2.839844 -3.332031 L 3.253906 -2.96875 C 3.117188 -2.917969 2.96875 -2.824219 2.8125 -2.695312 C 2.65625 -2.566406 2.5 -2.40625 2.34375 -2.214844 C 2.742188 -2.058594 2.957031 -1.941406 2.980469 -1.863281 C 3.007812 -1.785156 3.019531 -1.710938 3.019531 -1.640625 C 3.019531 -1.535156 3.003906 -1.453125 2.96875 -1.394531 C 2.933594 -1.332031 2.90625 -1.300781 2.890625 -1.300781 C 2.839844 -1.300781 2.777344 -1.371094 2.707031 -1.511719 C 2.585938 -1.683594 2.335938 -1.917969 1.953125 -2.214844 L 1.953125 -0.339844 C 1.953125 -0.128906 1.960938 0.128906 1.980469 0.441406 L 1.589844 0.597656 C 1.605469 0.0078125 1.613281 -0.433594 1.613281 -0.730469 L 1.613281 -2.628906 C 1.199219 -2.160156 0.753906 -1.78125 0.285156 -1.484375 L 0.234375 -1.5625 C 0.632812 -1.910156 0.992188 -2.289062 1.316406 -2.695312 C 1.636719 -3.101562 1.925781 -3.550781 2.1875 -4.035156 L 1.199219 -4.035156 C 0.972656 -4.035156 0.765625 -4.011719 0.574219 -3.957031 L 0.339844 -4.191406 L 2.1875 -4.191406 L 2.421875 -4.425781 L 2.8125 -4.035156 L 2.550781 -3.90625 C 2.308594 -3.578125 2.109375 -3.296875 1.953125 -3.074219 Z "/>
</g>
<g id="glyph-0-3">
<path d="M 2.917969 -3.410156 L 2.917969 -2.5 L 3.855469 -2.5 L 3.855469 -3.410156 L 2.917969 -3.410156 M 4.191406 -3.410156 L 4.191406 -2.5 L 5.15625 -2.5 L 5.15625 -3.410156 L 4.191406 -3.410156 M 4.191406 -1.746094 C 4.191406 -1.136719 4.203125 -0.617188 4.21875 -0.183594 L 3.800781 -0.0273438 C 3.835938 -0.546875 3.855469 -1.1875 3.855469 -1.953125 C 3.332031 -1.3125 2.742188 -0.816406 2.082031 -0.46875 L 2.03125 -0.546875 C 2.8125 -1.136719 3.367188 -1.734375 3.699219 -2.34375 L 2.917969 -2.34375 L 2.917969 -2.109375 L 2.578125 -1.980469 L 2.578125 -3.75 L 2.917969 -3.566406 L 3.855469 -3.566406 L 3.855469 -4.296875 L 2.8125 -4.296875 C 2.585938 -4.296875 2.378906 -4.269531 2.1875 -4.21875 L 1.953125 -4.453125 L 3.855469 -4.453125 C 3.855469 -4.714844 3.84375 -5.027344 3.828125 -5.390625 L 4.425781 -5.15625 L 4.191406 -4.972656 L 4.191406 -4.453125 L 5.363281 -4.453125 L 5.703125 -4.738281 L 6.144531 -4.296875 L 4.191406 -4.296875 L 4.191406 -3.566406 L 5.105469 -3.566406 L 5.285156 -3.828125 L 5.730469 -3.542969 L 5.496094 -3.359375 C 5.496094 -2.90625 5.503906 -2.515625 5.519531 -2.1875 L 5.15625 -2.058594 L 5.15625 -2.34375 L 4.191406 -2.34375 L 4.191406 -1.875 C 4.765625 -1.703125 5.183594 -1.546875 5.441406 -1.40625 C 5.703125 -1.265625 5.835938 -1.121094 5.847656 -0.964844 C 5.855469 -0.808594 5.828125 -0.695312 5.769531 -0.625 C 5.707031 -0.554688 5.574219 -0.652344 5.363281 -0.910156 C 5.15625 -1.171875 4.765625 -1.449219 4.191406 -1.746094 M 0.703125 -4.972656 L 0.78125 -5.027344 C 1.042969 -4.886719 1.25 -4.753906 1.40625 -4.621094 C 1.5625 -4.492188 1.636719 -4.375 1.628906 -4.269531 C 1.617188 -4.167969 1.578125 -4.074219 1.511719 -3.996094 C 1.441406 -3.917969 1.390625 -3.878906 1.355469 -3.878906 C 1.285156 -3.878906 1.222656 -3.976562 1.171875 -4.167969 C 1.085938 -4.425781 0.929688 -4.695312 0.703125 -4.972656 M 1.667969 -0.703125 C 1.859375 -0.511719 2.097656 -0.328125 2.382812 -0.15625 C 2.667969 0.015625 3.179688 0.109375 3.917969 0.117188 C 4.65625 0.125 5.484375 0.078125 6.40625 -0.0273438 L 6.40625 0.078125 C 6.078125 0.183594 5.902344 0.320312 5.886719 0.496094 C 5.085938 0.511719 4.429688 0.511719 3.917969 0.496094 C 3.40625 0.476562 2.984375 0.398438 2.65625 0.261719 C 2.328125 0.121094 2.074219 -0.0507812 1.902344 -0.261719 C 1.710938 -0.453125 1.570312 -0.546875 1.484375 -0.546875 C 1.398438 -0.546875 1.257812 -0.445312 1.066406 -0.246094 C 0.875 -0.046875 0.738281 0.128906 0.652344 0.285156 L 0.285156 -0.0507812 C 0.5625 -0.296875 0.910156 -0.519531 1.328125 -0.730469 L 1.328125 -2.785156 L 1.09375 -2.785156 C 0.867188 -2.785156 0.660156 -2.761719 0.46875 -2.707031 L 0.234375 -2.941406 L 1.277344 -2.941406 L 1.457031 -3.203125 L 1.902344 -2.890625 L 1.667969 -2.707031 Z "/>
</g>
<g id="glyph-0-4">
<path d="M 2.65625 -2.109375 C 2.671875 -2.457031 2.683594 -2.855469 2.683594 -3.308594 L 2.003906 -3.308594 L 1.691406 -3.253906 L 1.484375 -3.464844 L 2.683594 -3.464844 C 2.683594 -3.722656 2.671875 -4.011719 2.65625 -4.324219 L 3.230469 -4.035156 L 3.019531 -3.90625 L 3.019531 -3.464844 L 4.480469 -3.464844 C 4.480469 -3.757812 4.46875 -4.035156 4.453125 -4.296875 L 5.050781 -4.035156 L 4.816406 -3.878906 L 4.816406 -3.464844 L 5.3125 -3.464844 L 5.652344 -3.800781 L 6.144531 -3.308594 L 4.816406 -3.308594 C 4.816406 -2.804688 4.828125 -2.472656 4.84375 -2.316406 L 4.480469 -2.160156 L 4.480469 -2.394531 L 3.019531 -2.394531 L 3.019531 -2.265625 L 2.65625 -2.109375 M 5.078125 -1.5625 C 4.679688 -1.058594 4.339844 -0.6875 4.0625 -0.441406 C 4.617188 -0.09375 5.355469 0.09375 6.277344 0.128906 L 6.277344 0.234375 C 6 0.285156 5.832031 0.398438 5.78125 0.574219 C 4.964844 0.417969 4.3125 0.148438 3.828125 -0.234375 C 2.996094 0.234375 2.09375 0.53125 1.121094 0.652344 L 1.09375 0.546875 C 2.015625 0.375 2.847656 0.0351562 3.59375 -0.46875 C 3.265625 -0.796875 2.960938 -1.207031 2.683594 -1.691406 L 2.421875 -1.691406 L 2.1875 -1.640625 L 1.980469 -1.847656 L 4.714844 -1.847656 L 4.949219 -2.082031 L 5.339844 -1.691406 L 5.078125 -1.5625 M 2.8125 -1.691406 C 3.140625 -1.242188 3.472656 -0.894531 3.800781 -0.652344 C 4.148438 -0.980469 4.445312 -1.328125 4.6875 -1.691406 L 2.8125 -1.691406 M 3.019531 -3.308594 L 3.019531 -2.550781 L 4.480469 -2.550781 L 4.480469 -3.308594 L 3.019531 -3.308594 M 1.015625 -4.84375 L 1.457031 -4.582031 L 3.515625 -4.582031 C 3.5 -4.6875 3.460938 -4.800781 3.398438 -4.921875 C 3.335938 -5.042969 3.210938 -5.21875 3.019531 -5.441406 L 3.097656 -5.496094 C 3.5 -5.320312 3.726562 -5.1875 3.789062 -5.089844 C 3.851562 -4.996094 3.878906 -4.9375 3.878906 -4.921875 C 3.878906 -4.816406 3.8125 -4.703125 3.671875 -4.582031 L 5.363281 -4.582031 L 5.730469 -4.949219 L 6.25 -4.425781 L 1.433594 -4.425781 C 1.449219 -3.386719 1.417969 -2.574219 1.339844 -1.992188 C 1.261719 -1.410156 1.136719 -0.910156 0.964844 -0.496094 C 0.789062 -0.078125 0.574219 0.304688 0.3125 0.652344 L 0.234375 0.597656 C 0.582031 -0.0078125 0.804688 -0.640625 0.898438 -1.300781 C 0.992188 -1.960938 1.046875 -2.632812 1.054688 -3.320312 C 1.0625 -4.007812 1.050781 -4.515625 1.015625 -4.84375 Z "/>
</g>
<g id="glyph-0-5">
<path d="M 3.152344 -1.796875 L 3.152344 -0.183594 L 5.234375 -0.183594 L 5.234375 -1.796875 L 3.152344 -1.796875 M 5.128906 -3.175781 C 5.128906 -3.019531 5.246094 -2.941406 5.480469 -2.941406 C 5.714844 -2.941406 5.894531 -2.96875 6.015625 -3.019531 C 6.121094 -3.054688 6.203125 -3.019531 6.261719 -2.917969 C 6.324219 -2.8125 6.355469 -2.742188 6.355469 -2.707031 C 6.355469 -2.621094 6.242188 -2.585938 6.015625 -2.605469 L 5.183594 -2.605469 C 4.886719 -2.640625 4.75 -2.804688 4.765625 -3.097656 L 4.765625 -4.765625 L 3.4375 -4.765625 C 3.4375 -4.503906 3.433594 -4.246094 3.425781 -3.984375 C 3.414062 -3.722656 3.375 -3.480469 3.308594 -3.253906 C 3.238281 -3.03125 3.09375 -2.808594 2.878906 -2.589844 C 2.660156 -2.375 2.371094 -2.195312 2.003906 -2.058594 L 1.980469 -2.136719 C 2.203125 -2.273438 2.398438 -2.429688 2.566406 -2.605469 C 2.730469 -2.777344 2.847656 -2.964844 2.917969 -3.164062 C 2.984375 -3.363281 3.035156 -3.621094 3.058594 -3.933594 C 3.085938 -4.246094 3.089844 -4.660156 3.074219 -5.183594 L 3.4375 -4.921875 L 4.738281 -4.921875 L 4.949219 -5.207031 L 5.339844 -4.84375 L 5.128906 -4.660156 L 5.128906 -3.175781 M 2.761719 0.625 C 2.777344 0.3125 2.785156 -0.164062 2.785156 -0.808594 C 2.785156 -1.449219 2.777344 -1.910156 2.761719 -2.1875 L 3.152344 -1.953125 L 5.207031 -1.953125 L 5.417969 -2.214844 L 5.808594 -1.875 L 5.597656 -1.71875 L 5.597656 -0.363281 C 5.597656 -0.0859375 5.609375 0.15625 5.625 0.363281 L 5.234375 0.546875 L 5.234375 -0.0273438 L 3.152344 -0.0273438 L 3.152344 0.441406 L 2.761719 0.625 M 2.449219 -4.558594 C 1.839844 -2.507812 1.511719 -1.390625 1.457031 -1.199219 C 1.390625 -0.988281 1.355469 -0.714844 1.355469 -0.378906 C 1.355469 -0.0390625 1.363281 0.199219 1.378906 0.339844 C 1.378906 0.40625 1.34375 0.441406 1.277344 0.441406 C 1.222656 0.441406 1.132812 0.417969 1.003906 0.363281 C 0.871094 0.3125 0.808594 0.21875 0.808594 0.078125 C 0.808594 -0.0078125 0.832031 -0.128906 0.886719 -0.285156 C 0.9375 -0.460938 0.964844 -0.597656 0.964844 -0.703125 C 0.964844 -0.824219 0.925781 -0.921875 0.847656 -0.988281 C 0.769531 -1.058594 0.597656 -1.128906 0.339844 -1.199219 L 0.339844 -1.300781 C 0.652344 -1.265625 0.84375 -1.257812 0.910156 -1.277344 C 0.980469 -1.292969 1.066406 -1.371094 1.171875 -1.511719 C 1.277344 -1.648438 1.667969 -2.671875 2.34375 -4.582031 L 2.449219 -4.558594 M 0.339844 -3.671875 C 0.910156 -3.429688 1.210938 -3.230469 1.238281 -3.074219 C 1.261719 -2.917969 1.246094 -2.796875 1.183594 -2.707031 C 1.125 -2.621094 1.066406 -2.578125 1.015625 -2.578125 C 0.964844 -2.578125 0.910156 -2.640625 0.859375 -2.761719 C 0.773438 -2.96875 0.582031 -3.246094 0.285156 -3.59375 L 0.339844 -3.671875 M 0.964844 -5.234375 C 1.433594 -5.042969 1.691406 -4.894531 1.746094 -4.792969 C 1.796875 -4.6875 1.824219 -4.609375 1.824219 -4.558594 C 1.824219 -4.488281 1.792969 -4.402344 1.730469 -4.296875 C 1.671875 -4.191406 1.625 -4.140625 1.589844 -4.140625 C 1.535156 -4.140625 1.492188 -4.210938 1.457031 -4.347656 C 1.371094 -4.558594 1.1875 -4.828125 0.910156 -5.15625 Z "/>
</g>
<g id="glyph-0-6">
</g>
<g id="glyph-0-7">
<path d="M 4.714844 -1.925781 L 4.714844 -0.3125 L 5.652344 -0.3125 L 5.652344 -1.925781 L 4.714844 -1.925781 M 5.964844 -0.3125 C 5.964844 -0.105469 5.972656 0.09375 5.988281 0.285156 L 5.652344 0.441406 L 5.652344 -0.15625 L 3.488281 -0.15625 L 3.488281 0.339844 L 3.152344 0.46875 C 3.167969 -0.0859375 3.175781 -0.84375 3.175781 -1.796875 C 3.175781 -2.75 3.167969 -3.480469 3.152344 -3.984375 L 3.488281 -3.777344 L 4.402344 -3.777344 C 4.402344 -4.558594 4.390625 -5.105469 4.375 -5.417969 L 4.921875 -5.15625 L 4.714844 -4.972656 L 4.714844 -3.777344 L 5.625 -3.777344 L 5.78125 -4.011719 L 6.171875 -3.722656 L 5.964844 -3.566406 L 5.964844 -0.3125 M 3.488281 -3.621094 L 3.488281 -2.082031 L 4.402344 -2.082031 L 4.402344 -3.621094 L 3.488281 -3.621094 M 4.714844 -3.621094 L 4.714844 -2.082031 L 5.652344 -2.082031 L 5.652344 -3.621094 L 4.714844 -3.621094 M 3.488281 -1.925781 L 3.488281 -0.3125 L 4.402344 -0.3125 L 4.402344 -1.925781 L 3.488281 -1.925781 M 2.003906 -1.171875 C 2.003906 -0.339844 2.015625 0.226562 2.03125 0.519531 L 1.667969 0.703125 C 1.683594 0.0273438 1.691406 -0.5625 1.691406 -1.066406 C 1.171875 -0.875 0.84375 -0.746094 0.703125 -0.675781 L 0.546875 -0.496094 L 0.261719 -0.9375 C 0.730469 -1.023438 1.207031 -1.144531 1.691406 -1.300781 L 1.691406 -2.394531 L 0.9375 -2.394531 L 0.730469 -2.265625 L 0.46875 -2.605469 C 0.609375 -2.671875 0.726562 -2.839844 0.820312 -3.097656 C 0.914062 -3.359375 1.03125 -3.707031 1.171875 -4.140625 C 0.980469 -4.140625 0.789062 -4.113281 0.597656 -4.0625 L 0.363281 -4.296875 L 1.222656 -4.296875 C 1.292969 -4.558594 1.34375 -4.773438 1.378906 -4.949219 C 1.414062 -5.121094 1.441406 -5.296875 1.457031 -5.46875 L 1.980469 -5.15625 C 1.859375 -5.15625 1.71875 -4.878906 1.5625 -4.324219 L 2.292969 -4.324219 L 2.605469 -4.636719 L 3.046875 -4.167969 L 1.511719 -4.167969 L 0.9375 -2.550781 L 1.691406 -2.550781 C 1.691406 -3.039062 1.683594 -3.464844 1.667969 -3.828125 L 2.214844 -3.542969 L 2.003906 -3.386719 L 2.003906 -2.550781 L 2.34375 -2.550781 L 2.65625 -2.863281 L 3.046875 -2.394531 L 2.003906 -2.394531 L 2.003906 -1.378906 L 2.941406 -1.640625 L 2.96875 -1.5625 Z "/>
</g>
<g id="glyph-0-8">
<path d="M 0.285156 -4.089844 L 5.46875 -4.089844 L 5.859375 -4.480469 L 6.40625 -3.933594 L 3.203125 -3.933594 C 3.1875 -3.601562 3.140625 -3.21875 3.074219 -2.785156 L 4.765625 -2.785156 L 5.027344 -3.046875 L 5.441406 -2.65625 L 5.183594 -2.5 C 5.007812 -1.164062 4.886719 -0.375 4.816406 -0.128906 C 4.75 0.113281 4.640625 0.28125 4.492188 0.378906 C 4.34375 0.472656 4.140625 0.554688 3.878906 0.625 C 3.8125 0.347656 3.523438 0.105469 3.019531 -0.105469 L 3.046875 -0.207031 C 3.515625 -0.0703125 3.824219 0.00390625 3.972656 0.0117188 C 4.117188 0.0234375 4.230469 -0.0078125 4.308594 -0.078125 C 4.386719 -0.148438 4.460938 -0.367188 4.53125 -0.742188 C 4.601562 -1.117188 4.6875 -1.746094 4.792969 -2.628906 L 3.046875 -2.628906 C 2.75 -1.121094 1.902344 -0.0429688 0.496094 0.597656 L 0.441406 0.496094 C 2.003906 -0.390625 2.785156 -1.867188 2.785156 -3.933594 L 1.144531 -3.933594 C 0.921875 -3.933594 0.710938 -3.90625 0.519531 -3.855469 L 0.285156 -4.089844 M 2.785156 -5.363281 C 3.238281 -5.191406 3.503906 -5.042969 3.582031 -4.921875 C 3.660156 -4.800781 3.699219 -4.703125 3.699219 -4.636719 C 3.699219 -4.566406 3.664062 -4.484375 3.59375 -4.386719 C 3.523438 -4.292969 3.480469 -4.246094 3.464844 -4.246094 C 3.394531 -4.246094 3.324219 -4.339844 3.253906 -4.53125 C 3.152344 -4.792969 2.976562 -5.042969 2.734375 -5.285156 Z "/>
</g>
<g id="glyph-0-9">
<path d="M 2.578125 -2.761719 L 2.578125 -1.40625 L 4.035156 -1.40625 L 4.035156 -2.761719 L 2.578125 -2.761719 M 4.269531 -0.105469 C 4.617188 -0.0859375 4.894531 -0.0742188 5.105469 -0.0664062 C 5.3125 -0.0546875 5.40625 -0.171875 5.390625 -0.417969 L 5.390625 -4.035156 L 1.328125 -4.035156 L 1.328125 0.441406 L 0.9375 0.625 C 0.953125 0.121094 0.964844 -0.285156 0.964844 -0.597656 L 0.964844 -3.386719 C 0.964844 -3.75 0.953125 -4.105469 0.9375 -4.453125 L 1.355469 -4.191406 L 2.472656 -4.191406 C 2.683594 -4.800781 2.796875 -5.226562 2.8125 -5.46875 L 3.386719 -5.183594 C 3.175781 -5.0625 2.933594 -4.730469 2.65625 -4.191406 L 5.339844 -4.191406 L 5.519531 -4.480469 L 5.964844 -4.140625 L 5.753906 -3.957031 L 5.753906 -0.261719 C 5.789062 0.171875 5.597656 0.460938 5.183594 0.597656 C 5.164062 0.304688 4.859375 0.113281 4.269531 0.0273438 L 4.269531 -0.105469 M 4.402344 -1.589844 C 4.402344 -1.449219 4.410156 -1.242188 4.425781 -0.964844 L 4.035156 -0.808594 L 4.035156 -1.25 L 2.578125 -1.25 L 2.578125 -0.859375 L 2.1875 -0.703125 C 2.203125 -1.136719 2.214844 -1.578125 2.214844 -2.03125 C 2.214844 -2.484375 2.203125 -2.855469 2.1875 -3.152344 L 2.578125 -2.917969 L 4.011719 -2.917969 L 4.191406 -3.175781 L 4.609375 -2.839844 L 4.402344 -2.65625 Z "/>
</g>
<g id="glyph-0-10">
<path d="M 1.183594 -0.15625 C 1.28125 -0.277344 1.363281 -0.453125 1.433594 -0.675781 C 1.277344 -0.675781 1.164062 -0.703125 1.09375 -0.753906 C 1.023438 -0.808594 0.976562 -0.875 0.949219 -0.964844 C 0.925781 -1.050781 0.921875 -1.132812 0.9375 -1.210938 C 0.953125 -1.289062 1.015625 -1.367188 1.121094 -1.445312 C 1.222656 -1.523438 1.355469 -1.546875 1.511719 -1.511719 C 1.667969 -1.476562 1.761719 -1.410156 1.796875 -1.316406 C 1.832031 -1.21875 1.847656 -1.128906 1.847656 -1.042969 C 1.847656 -0.9375 1.824219 -0.804688 1.769531 -0.636719 C 1.71875 -0.472656 1.601562 -0.289062 1.417969 -0.0898438 C 1.238281 0.109375 1.089844 0.21875 0.976562 0.234375 C 0.863281 0.25 0.808594 0.25 0.808594 0.234375 C 0.808594 0.21875 0.832031 0.191406 0.886719 0.15625 C 0.988281 0.0703125 1.089844 -0.0351562 1.183594 -0.15625 Z "/>
</g>
<g id="glyph-0-11">
<path d="M 3.046875 -3.984375 L 5.363281 -3.984375 L 5.730469 -4.347656 L 6.222656 -3.828125 L 3.90625 -3.828125 C 3.679688 -3.828125 3.472656 -3.800781 3.28125 -3.75 L 3.046875 -3.984375 M 3.464844 -3.253906 L 3.566406 -3.28125 C 3.898438 -2.570312 4.097656 -2.101562 4.167969 -1.875 C 4.234375 -1.648438 4.269531 -1.457031 4.269531 -1.300781 C 4.269531 -1.234375 4.257812 -1.15625 4.230469 -1.066406 C 4.207031 -0.980469 4.15625 -0.914062 4.089844 -0.871094 C 4.019531 -0.828125 3.976562 -0.808594 3.957031 -0.808594 C 3.871094 -0.808594 3.820312 -0.980469 3.800781 -1.328125 C 3.785156 -1.726562 3.671875 -2.371094 3.464844 -3.253906 M 5.625 -2.917969 C 5.417969 -2.152344 5.121094 -1.214844 4.738281 -0.105469 L 5.519531 -0.105469 L 5.910156 -0.496094 L 6.433594 0.0507812 L 3.621094 0.0507812 C 3.394531 0.0507812 3.1875 0.078125 2.996094 0.128906 L 2.761719 -0.105469 L 4.558594 -0.105469 C 4.90625 -1.457031 5.105469 -2.578125 5.15625 -3.464844 L 5.859375 -3.097656 L 5.625 -2.917969 M 0.546875 -4.609375 C 0.859375 -4.367188 1.054688 -4.195312 1.132812 -4.101562 C 1.210938 -4.007812 1.25 -3.910156 1.25 -3.816406 C 1.25 -3.71875 1.21875 -3.632812 1.160156 -3.554688 C 1.097656 -3.476562 1.050781 -3.4375 1.015625 -3.4375 C 0.964844 -3.4375 0.910156 -3.53125 0.859375 -3.722656 C 0.789062 -4 0.660156 -4.28125 0.46875 -4.558594 L 0.546875 -4.609375 M 1.902344 -0.183594 C 1.902344 0.0429688 1.910156 0.261719 1.925781 0.46875 L 1.511719 0.652344 C 1.527344 0.285156 1.535156 -0.589844 1.535156 -1.980469 C 1.222656 -1.285156 0.816406 -0.730469 0.3125 -0.3125 L 0.261719 -0.390625 C 0.816406 -1.066406 1.222656 -1.902344 1.484375 -2.890625 L 1.171875 -2.890625 C 0.945312 -2.890625 0.738281 -2.863281 0.546875 -2.8125 L 0.3125 -3.046875 L 1.535156 -3.046875 L 1.535156 -4.816406 C 1.535156 -5.042969 1.527344 -5.242188 1.511719 -5.417969 L 2.136719 -5.15625 L 1.902344 -4.949219 L 1.902344 -3.046875 L 2.421875 -3.046875 L 2.761719 -3.359375 L 3.175781 -2.890625 L 1.902344 -2.890625 L 1.902344 -2.421875 C 2.25 -2.265625 2.488281 -2.136719 2.617188 -2.03125 C 2.746094 -1.925781 2.820312 -1.824219 2.839844 -1.71875 C 2.855469 -1.613281 2.839844 -1.515625 2.785156 -1.417969 C 2.734375 -1.324219 2.691406 -1.277344 2.65625 -1.277344 C 2.605469 -1.277344 2.542969 -1.363281 2.472656 -1.535156 C 2.351562 -1.796875 2.160156 -2.046875 1.902344 -2.292969 L 1.902344 -0.183594 M 3.984375 -5.46875 C 4.347656 -5.207031 4.574219 -5.011719 4.660156 -4.882812 C 4.75 -4.753906 4.78125 -4.632812 4.765625 -4.519531 C 4.75 -4.40625 4.699219 -4.3125 4.621094 -4.246094 C 4.542969 -4.175781 4.496094 -4.140625 4.480469 -4.140625 C 4.410156 -4.140625 4.367188 -4.246094 4.347656 -4.453125 C 4.296875 -4.714844 4.148438 -5.035156 3.90625 -5.417969 L 3.984375 -5.46875 M 3.125 -4.375 L 2.917969 -4.296875 C 2.65625 -3.933594 2.40625 -3.621094 2.160156 -3.359375 L 2.082031 -3.410156 C 2.34375 -3.8125 2.535156 -4.246094 2.65625 -4.714844 Z "/>
</g>
<g id="glyph-0-12">
<path d="M 1.121094 -4.972656 L 4.949219 -4.972656 L 5.285156 -5.285156 L 5.78125 -4.714844 C 5.574219 -4.714844 5.308594 -4.621094 4.988281 -4.441406 C 4.664062 -4.257812 4.210938 -3.957031 3.621094 -3.542969 L 3.855469 -3.386719 L 3.566406 -3.230469 L 3.566406 -2.734375 L 5.363281 -2.734375 L 5.78125 -3.152344 L 6.355469 -2.578125 L 3.566406 -2.578125 L 3.566406 -0.078125 C 3.566406 0.25 3.34375 0.496094 2.890625 0.652344 C 2.890625 0.390625 2.605469 0.183594 2.03125 0.0273438 L 2.03125 -0.105469 C 2.5 -0.0507812 2.8125 -0.0273438 2.96875 -0.0273438 C 3.125 -0.0273438 3.195312 -0.148438 3.175781 -0.390625 L 3.175781 -2.578125 L 1.144531 -2.578125 C 0.921875 -2.578125 0.710938 -2.550781 0.519531 -2.5 L 0.285156 -2.734375 L 3.175781 -2.734375 C 3.175781 -3.117188 3.167969 -3.488281 3.152344 -3.855469 L 3.515625 -3.621094 L 4.949219 -4.816406 L 1.980469 -4.816406 C 1.753906 -4.816406 1.546875 -4.792969 1.355469 -4.738281 Z "/>
</g>
<g id="glyph-0-13">
<path d="M 2.34375 -2.109375 L 2.34375 -0.574219 L 3.464844 -0.574219 L 3.464844 -2.109375 L 2.34375 -2.109375 M 4.53125 -3.621094 L 4.425781 -3.28125 C 4.480469 -2.777344 4.554688 -2.359375 4.648438 -2.03125 C 4.742188 -1.703125 4.84375 -1.414062 4.949219 -1.171875 C 5.050781 -1.378906 5.148438 -1.691406 5.234375 -2.109375 C 5.320312 -2.527344 5.390625 -3.03125 5.441406 -3.621094 L 4.53125 -3.621094 M 4.609375 -5.417969 L 5.105469 -5.128906 C 5 -5.078125 4.921875 -4.96875 4.871094 -4.804688 C 4.816406 -4.640625 4.714844 -4.296875 4.558594 -3.777344 L 5.625 -3.777344 L 5.886719 -4.035156 L 6.300781 -3.621094 L 5.78125 -3.621094 C 5.730469 -3.082031 5.65625 -2.574219 5.558594 -2.097656 C 5.464844 -1.617188 5.320312 -1.1875 5.128906 -0.808594 C 5.269531 -0.597656 5.445312 -0.398438 5.664062 -0.207031 C 5.882812 -0.015625 6.101562 0.105469 6.328125 0.15625 L 6.328125 0.234375 C 6.121094 0.25 5.972656 0.339844 5.886719 0.496094 C 5.730469 0.375 5.570312 0.21875 5.402344 0.0273438 C 5.238281 -0.164062 5.085938 -0.375 4.949219 -0.597656 C 4.671875 -0.269531 4.339844 0.00390625 3.957031 0.222656 C 3.578125 0.4375 3.296875 0.574219 3.125 0.625 L 3.074219 0.546875 C 3.386719 0.390625 3.699219 0.1875 4.011719 -0.0664062 C 4.324219 -0.316406 4.582031 -0.589844 4.792969 -0.886719 C 4.652344 -1.25 4.546875 -1.601562 4.480469 -1.941406 C 4.410156 -2.277344 4.367188 -2.664062 4.347656 -3.097656 C 4.210938 -2.785156 4.078125 -2.542969 3.957031 -2.371094 L 3.878906 -2.394531 C 4.054688 -2.796875 4.203125 -3.265625 4.324219 -3.800781 C 4.445312 -4.339844 4.539062 -4.878906 4.609375 -5.417969 M 2.003906 0.285156 C 2.023438 -0.0625 2.03125 -0.523438 2.03125 -1.105469 C 2.03125 -1.6875 2.023438 -2.144531 2.003906 -2.472656 L 2.34375 -2.265625 L 2.761719 -2.265625 L 2.761719 -3.59375 L 2.628906 -3.59375 C 2.40625 -3.59375 2.195312 -3.566406 2.003906 -3.515625 L 1.769531 -3.75 L 2.761719 -3.75 L 2.761719 -4.246094 C 2.761719 -4.402344 2.75 -4.75 2.734375 -5.285156 L 3.28125 -5.027344 L 3.074219 -4.84375 L 3.074219 -3.75 L 3.464844 -3.75 L 3.75 -4.035156 L 4.191406 -3.59375 L 3.074219 -3.59375 L 3.074219 -2.265625 L 3.4375 -2.265625 L 3.644531 -2.472656 L 3.984375 -2.160156 L 3.777344 -2.003906 L 3.777344 -0.730469 C 3.777344 -0.46875 3.785156 -0.285156 3.800781 -0.183594 L 3.464844 0 L 3.464844 -0.417969 L 2.34375 -0.417969 L 2.34375 0.128906 L 2.003906 0.285156 M 1.433594 -0.703125 C 1.433594 -0.078125 1.441406 0.339844 1.457031 0.546875 L 1.066406 0.675781 C 1.085938 -0.015625 1.09375 -0.46875 1.09375 -0.675781 L 1.09375 -3.074219 C 0.832031 -2.605469 0.582031 -2.238281 0.339844 -1.980469 L 0.261719 -2.03125 C 0.660156 -2.671875 0.972656 -3.347656 1.199219 -4.050781 C 1.421875 -4.753906 1.554688 -5.21875 1.589844 -5.441406 L 2.082031 -5.105469 C 1.980469 -5.070312 1.875 -4.921875 1.769531 -4.660156 C 1.667969 -4.402344 1.535156 -4.0625 1.378906 -3.644531 L 1.613281 -3.464844 L 1.433594 -3.308594 Z "/>
</g>
<g id="glyph-0-14">
<path d="M 1.433594 -5.128906 L 1.484375 -5.207031 C 1.867188 -5.050781 2.136719 -4.917969 2.292969 -4.804688 C 2.449219 -4.691406 2.523438 -4.578125 2.511719 -4.464844 C 2.503906 -4.351562 2.472656 -4.257812 2.421875 -4.179688 C 2.371094 -4.101562 2.328125 -4.0625 2.292969 -4.0625 C 2.238281 -4.0625 2.179688 -4.148438 2.109375 -4.324219 C 1.988281 -4.566406 1.761719 -4.835938 1.433594 -5.128906 M 3.203125 -3.90625 L 3.203125 -5.027344 C 3.203125 -5.148438 3.195312 -5.285156 3.175781 -5.441406 L 3.855469 -5.183594 L 3.566406 -4.972656 L 3.566406 -3.90625 L 4.0625 -3.90625 C 4.460938 -4.445312 4.757812 -4.90625 4.949219 -5.285156 L 5.46875 -4.84375 L 5.183594 -4.765625 C 4.992188 -4.625 4.671875 -4.339844 4.21875 -3.90625 L 5.496094 -3.90625 L 5.859375 -4.246094 L 6.328125 -3.75 L 3.566406 -3.75 L 3.566406 -3.59375 C 4.660156 -3.296875 5.3125 -3.089844 5.519531 -2.96875 C 5.730469 -2.847656 5.84375 -2.742188 5.859375 -2.65625 C 5.875 -2.570312 5.886719 -2.507812 5.886719 -2.472656 C 5.886719 -2.386719 5.871094 -2.316406 5.847656 -2.265625 C 5.820312 -2.214844 5.796875 -2.1875 5.78125 -2.1875 C 5.695312 -2.1875 5.554688 -2.292969 5.363281 -2.5 C 5.105469 -2.761719 4.503906 -3.089844 3.566406 -3.488281 C 3.566406 -2.953125 3.578125 -2.621094 3.59375 -2.5 L 3.175781 -2.34375 C 3.195312 -2.570312 3.203125 -3.03125 3.203125 -3.722656 C 2.890625 -3.324219 2.53125 -2.976562 2.121094 -2.683594 C 1.714844 -2.386719 1.144531 -2.136719 0.417969 -1.925781 L 0.390625 -2.003906 C 1.03125 -2.28125 1.53125 -2.5625 1.886719 -2.839844 C 2.242188 -3.117188 2.542969 -3.421875 2.785156 -3.75 L 1.300781 -3.75 C 1.078125 -3.75 0.867188 -3.722656 0.675781 -3.671875 L 0.441406 -3.90625 L 3.203125 -3.90625 M 3.386719 -1.847656 C 3.351562 -1.746094 3.316406 -1.648438 3.28125 -1.5625 L 5.519531 -1.5625 L 5.886719 -1.925781 L 6.355469 -1.40625 L 3.644531 -1.40625 C 3.941406 -0.988281 4.304688 -0.652344 4.738281 -0.390625 C 5.171875 -0.128906 5.71875 0.0351562 6.378906 0.105469 L 6.378906 0.207031 C 6.050781 0.226562 5.84375 0.347656 5.753906 0.574219 C 5.183594 0.347656 4.699219 0.0429688 4.308594 -0.339844 C 3.917969 -0.71875 3.65625 -1.078125 3.515625 -1.40625 L 3.253906 -1.40625 C 3.046875 -0.730469 2.71875 -0.246094 2.265625 0.0390625 C 1.8125 0.324219 1.164062 0.539062 0.3125 0.675781 L 0.285156 0.597656 C 0.910156 0.441406 1.449219 0.222656 1.902344 -0.0664062 C 2.351562 -0.351562 2.671875 -0.796875 2.863281 -1.40625 L 1.121094 -1.40625 C 0.894531 -1.40625 0.6875 -1.378906 0.496094 -1.328125 L 0.261719 -1.5625 L 2.890625 -1.5625 C 2.925781 -1.804688 2.953125 -2.058594 2.96875 -2.316406 L 3.621094 -2.003906 Z "/>
</g>
<g id="glyph-0-15">
<path d="M 3.515625 -0.78125 C 3.515625 -0.398438 3.523438 -0.015625 3.542969 0.363281 L 3.097656 0.546875 C 3.117188 0.0078125 3.125 -0.476562 3.125 -0.910156 L 3.125 -2.421875 L 1.09375 -2.421875 C 0.867188 -2.421875 0.660156 -2.394531 0.46875 -2.34375 L 0.234375 -2.578125 L 3.125 -2.578125 L 3.125 -4.765625 L 1.667969 -4.765625 C 1.441406 -4.765625 1.234375 -4.738281 1.042969 -4.6875 L 0.808594 -4.921875 L 5.050781 -4.921875 L 5.417969 -5.285156 L 5.9375 -4.765625 L 3.515625 -4.765625 L 3.515625 -2.578125 L 5.417969 -2.578125 L 5.808594 -2.96875 L 6.355469 -2.421875 L 3.515625 -2.421875 L 3.515625 -0.78125 M 4.949219 -4.503906 L 5.496094 -4.089844 C 5.355469 -4.089844 5.164062 -3.933594 4.921875 -3.621094 C 4.660156 -3.308594 4.382812 -3.011719 4.089844 -2.734375 L 4.011719 -2.785156 C 4.460938 -3.394531 4.773438 -3.96875 4.949219 -4.503906 M 1.355469 -4.375 C 1.859375 -4.011719 2.152344 -3.761719 2.238281 -3.632812 C 2.328125 -3.503906 2.371094 -3.386719 2.371094 -3.28125 C 2.371094 -3.230469 2.355469 -3.164062 2.332031 -3.085938 C 2.304688 -3.007812 2.242188 -2.933594 2.148438 -2.863281 C 2.054688 -2.796875 1.960938 -2.917969 1.875 -3.230469 C 1.789062 -3.523438 1.589844 -3.890625 1.277344 -4.324219 Z "/>
</g>
<g id="glyph-0-16">
<path d="M 4.660156 -3.828125 C 4.679688 -4.488281 4.671875 -4.984375 4.636719 -5.3125 L 5.261719 -5.050781 L 5.050781 -4.871094 C 5.035156 -4.503906 5.015625 -4.15625 5 -3.828125 L 5.574219 -3.828125 L 5.730469 -4.089844 L 6.171875 -3.800781 L 5.988281 -3.621094 C 5.921875 -2.28125 5.855469 -1.441406 5.792969 -1.09375 C 5.734375 -0.746094 5.511719 -0.539062 5.128906 -0.46875 C 5.148438 -0.660156 4.984375 -0.832031 4.636719 -0.988281 L 4.660156 -1.09375 C 4.835938 -1.042969 4.984375 -1.007812 5.105469 -0.988281 C 5.226562 -0.972656 5.324219 -1.007812 5.402344 -1.09375 C 5.480469 -1.179688 5.5625 -2.039062 5.652344 -3.671875 L 5 -3.671875 C 4.929688 -2.195312 4.515625 -1.09375 3.75 -0.363281 L 3.75 -0.128906 C 3.785156 0.078125 3.90625 0.183594 4.113281 0.183594 L 5.574219 0.183594 C 5.765625 0.164062 5.871094 0.0273438 5.898438 -0.234375 C 5.925781 -0.496094 5.9375 -0.738281 5.9375 -0.964844 L 6.066406 -0.964844 C 6.066406 -0.703125 6.085938 -0.472656 6.121094 -0.273438 C 6.15625 -0.0742188 6.257812 0.0351562 6.433594 0.0507812 C 6.277344 0.328125 6.042969 0.46875 5.730469 0.46875 L 3.984375 0.46875 C 3.566406 0.46875 3.375 0.226562 3.410156 -0.261719 L 3.488281 -3.464844 L 3.019531 -3.4375 C 3.003906 -2.550781 2.878906 -1.78125 2.644531 -1.121094 C 2.410156 -0.460938 2.03125 0.105469 1.511719 0.574219 L 1.457031 0.496094 C 1.875 -0.0078125 2.175781 -0.578125 2.355469 -1.210938 C 2.539062 -1.84375 2.640625 -2.578125 2.65625 -3.410156 L 2.316406 -3.386719 L 2.1875 -3.308594 L 1.953125 -3.515625 L 2.65625 -3.566406 C 2.671875 -4.453125 2.664062 -5.035156 2.628906 -5.3125 L 3.253906 -5.027344 L 3.046875 -4.84375 C 3.03125 -4.480469 3.019531 -4.0625 3.019531 -3.59375 L 3.464844 -3.621094 L 3.621094 -3.828125 L 4.035156 -3.542969 L 3.828125 -3.359375 L 3.75 -0.496094 C 4.304688 -1.328125 4.609375 -2.386719 4.660156 -3.671875 L 4.375 -3.671875 L 4.140625 -3.621094 L 3.933594 -3.828125 L 4.660156 -3.828125 M 1.222656 -3.957031 C 1.222656 -4.566406 1.214844 -5.050781 1.199219 -5.417969 L 1.769531 -5.128906 L 1.5625 -4.949219 L 1.5625 -3.957031 L 1.746094 -3.957031 L 2.003906 -4.21875 L 2.421875 -3.800781 L 1.5625 -3.800781 L 1.5625 -2.472656 L 2.265625 -2.863281 L 2.316406 -2.785156 L 1.5625 -2.238281 L 1.5625 -0.15625 C 1.5625 0.140625 1.390625 0.347656 1.042969 0.46875 C 1.023438 0.261719 0.816406 0.0859375 0.417969 -0.0507812 L 0.417969 -0.15625 C 0.710938 -0.105469 0.921875 -0.0742188 1.042969 -0.0664062 C 1.164062 -0.0546875 1.222656 -0.15625 1.222656 -0.363281 L 1.222656 -2.03125 C 0.859375 -1.769531 0.640625 -1.589844 0.574219 -1.484375 L 0.261719 -1.875 C 0.46875 -1.945312 0.789062 -2.09375 1.222656 -2.316406 L 1.222656 -3.800781 L 0.703125 -3.800781 L 0.46875 -3.75 L 0.261719 -3.957031 Z "/>
</g>
<g id="glyph-0-17">
<path d="M 2.550781 -4.660156 L 4.816406 -4.660156 L 5.183594 -5 L 5.652344 -4.503906 L 3.253906 -4.503906 C 3.132812 -4.503906 2.976562 -4.480469 2.785156 -4.425781 L 2.550781 -4.660156 M 2.394531 -1.277344 C 2.570312 -1.3125 2.734375 -1.421875 2.890625 -1.613281 C 3.046875 -1.804688 3.210938 -2.046875 3.386719 -2.34375 C 3.558594 -2.640625 3.679688 -2.90625 3.75 -3.152344 L 2.8125 -3.152344 C 2.671875 -3.152344 2.507812 -3.125 2.316406 -3.074219 L 2.082031 -3.308594 L 5.3125 -3.308594 L 5.703125 -3.699219 L 6.199219 -3.152344 L 3.828125 -3.152344 L 4.296875 -2.8125 C 4.15625 -2.8125 3.957031 -2.628906 3.699219 -2.265625 C 3.421875 -1.882812 3.125 -1.535156 2.8125 -1.222656 L 5.128906 -1.328125 C 5.007812 -1.589844 4.816406 -1.867188 4.558594 -2.160156 L 4.636719 -2.214844 C 5 -1.988281 5.28125 -1.773438 5.480469 -1.574219 C 5.679688 -1.375 5.769531 -1.195312 5.742188 -1.027344 C 5.714844 -0.863281 5.675781 -0.757812 5.625 -0.714844 C 5.574219 -0.671875 5.53125 -0.652344 5.496094 -0.652344 C 5.441406 -0.652344 5.398438 -0.703125 5.363281 -0.808594 C 5.3125 -0.945312 5.261719 -1.078125 5.207031 -1.199219 C 4.304688 -1.109375 3.703125 -1.03125 3.398438 -0.964844 C 3.09375 -0.894531 2.863281 -0.808594 2.707031 -0.703125 L 2.394531 -1.277344 M 0.859375 -5.128906 L 0.9375 -5.183594 C 1.285156 -5.007812 1.519531 -4.859375 1.640625 -4.738281 C 1.761719 -4.617188 1.8125 -4.492188 1.796875 -4.363281 C 1.78125 -4.230469 1.734375 -4.136719 1.667969 -4.074219 C 1.597656 -4.015625 1.546875 -3.984375 1.511719 -3.984375 C 1.441406 -3.984375 1.390625 -4.070312 1.355469 -4.246094 C 1.300781 -4.488281 1.136719 -4.78125 0.859375 -5.128906 M 1.667969 -0.859375 C 1.824219 -0.6875 2.039062 -0.519531 2.316406 -0.363281 C 2.59375 -0.207031 3 -0.117188 3.527344 -0.0898438 C 4.058594 -0.0664062 4.5625 -0.0625 5.039062 -0.078125 C 5.515625 -0.09375 5.972656 -0.140625 6.40625 -0.207031 L 6.40625 -0.105469 C 6.042969 0 5.859375 0.148438 5.859375 0.339844 C 5.078125 0.339844 4.429688 0.328125 3.917969 0.3125 C 3.40625 0.296875 2.992188 0.222656 2.667969 0.0898438 C 2.347656 -0.0390625 2.09375 -0.199219 1.902344 -0.390625 C 1.710938 -0.5625 1.570312 -0.660156 1.484375 -0.675781 C 1.398438 -0.695312 1.253906 -0.597656 1.054688 -0.390625 C 0.855469 -0.183594 0.710938 -0.015625 0.625 0.105469 L 0.261719 -0.261719 C 0.539062 -0.484375 0.894531 -0.6875 1.328125 -0.859375 L 1.328125 -2.96875 L 1.144531 -2.96875 C 0.921875 -2.96875 0.710938 -2.941406 0.519531 -2.890625 L 0.285156 -3.125 L 1.277344 -3.125 L 1.457031 -3.410156 L 1.902344 -3.074219 L 1.667969 -2.890625 Z "/>
</g>
<g id="glyph-0-18">
<path d="M 6.199219 -3.644531 L 5.988281 -3.464844 C 5.972656 -1.625 5.914062 -0.515625 5.820312 -0.144531 C 5.726562 0.230469 5.46875 0.476562 5.050781 0.597656 C 5.035156 0.40625 4.765625 0.199219 4.246094 -0.0273438 L 4.269531 -0.15625 C 4.636719 -0.0703125 4.921875 -0.0273438 5.128906 -0.0273438 C 5.234375 -0.0273438 5.316406 -0.046875 5.378906 -0.0898438 C 5.4375 -0.132812 5.492188 -0.359375 5.535156 -0.769531 C 5.578125 -1.175781 5.617188 -2.109375 5.652344 -3.566406 L 4.558594 -3.566406 C 4.539062 -2.90625 4.464844 -2.316406 4.335938 -1.796875 C 4.207031 -1.277344 3.972656 -0.816406 3.632812 -0.417969 C 3.292969 -0.015625 2.847656 0.339844 2.292969 0.652344 L 2.214844 0.574219 C 2.769531 0.191406 3.179688 -0.195312 3.449219 -0.585938 C 3.71875 -0.976562 3.910156 -1.414062 4.023438 -1.902344 C 4.136719 -2.386719 4.203125 -2.941406 4.21875 -3.566406 L 3.75 -3.566406 L 3.4375 -3.515625 L 3.230469 -3.722656 L 4.21875 -3.722656 C 4.21875 -4.453125 4.210938 -5.007812 4.191406 -5.390625 L 4.738281 -5.128906 L 4.558594 -4.949219 L 4.558594 -3.722656 L 5.597656 -3.722656 L 5.808594 -3.957031 L 6.199219 -3.644531 M 0.496094 -4.503906 L 2.371094 -4.503906 L 2.683594 -4.816406 L 3.152344 -4.347656 L 1.25 -4.347656 C 1.058594 -4.347656 0.886719 -4.324219 0.730469 -4.269531 L 0.496094 -4.503906 M 0.285156 -3.175781 L 2.734375 -3.175781 L 3.046875 -3.488281 L 3.515625 -3.019531 L 1.769531 -3.019531 L 2.1875 -2.707031 C 2.015625 -2.640625 1.789062 -2.386719 1.511719 -1.953125 C 1.214844 -1.519531 0.945312 -1.171875 0.703125 -0.910156 L 2.761719 -1.144531 C 2.585938 -1.492188 2.40625 -1.8125 2.214844 -2.109375 L 2.292969 -2.160156 C 2.898438 -1.605469 3.21875 -1.226562 3.253906 -1.027344 C 3.289062 -0.828125 3.269531 -0.691406 3.191406 -0.613281 C 3.113281 -0.535156 3.0625 -0.496094 3.046875 -0.496094 C 2.996094 -0.496094 2.960938 -0.539062 2.941406 -0.625 C 2.90625 -0.746094 2.863281 -0.875 2.8125 -1.015625 C 1.546875 -0.789062 0.816406 -0.574219 0.625 -0.363281 L 0.339844 -0.886719 C 0.53125 -0.9375 0.773438 -1.226562 1.066406 -1.757812 C 1.363281 -2.289062 1.546875 -2.707031 1.613281 -3.019531 L 0.78125 -3.019531 L 0.496094 -2.96875 Z "/>
</g>
<g id="glyph-0-19">
<path d="M 2.003906 -1.328125 C 2.144531 -1.277344 2.238281 -1.175781 2.292969 -1.027344 C 2.34375 -0.882812 2.371094 -0.773438 2.371094 -0.703125 C 2.371094 -0.652344 2.351562 -0.558594 2.316406 -0.429688 C 2.28125 -0.300781 2.199219 -0.191406 2.070312 -0.105469 C 1.941406 -0.015625 1.789062 0.0273438 1.613281 0.0273438 C 1.441406 0.0273438 1.285156 -0.0429688 1.144531 -0.183594 C 1.007812 -0.320312 0.933594 -0.472656 0.925781 -0.636719 C 0.914062 -0.804688 0.949219 -0.949219 1.027344 -1.082031 C 1.105469 -1.210938 1.207031 -1.296875 1.328125 -1.339844 C 1.449219 -1.382812 1.554688 -1.40625 1.640625 -1.40625 C 1.746094 -1.40625 1.867188 -1.378906 2.003906 -1.328125 M 1.980469 -0.300781 C 2.101562 -0.378906 2.15625 -0.515625 2.148438 -0.714844 C 2.140625 -0.914062 2.074219 -1.046875 1.953125 -1.105469 C 1.832031 -1.167969 1.726562 -1.199219 1.640625 -1.199219 C 1.535156 -1.199219 1.429688 -1.160156 1.316406 -1.082031 C 1.203125 -1.003906 1.144531 -0.867188 1.144531 -0.675781 C 1.144531 -0.484375 1.210938 -0.355469 1.339844 -0.285156 C 1.472656 -0.21875 1.570312 -0.183594 1.640625 -0.183594 C 1.746094 -0.183594 1.859375 -0.222656 1.980469 -0.300781 Z "/>
</g>
<g id="glyph-1-0">
<path d="M 3.328125 0 L 1.855469 0 L 1.855469 -0.214844 C 1.953125 -0.226562 2.035156 -0.238281 2.105469 -0.246094 C 2.175781 -0.257812 2.207031 -0.285156 2.207031 -0.332031 C 2.207031 -0.351562 2.199219 -0.382812 2.175781 -0.421875 C 2.152344 -0.464844 2.132812 -0.503906 2.109375 -0.539062 C 2.054688 -0.621094 1.980469 -0.734375 1.886719 -0.878906 C 1.792969 -1.019531 1.675781 -1.191406 1.539062 -1.386719 C 1.425781 -1.246094 1.324219 -1.109375 1.226562 -0.976562 C 1.132812 -0.839844 1.03125 -0.699219 0.925781 -0.550781 C 0.910156 -0.527344 0.894531 -0.5 0.878906 -0.46875 C 0.863281 -0.4375 0.855469 -0.410156 0.855469 -0.390625 C 0.855469 -0.34375 0.886719 -0.304688 0.949219 -0.273438 C 1.011719 -0.242188 1.101562 -0.21875 1.226562 -0.207031 L 1.226562 0 L 0.0390625 0 L 0.0390625 -0.203125 C 0.1875 -0.246094 0.304688 -0.296875 0.394531 -0.359375 C 0.484375 -0.421875 0.570312 -0.496094 0.644531 -0.589844 C 0.710938 -0.675781 0.804688 -0.796875 0.925781 -0.949219 C 1.046875 -1.101562 1.203125 -1.308594 1.394531 -1.570312 C 1.285156 -1.726562 1.148438 -1.921875 0.988281 -2.148438 C 0.828125 -2.375 0.699219 -2.566406 0.59375 -2.71875 C 0.535156 -2.800781 0.472656 -2.867188 0.398438 -2.917969 C 0.328125 -2.96875 0.222656 -2.996094 0.0898438 -2.996094 L 0.0898438 -3.210938 L 1.488281 -3.210938 L 1.488281 -2.996094 C 1.417969 -2.996094 1.351562 -2.992188 1.28125 -2.980469 C 1.214844 -2.972656 1.183594 -2.953125 1.183594 -2.921875 C 1.183594 -2.902344 1.1875 -2.882812 1.203125 -2.859375 C 1.214844 -2.835938 1.230469 -2.808594 1.25 -2.78125 C 1.296875 -2.707031 1.371094 -2.59375 1.472656 -2.4375 C 1.574219 -2.285156 1.683594 -2.121094 1.800781 -1.949219 C 1.875 -2.054688 1.964844 -2.175781 2.066406 -2.316406 C 2.167969 -2.453125 2.261719 -2.585938 2.34375 -2.710938 C 2.355469 -2.726562 2.363281 -2.746094 2.371094 -2.769531 C 2.378906 -2.792969 2.382812 -2.8125 2.382812 -2.835938 C 2.382812 -2.878906 2.347656 -2.917969 2.269531 -2.945312 C 2.195312 -2.972656 2.125 -2.992188 2.058594 -3 L 2.058594 -3.210938 L 3.242188 -3.210938 L 3.242188 -3.007812 C 3.074219 -2.964844 2.945312 -2.914062 2.851562 -2.851562 C 2.757812 -2.792969 2.679688 -2.722656 2.613281 -2.644531 C 2.542969 -2.558594 2.457031 -2.449219 2.359375 -2.316406 C 2.261719 -2.1875 2.121094 -2.003906 1.945312 -1.769531 C 2.140625 -1.492188 2.300781 -1.265625 2.425781 -1.085938 C 2.550781 -0.910156 2.671875 -0.726562 2.800781 -0.539062 C 2.863281 -0.441406 2.933594 -0.367188 3.007812 -0.3125 C 3.085938 -0.253906 3.191406 -0.222656 3.328125 -0.214844 Z "/>
</g>
<g id="glyph-1-1">
</g>
</g>
</defs>
<g fill="rgb(100%, 100%, 100%)" fill-opacity="1">
<use xlink:href="#glyph-0-0" x="30" y="26.545898"/>
<use xlink:href="#glyph-0-1" x="37" y="26.545898"/>
<use xlink:href="#glyph-0-2" x="44" y="26.545898"/>
<use xlink:href="#glyph-0-3" x="51" y="26.545898"/>
<use xlink:href="#glyph-0-4" x="58" y="26.545898"/>
<use xlink:href="#glyph-0-5" x="65" y="26.545898"/>
<use xlink:href="#glyph-0-6" x="72" y="26.545898"/>
</g>
<g fill="rgb(100%, 100%, 100%)" fill-opacity="1">
<use xlink:href="#glyph-1-0" x="75" y="26.112305"/>
<use xlink:href="#glyph-1-1" x="78" y="26.112305"/>
</g>
<g fill="rgb(100%, 100%, 100%)" fill-opacity="1">
<use xlink:href="#glyph-0-7" x="80" y="26.545898"/>
<use xlink:href="#glyph-0-8" x="87" y="26.545898"/>
<use xlink:href="#glyph-0-9" x="94" y="26.545898"/>
<use xlink:href="#glyph-0-10" x="101" y="26.545898"/>
<use xlink:href="#glyph-0-11" x="108" y="26.545898"/>
<use xlink:href="#glyph-0-12" x="115" y="26.545898"/>
<use xlink:href="#glyph-0-13" x="122" y="26.545898"/>
<use xlink:href="#glyph-0-14" x="129" y="26.545898"/>
<use xlink:href="#glyph-0-15" x="136" y="26.545898"/>
<use xlink:href="#glyph-0-16" x="143" y="26.545898"/>
<use xlink:href="#glyph-0-17" x="150" y="26.545898"/>
<use xlink:href="#glyph-0-18" x="157" y="26.545898"/>
<use xlink:href="#glyph-0-19" x="164" y="26.545898"/>
</g>
</svg>
